<mxfile host="app.diagrams.net" agent="Mozilla/5.0 (Windows NT 10.0; Win64; x64) AppleWebKit/537.36 (KHTML, like Gecko) Chrome/122.0.0.0 Safari/537.36" version="28.2.3">
  <diagram name="第 1 页" id="2CXwonGYU7ZMi02DG3Di">
    <mxGraphModel dx="2070" dy="1161" grid="1" gridSize="10" guides="1" tooltips="1" connect="1" arrows="1" fold="1" page="1" pageScale="1" pageWidth="4681" pageHeight="3300" math="0" shadow="0">
      <root>
        <mxCell id="0" />
        <mxCell id="1" parent="0" />
        <mxCell id="sIri8vKS5hI8YvFIzFhF-2" value="&lt;font style=&quot;font-size: 24px;&quot;&gt;Redis&lt;/font&gt;" style="text;align=center;fontStyle=1;verticalAlign=middle;spacingLeft=3;spacingRight=3;strokeColor=none;rotatable=0;points=[[0,0.5],[1,0.5]];portConstraint=eastwest;html=1;" parent="1" vertex="1">
          <mxGeometry x="300" y="40" width="120" height="30" as="geometry" />
        </mxCell>
        <mxCell id="sIri8vKS5hI8YvFIzFhF-4" value="group_member_{GroupId}&lt;span style=&quot;white-space: pre;&quot;&gt;&#x9;&lt;/span&gt;&lt;span style=&quot;white-space: pre;&quot;&gt;&#x9;&lt;/span&gt;哈希值&lt;span style=&quot;white-space: pre;&quot;&gt;&#x9;&lt;/span&gt;&lt;span style=&quot;white-space: pre;&quot;&gt;&#x9;&lt;/span&gt;[userId, ???]" style="text;align=center;fontStyle=1;verticalAlign=middle;spacingLeft=3;spacingRight=3;strokeColor=none;rotatable=0;points=[[0,0.5],[1,0.5]];portConstraint=eastwest;html=1;" parent="1" vertex="1">
          <mxGeometry x="210" y="180" width="80" height="26" as="geometry" />
        </mxCell>
        <mxCell id="sIri8vKS5hI8YvFIzFhF-5" value="&lt;font style=&quot;font-size: 18px;&quot;&gt;group_member&lt;/font&gt;" style="text;align=center;fontStyle=1;verticalAlign=middle;spacingLeft=3;spacingRight=3;strokeColor=none;rotatable=0;points=[[0,0.5],[1,0.5]];portConstraint=eastwest;html=1;" parent="1" vertex="1">
          <mxGeometry x="210" y="130" width="80" height="26" as="geometry" />
        </mxCell>
        <mxCell id="sIri8vKS5hI8YvFIzFhF-6" value="&lt;font style=&quot;font-size: 24px;&quot;&gt;MySQL&lt;/font&gt;" style="text;align=center;fontStyle=1;verticalAlign=middle;spacingLeft=3;spacingRight=3;strokeColor=none;rotatable=0;points=[[0,0.5],[1,0.5]];portConstraint=eastwest;html=1;" parent="1" vertex="1">
          <mxGeometry x="920" y="30" width="120" height="30" as="geometry" />
        </mxCell>
        <mxCell id="sIri8vKS5hI8YvFIzFhF-7" value="&lt;font style=&quot;font-size: 18px;&quot;&gt;teamtalk_slave&lt;/font&gt;" style="text;align=center;fontStyle=1;verticalAlign=middle;spacingLeft=3;spacingRight=3;strokeColor=none;rotatable=0;points=[[0,0.5],[1,0.5]];portConstraint=eastwest;html=1;" parent="1" vertex="1">
          <mxGeometry x="940" y="120" width="80" height="26" as="geometry" />
        </mxCell>
        <mxCell id="sIri8vKS5hI8YvFIzFhF-13" value="&lt;b&gt;&lt;font style=&quot;font-size: 24px;&quot;&gt;IMRecentSession&lt;/font&gt;&lt;/b&gt;" style="swimlane;fontStyle=0;childLayout=stackLayout;horizontal=1;startSize=26;fillColor=none;horizontalStack=0;resizeParent=1;resizeParentMax=0;resizeLast=0;collapsible=1;marginBottom=0;whiteSpace=wrap;html=1;" parent="1" vertex="1">
          <mxGeometry x="800" y="206" width="500" height="208" as="geometry" />
        </mxCell>
        <mxCell id="sIri8vKS5hI8YvFIzFhF-14" value="id&lt;span style=&quot;white-space: pre;&quot;&gt;&#x9;&lt;/span&gt;&lt;span style=&quot;white-space: pre;&quot;&gt;&#x9;&lt;/span&gt;&lt;span style=&quot;white-space: pre;&quot;&gt;&#x9;&lt;/span&gt;会话id，标识符" style="text;strokeColor=none;fillColor=none;align=left;verticalAlign=top;spacingLeft=4;spacingRight=4;overflow=hidden;rotatable=0;points=[[0,0.5],[1,0.5]];portConstraint=eastwest;whiteSpace=wrap;html=1;" parent="sIri8vKS5hI8YvFIzFhF-13" vertex="1">
          <mxGeometry y="26" width="500" height="26" as="geometry" />
        </mxCell>
        <mxCell id="sIri8vKS5hI8YvFIzFhF-15" value="userId&lt;span style=&quot;white-space: pre;&quot;&gt;&#x9;&lt;/span&gt;&lt;span style=&quot;white-space: pre;&quot;&gt;&#x9;&lt;/span&gt;用户id" style="text;strokeColor=none;fillColor=none;align=left;verticalAlign=top;spacingLeft=4;spacingRight=4;overflow=hidden;rotatable=0;points=[[0,0.5],[1,0.5]];portConstraint=eastwest;whiteSpace=wrap;html=1;" parent="sIri8vKS5hI8YvFIzFhF-13" vertex="1">
          <mxGeometry y="52" width="500" height="26" as="geometry" />
        </mxCell>
        <mxCell id="sIri8vKS5hI8YvFIzFhF-16" value="peerId&lt;span style=&quot;white-space: pre;&quot;&gt;&#x9;&lt;/span&gt;&lt;span style=&quot;white-space: pre;&quot;&gt;&#x9;&lt;/span&gt;对方id" style="text;strokeColor=none;fillColor=none;align=left;verticalAlign=top;spacingLeft=4;spacingRight=4;overflow=hidden;rotatable=0;points=[[0,0.5],[1,0.5]];portConstraint=eastwest;whiteSpace=wrap;html=1;" parent="sIri8vKS5hI8YvFIzFhF-13" vertex="1">
          <mxGeometry y="78" width="500" height="26" as="geometry" />
        </mxCell>
        <mxCell id="sIri8vKS5hI8YvFIzFhF-17" value="type&lt;span style=&quot;white-space: pre;&quot;&gt;&#x9;&lt;/span&gt;&lt;span style=&quot;white-space: pre;&quot;&gt;&#x9;&lt;/span&gt;&lt;span style=&quot;white-space: pre;&quot;&gt;&#x9;&lt;/span&gt;类型：0-默认；1-用户；2-群组" style="text;strokeColor=none;fillColor=none;align=left;verticalAlign=top;spacingLeft=4;spacingRight=4;overflow=hidden;rotatable=0;points=[[0,0.5],[1,0.5]];portConstraint=eastwest;whiteSpace=wrap;html=1;" parent="sIri8vKS5hI8YvFIzFhF-13" vertex="1">
          <mxGeometry y="104" width="500" height="26" as="geometry" />
        </mxCell>
        <mxCell id="sIri8vKS5hI8YvFIzFhF-18" value="status&lt;span style=&quot;white-space: pre;&quot;&gt;&#x9;&lt;/span&gt;&lt;span style=&quot;white-space: pre;&quot;&gt;&#x9;&lt;/span&gt;状态：用户：0-正常；1-用户A删除；群组：0-正常；1-被删除" style="text;strokeColor=none;fillColor=none;align=left;verticalAlign=top;spacingLeft=4;spacingRight=4;overflow=hidden;rotatable=0;points=[[0,0.5],[1,0.5]];portConstraint=eastwest;whiteSpace=wrap;html=1;" parent="sIri8vKS5hI8YvFIzFhF-13" vertex="1">
          <mxGeometry y="130" width="500" height="26" as="geometry" />
        </mxCell>
        <mxCell id="sIri8vKS5hI8YvFIzFhF-19" value="created&lt;span style=&quot;white-space: pre;&quot;&gt;&#x9;&lt;/span&gt;&lt;span style=&quot;white-space: pre;&quot;&gt;&#x9;&lt;/span&gt;创建时间" style="text;strokeColor=none;fillColor=none;align=left;verticalAlign=top;spacingLeft=4;spacingRight=4;overflow=hidden;rotatable=0;points=[[0,0.5],[1,0.5]];portConstraint=eastwest;whiteSpace=wrap;html=1;" parent="sIri8vKS5hI8YvFIzFhF-13" vertex="1">
          <mxGeometry y="156" width="500" height="26" as="geometry" />
        </mxCell>
        <mxCell id="sIri8vKS5hI8YvFIzFhF-20" value="updated&lt;span style=&quot;white-space: pre;&quot;&gt;&#x9;&lt;/span&gt;&lt;span style=&quot;white-space: pre;&quot;&gt;&#x9;&lt;/span&gt;更新时间" style="text;strokeColor=none;fillColor=none;align=left;verticalAlign=top;spacingLeft=4;spacingRight=4;overflow=hidden;rotatable=0;points=[[0,0.5],[1,0.5]];portConstraint=eastwest;whiteSpace=wrap;html=1;" parent="sIri8vKS5hI8YvFIzFhF-13" vertex="1">
          <mxGeometry y="182" width="500" height="26" as="geometry" />
        </mxCell>
        <mxCell id="cNy02wjT9gQk6fJg44tr-1" value="&lt;b&gt;&lt;font style=&quot;font-size: 24px;&quot;&gt;IMGroup&lt;/font&gt;&lt;/b&gt;" style="swimlane;fontStyle=0;childLayout=stackLayout;horizontal=1;startSize=26;fillColor=none;horizontalStack=0;resizeParent=1;resizeParentMax=0;resizeLast=0;collapsible=1;marginBottom=0;whiteSpace=wrap;html=1;" parent="1" vertex="1">
          <mxGeometry x="800" y="490" width="500" height="312" as="geometry" />
        </mxCell>
        <mxCell id="cNy02wjT9gQk6fJg44tr-2" value="id&lt;span style=&quot;white-space: pre;&quot;&gt;&#x9;&lt;/span&gt;&lt;span style=&quot;white-space: pre;&quot;&gt;&#x9;&lt;/span&gt;&lt;span style=&quot;white-space: pre;&quot;&gt;&#x9;&lt;/span&gt;自增，标识符" style="text;strokeColor=none;fillColor=none;align=left;verticalAlign=top;spacingLeft=4;spacingRight=4;overflow=hidden;rotatable=0;points=[[0,0.5],[1,0.5]];portConstraint=eastwest;whiteSpace=wrap;html=1;" parent="cNy02wjT9gQk6fJg44tr-1" vertex="1">
          <mxGeometry y="26" width="500" height="26" as="geometry" />
        </mxCell>
        <mxCell id="cNy02wjT9gQk6fJg44tr-3" value="name&lt;span style=&quot;white-space: pre;&quot;&gt;&#x9;&lt;/span&gt;&lt;span style=&quot;white-space: pre;&quot;&gt;&#x9;&lt;/span&gt;群名称" style="text;strokeColor=none;fillColor=none;align=left;verticalAlign=top;spacingLeft=4;spacingRight=4;overflow=hidden;rotatable=0;points=[[0,0.5],[1,0.5]];portConstraint=eastwest;whiteSpace=wrap;html=1;" parent="cNy02wjT9gQk6fJg44tr-1" vertex="1">
          <mxGeometry y="52" width="500" height="26" as="geometry" />
        </mxCell>
        <mxCell id="cNy02wjT9gQk6fJg44tr-4" value="avatar&lt;span style=&quot;white-space: pre;&quot;&gt;&#x9;&lt;span style=&quot;white-space: pre;&quot;&gt;&#x9;&lt;/span&gt;群头像&lt;/span&gt;" style="text;strokeColor=none;fillColor=none;align=left;verticalAlign=top;spacingLeft=4;spacingRight=4;overflow=hidden;rotatable=0;points=[[0,0.5],[1,0.5]];portConstraint=eastwest;whiteSpace=wrap;html=1;" parent="cNy02wjT9gQk6fJg44tr-1" vertex="1">
          <mxGeometry y="78" width="500" height="26" as="geometry" />
        </mxCell>
        <mxCell id="cNy02wjT9gQk6fJg44tr-5" value="creator&lt;span style=&quot;white-space: pre;&quot;&gt;&#x9;&lt;/span&gt;&lt;span style=&quot;white-space: pre;&quot;&gt;&#x9;&lt;/span&gt;创建者用户 id" style="text;strokeColor=none;fillColor=none;align=left;verticalAlign=top;spacingLeft=4;spacingRight=4;overflow=hidden;rotatable=0;points=[[0,0.5],[1,0.5]];portConstraint=eastwest;whiteSpace=wrap;html=1;" parent="cNy02wjT9gQk6fJg44tr-1" vertex="1">
          <mxGeometry y="104" width="500" height="26" as="geometry" />
        </mxCell>
        <mxCell id="cNy02wjT9gQk6fJg44tr-6" value="type&lt;span style=&quot;white-space: pre;&quot;&gt;&#x9;&lt;/span&gt;&lt;span style=&quot;white-space: pre;&quot;&gt;&#x9;&lt;span style=&quot;white-space: pre;&quot;&gt;&#x9;&lt;/span&gt;群组&lt;/span&gt;类型：1-固定；2-临时群" style="text;strokeColor=none;fillColor=none;align=left;verticalAlign=top;spacingLeft=4;spacingRight=4;overflow=hidden;rotatable=0;points=[[0,0.5],[1,0.5]];portConstraint=eastwest;whiteSpace=wrap;html=1;" parent="cNy02wjT9gQk6fJg44tr-1" vertex="1">
          <mxGeometry y="130" width="500" height="26" as="geometry" />
        </mxCell>
        <mxCell id="cNy02wjT9gQk6fJg44tr-7" value="userCnt&lt;span style=&quot;white-space: pre;&quot;&gt;&#x9;&lt;/span&gt;&lt;span style=&quot;white-space: pre;&quot;&gt;&#x9;&lt;/span&gt;成员人数" style="text;strokeColor=none;fillColor=none;align=left;verticalAlign=top;spacingLeft=4;spacingRight=4;overflow=hidden;rotatable=0;points=[[0,0.5],[1,0.5]];portConstraint=eastwest;whiteSpace=wrap;html=1;" parent="cNy02wjT9gQk6fJg44tr-1" vertex="1">
          <mxGeometry y="156" width="500" height="26" as="geometry" />
        </mxCell>
        <mxCell id="cNy02wjT9gQk6fJg44tr-8" value="status&lt;span style=&quot;white-space: pre;&quot;&gt;&#x9;&lt;/span&gt;&lt;span style=&quot;white-space: pre;&quot;&gt;&#x9;&lt;/span&gt;是否删除，0-正常，1-删除&lt;span style=&quot;color: rgba(0, 0, 0, 0); font-family: monospace; font-size: 0px; text-wrap: nowrap;&quot;&gt;%3CmxGraphModel%3E%3Croot%3E%3CmxCell%20id%3D%220%22%2F%3E%3CmxCell%20id%3D%221%22%20parent%3D%220%22%2F%3E%3CmxCell%20id%3D%222%22%20value%3D%22%26lt%3Bb%26gt%3B%26lt%3Bfont%20style%3D%26quot%3Bfont-size%3A%2024px%3B%26quot%3B%26gt%3BIMRecentSession%26lt%3B%2Ffont%26gt%3B%26lt%3B%2Fb%26gt%3B%22%20style%3D%22swimlane%3BfontStyle%3D0%3BchildLayout%3DstackLayout%3Bhorizontal%3D1%3BstartSize%3D26%3BfillColor%3Dnone%3BhorizontalStack%3D0%3BresizeParent%3D1%3BresizeParentMax%3D0%3BresizeLast%3D0%3Bcollapsible%3D1%3BmarginBottom%3D0%3BwhiteSpace%3Dwrap%3Bhtml%3D1%3B%22%20vertex%3D%221%22%20parent%3D%221%22%3E%3CmxGeometry%20x%3D%22800%22%20y%3D%22206%22%20width%3D%22500%22%20height%3D%22208%22%20as%3D%22geometry%22%2F%3E%3C%2FmxCell%3E%3CmxCell%20id%3D%223%22%20value%3D%22id%26lt%3Bspan%20style%3D%26quot%3Bwhite-space%3A%20pre%3B%26quot%3B%26gt%3B%26%239%3B%26lt%3B%2Fspan%26gt%3B%26lt%3Bspan%20style%3D%26quot%3Bwhite-space%3A%20pre%3B%26quot%3B%26gt%3B%26%239%3B%26lt%3B%2Fspan%26gt%3B%26lt%3Bspan%20style%3D%26quot%3Bwhite-space%3A%20pre%3B%26quot%3B%26gt%3B%26%239%3B%26lt%3B%2Fspan%26gt%3B%E4%BC%9A%E8%AF%9Did%EF%BC%8C%E6%A0%87%E8%AF%86%E7%AC%A6%22%20style%3D%22text%3BstrokeColor%3Dnone%3BfillColor%3Dnone%3Balign%3Dleft%3BverticalAlign%3Dtop%3BspacingLeft%3D4%3BspacingRight%3D4%3Boverflow%3Dhidden%3Brotatable%3D0%3Bpoints%3D%5B%5B0%2C0.5%5D%2C%5B1%2C0.5%5D%5D%3BportConstraint%3Deastwest%3BwhiteSpace%3Dwrap%3Bhtml%3D1%3B%22%20vertex%3D%221%22%20parent%3D%222%22%3E%3CmxGeometry%20y%3D%2226%22%20width%3D%22500%22%20height%3D%2226%22%20as%3D%22geometry%22%2F%3E%3C%2FmxCell%3E%3CmxCell%20id%3D%224%22%20value%3D%22userId%26lt%3Bspan%20style%3D%26quot%3Bwhite-space%3A%20pre%3B%26quot%3B%26gt%3B%26%239%3B%26lt%3B%2Fspan%26gt%3B%26lt%3Bspan%20style%3D%26quot%3Bwhite-space%3A%20pre%3B%26quot%3B%26gt%3B%26%239%3B%26lt%3B%2Fspan%26gt%3B%E7%94%A8%E6%88%B7id%22%20style%3D%22text%3BstrokeColor%3Dnone%3BfillColor%3Dnone%3Balign%3Dleft%3BverticalAlign%3Dtop%3BspacingLeft%3D4%3BspacingRight%3D4%3Boverflow%3Dhidden%3Brotatable%3D0%3Bpoints%3D%5B%5B0%2C0.5%5D%2C%5B1%2C0.5%5D%5D%3BportConstraint%3Deastwest%3BwhiteSpace%3Dwrap%3Bhtml%3D1%3B%22%20vertex%3D%221%22%20parent%3D%222%22%3E%3CmxGeometry%20y%3D%2252%22%20width%3D%22500%22%20height%3D%2226%22%20as%3D%22geometry%22%2F%3E%3C%2FmxCell%3E%3CmxCell%20id%3D%225%22%20value%3D%22peerId%26lt%3Bspan%20style%3D%26quot%3Bwhite-space%3A%20pre%3B%26quot%3B%26gt%3B%26%239%3B%26lt%3B%2Fspan%26gt%3B%26lt%3Bspan%20style%3D%26quot%3Bwhite-space%3A%20pre%3B%26quot%3B%26gt%3B%26%239%3B%26lt%3B%2Fspan%26gt%3B%E5%AF%B9%E6%96%B9id%22%20style%3D%22text%3BstrokeColor%3Dnone%3BfillColor%3Dnone%3Balign%3Dleft%3BverticalAlign%3Dtop%3BspacingLeft%3D4%3BspacingRight%3D4%3Boverflow%3Dhidden%3Brotatable%3D0%3Bpoints%3D%5B%5B0%2C0.5%5D%2C%5B1%2C0.5%5D%5D%3BportConstraint%3Deastwest%3BwhiteSpace%3Dwrap%3Bhtml%3D1%3B%22%20vertex%3D%221%22%20parent%3D%222%22%3E%3CmxGeometry%20y%3D%2278%22%20width%3D%22500%22%20height%3D%2226%22%20as%3D%22geometry%22%2F%3E%3C%2FmxCell%3E%3CmxCell%20id%3D%226%22%20value%3D%22type%26lt%3Bspan%20style%3D%26quot%3Bwhite-space%3A%20pre%3B%26quot%3B%26gt%3B%26%239%3B%26lt%3B%2Fspan%26gt%3B%26lt%3Bspan%20style%3D%26quot%3Bwhite-space%3A%20pre%3B%26quot%3B%26gt%3B%26%239%3B%26lt%3B%2Fspan%26gt%3B%26lt%3Bspan%20style%3D%26quot%3Bwhite-space%3A%20pre%3B%26quot%3B%26gt%3B%26%239%3B%26lt%3B%2Fspan%26gt%3B%E7%B1%BB%E5%9E%8B%EF%BC%9A0-%E9%BB%98%E8%AE%A4%EF%BC%9B1-%E7%94%A8%E6%88%B7%EF%BC%9B2-%E7%BE%A4%E7%BB%84%22%20style%3D%22text%3BstrokeColor%3Dnone%3BfillColor%3Dnone%3Balign%3Dleft%3BverticalAlign%3Dtop%3BspacingLeft%3D4%3BspacingRight%3D4%3Boverflow%3Dhidden%3Brotatable%3D0%3Bpoints%3D%5B%5B0%2C0.5%5D%2C%5B1%2C0.5%5D%5D%3BportConstraint%3Deastwest%3BwhiteSpace%3Dwrap%3Bhtml%3D1%3B%22%20vertex%3D%221%22%20parent%3D%222%22%3E%3CmxGeometry%20y%3D%22104%22%20width%3D%22500%22%20height%3D%2226%22%20as%3D%22geometry%22%2F%3E%3C%2FmxCell%3E%3CmxCell%20id%3D%227%22%20value%3D%22status%26lt%3Bspan%20style%3D%26quot%3Bwhite-space%3A%20pre%3B%26quot%3B%26gt%3B%26%239%3B%26lt%3B%2Fspan%26gt%3B%26lt%3Bspan%20style%3D%26quot%3Bwhite-space%3A%20pre%3B%26quot%3B%26gt%3B%26%239%3B%26lt%3B%2Fspan%26gt%3B%E7%8A%B6%E6%80%81%EF%BC%9A%E7%94%A8%E6%88%B7%EF%BC%9A0-%E6%AD%A3%E5%B8%B8%EF%BC%9B1-%E7%94%A8%E6%88%B7A%E5%88%A0%E9%99%A4%EF%BC%9B%E7%BE%A4%E7%BB%84%EF%BC%9A0-%E6%AD%A3%E5%B8%B8%EF%BC%9B1-%E8%A2%AB%E5%88%A0%E9%99%A4%22%20style%3D%22text%3BstrokeColor%3Dnone%3BfillColor%3Dnone%3Balign%3Dleft%3BverticalAlign%3Dtop%3BspacingLeft%3D4%3BspacingRight%3D4%3Boverflow%3Dhidden%3Brotatable%3D0%3Bpoints%3D%5B%5B0%2C0.5%5D%2C%5B1%2C0.5%5D%5D%3BportConstraint%3Deastwest%3BwhiteSpace%3Dwrap%3Bhtml%3D1%3B%22%20vertex%3D%221%22%20parent%3D%222%22%3E%3CmxGeometry%20y%3D%22130%22%20width%3D%22500%22%20height%3D%2226%22%20as%3D%22geometry%22%2F%3E%3C%2FmxCell%3E%3CmxCell%20id%3D%228%22%20value%3D%22created%26lt%3Bspan%20style%3D%26quot%3Bwhite-space%3A%20pre%3B%26quot%3B%26gt%3B%26%239%3B%26lt%3B%2Fspan%26gt%3B%26lt%3Bspan%20style%3D%26quot%3Bwhite-space%3A%20pre%3B%26quot%3B%26gt%3B%26%239%3B%26lt%3B%2Fspan%26gt%3B%E5%88%9B%E5%BB%BA%E6%97%B6%E9%97%B4%22%20style%3D%22text%3BstrokeColor%3Dnone%3BfillColor%3Dnone%3Balign%3Dleft%3BverticalAlign%3Dtop%3BspacingLeft%3D4%3BspacingRight%3D4%3Boverflow%3Dhidden%3Brotatable%3D0%3Bpoints%3D%5B%5B0%2C0.5%5D%2C%5B1%2C0.5%5D%5D%3BportConstraint%3Deastwest%3BwhiteSpace%3Dwrap%3Bhtml%3D1%3B%22%20vertex%3D%221%22%20parent%3D%222%22%3E%3CmxGeometry%20y%3D%22156%22%20width%3D%22500%22%20height%3D%2226%22%20as%3D%22geometry%22%2F%3E%3C%2FmxCell%3E%3CmxCell%20id%3D%229%22%20value%3D%22updated%26lt%3Bspan%20style%3D%26quot%3Bwhite-space%3A%20pre%3B%26quot%3B%26gt%3B%26%239%3B%26lt%3B%2Fspan%26gt%3B%26lt%3Bspan%20style%3D%26quot%3Bwhite-space%3A%20pre%3B%26quot%3B%26gt%3B%26%239%3B%26lt%3B%2Fspan%26gt%3B%E6%9B%B4%E6%96%B0%E6%97%B6%E9%97%B4%22%20style%3D%22text%3BstrokeColor%3Dnone%3BfillColor%3Dnone%3Balign%3Dleft%3BverticalAlign%3Dtop%3BspacingLeft%3D4%3BspacingRight%3D4%3Boverflow%3Dhidden%3Brotatable%3D0%3Bpoints%3D%5B%5B0%2C0.5%5D%2C%5B1%2C0.5%5D%5D%3BportConstraint%3Deastwest%3BwhiteSpace%3Dwrap%3Bhtml%3D1%3B%22%20vertex%3D%221%22%20parent%3D%222%22%3E%3CmxGeometry%20y%3D%22182%22%20width%3D%22500%22%20height%3D%2226%22%20as%3D%22geometry%22%2F%3E%3C%2FmxCell%3E%3C%2Froot%3E%3C%2FmxGraphModel%3E&lt;/span&gt;" style="text;strokeColor=none;fillColor=none;align=left;verticalAlign=top;spacingLeft=4;spacingRight=4;overflow=hidden;rotatable=0;points=[[0,0.5],[1,0.5]];portConstraint=eastwest;whiteSpace=wrap;html=1;" parent="cNy02wjT9gQk6fJg44tr-1" vertex="1">
          <mxGeometry y="182" width="500" height="26" as="geometry" />
        </mxCell>
        <mxCell id="cNy02wjT9gQk6fJg44tr-9" value="version&lt;span style=&quot;white-space: pre;&quot;&gt;&#x9;&lt;/span&gt;&lt;span style=&quot;white-space: pre;&quot;&gt;&#x9;&lt;/span&gt;群版本号&lt;span style=&quot;color: rgba(0, 0, 0, 0); font-family: monospace; font-size: 0px; text-wrap: nowrap;&quot;&gt;%3CmxGraphModel%3E%3Croot%3E%3CmxCell%20id%3D%220%22%2F%3E%3CmxCell%20id%3D%221%22%20parent%3D%220%22%2F%3E%3CmxCell%20id%3D%222%22%20value%3D%22%26lt%3Bb%26gt%3B%26lt%3Bfont%20style%3D%26quot%3Bfont-size%3A%2024px%3B%26quot%3B%26gt%3BIMRecentSession%26lt%3B%2Ffont%26gt%3B%26lt%3B%2Fb%26gt%3B%22%20style%3D%22swimlane%3BfontStyle%3D0%3BchildLayout%3DstackLayout%3Bhorizontal%3D1%3BstartSize%3D26%3BfillColor%3Dnone%3BhorizontalStack%3D0%3BresizeParent%3D1%3BresizeParentMax%3D0%3BresizeLast%3D0%3Bcollapsible%3D1%3BmarginBottom%3D0%3BwhiteSpace%3Dwrap%3Bhtml%3D1%3B%22%20vertex%3D%221%22%20parent%3D%221%22%3E%3CmxGeometry%20x%3D%22800%22%20y%3D%22206%22%20width%3D%22500%22%20height%3D%22208%22%20as%3D%22geometry%22%2F%3E%3C%2FmxCell%3E%3CmxCell%20id%3D%223%22%20value%3D%22id%26lt%3Bspan%20style%3D%26quot%3Bwhite-space%3A%20pre%3B%26quot%3B%26gt%3B%26%239%3B%26lt%3B%2Fspan%26gt%3B%26lt%3Bspan%20style%3D%26quot%3Bwhite-space%3A%20pre%3B%26quot%3B%26gt%3B%26%239%3B%26lt%3B%2Fspan%26gt%3B%26lt%3Bspan%20style%3D%26quot%3Bwhite-space%3A%20pre%3B%26quot%3B%26gt%3B%26%239%3B%26lt%3B%2Fspan%26gt%3B%E4%BC%9A%E8%AF%9Did%EF%BC%8C%E6%A0%87%E8%AF%86%E7%AC%A6%22%20style%3D%22text%3BstrokeColor%3Dnone%3BfillColor%3Dnone%3Balign%3Dleft%3BverticalAlign%3Dtop%3BspacingLeft%3D4%3BspacingRight%3D4%3Boverflow%3Dhidden%3Brotatable%3D0%3Bpoints%3D%5B%5B0%2C0.5%5D%2C%5B1%2C0.5%5D%5D%3BportConstraint%3Deastwest%3BwhiteSpace%3Dwrap%3Bhtml%3D1%3B%22%20vertex%3D%221%22%20parent%3D%222%22%3E%3CmxGeometry%20y%3D%2226%22%20width%3D%22500%22%20height%3D%2226%22%20as%3D%22geometry%22%2F%3E%3C%2FmxCell%3E%3CmxCell%20id%3D%224%22%20value%3D%22userId%26lt%3Bspan%20style%3D%26quot%3Bwhite-space%3A%20pre%3B%26quot%3B%26gt%3B%26%239%3B%26lt%3B%2Fspan%26gt%3B%26lt%3Bspan%20style%3D%26quot%3Bwhite-space%3A%20pre%3B%26quot%3B%26gt%3B%26%239%3B%26lt%3B%2Fspan%26gt%3B%E7%94%A8%E6%88%B7id%22%20style%3D%22text%3BstrokeColor%3Dnone%3BfillColor%3Dnone%3Balign%3Dleft%3BverticalAlign%3Dtop%3BspacingLeft%3D4%3BspacingRight%3D4%3Boverflow%3Dhidden%3Brotatable%3D0%3Bpoints%3D%5B%5B0%2C0.5%5D%2C%5B1%2C0.5%5D%5D%3BportConstraint%3Deastwest%3BwhiteSpace%3Dwrap%3Bhtml%3D1%3B%22%20vertex%3D%221%22%20parent%3D%222%22%3E%3CmxGeometry%20y%3D%2252%22%20width%3D%22500%22%20height%3D%2226%22%20as%3D%22geometry%22%2F%3E%3C%2FmxCell%3E%3CmxCell%20id%3D%225%22%20value%3D%22peerId%26lt%3Bspan%20style%3D%26quot%3Bwhite-space%3A%20pre%3B%26quot%3B%26gt%3B%26%239%3B%26lt%3B%2Fspan%26gt%3B%26lt%3Bspan%20style%3D%26quot%3Bwhite-space%3A%20pre%3B%26quot%3B%26gt%3B%26%239%3B%26lt%3B%2Fspan%26gt%3B%E5%AF%B9%E6%96%B9id%22%20style%3D%22text%3BstrokeColor%3Dnone%3BfillColor%3Dnone%3Balign%3Dleft%3BverticalAlign%3Dtop%3BspacingLeft%3D4%3BspacingRight%3D4%3Boverflow%3Dhidden%3Brotatable%3D0%3Bpoints%3D%5B%5B0%2C0.5%5D%2C%5B1%2C0.5%5D%5D%3BportConstraint%3Deastwest%3BwhiteSpace%3Dwrap%3Bhtml%3D1%3B%22%20vertex%3D%221%22%20parent%3D%222%22%3E%3CmxGeometry%20y%3D%2278%22%20width%3D%22500%22%20height%3D%2226%22%20as%3D%22geometry%22%2F%3E%3C%2FmxCell%3E%3CmxCell%20id%3D%226%22%20value%3D%22type%26lt%3Bspan%20style%3D%26quot%3Bwhite-space%3A%20pre%3B%26quot%3B%26gt%3B%26%239%3B%26lt%3B%2Fspan%26gt%3B%26lt%3Bspan%20style%3D%26quot%3Bwhite-space%3A%20pre%3B%26quot%3B%26gt%3B%26%239%3B%26lt%3B%2Fspan%26gt%3B%26lt%3Bspan%20style%3D%26quot%3Bwhite-space%3A%20pre%3B%26quot%3B%26gt%3B%26%239%3B%26lt%3B%2Fspan%26gt%3B%E7%B1%BB%E5%9E%8B%EF%BC%9A0-%E9%BB%98%E8%AE%A4%EF%BC%9B1-%E7%94%A8%E6%88%B7%EF%BC%9B2-%E7%BE%A4%E7%BB%84%22%20style%3D%22text%3BstrokeColor%3Dnone%3BfillColor%3Dnone%3Balign%3Dleft%3BverticalAlign%3Dtop%3BspacingLeft%3D4%3BspacingRight%3D4%3Boverflow%3Dhidden%3Brotatable%3D0%3Bpoints%3D%5B%5B0%2C0.5%5D%2C%5B1%2C0.5%5D%5D%3BportConstraint%3Deastwest%3BwhiteSpace%3Dwrap%3Bhtml%3D1%3B%22%20vertex%3D%221%22%20parent%3D%222%22%3E%3CmxGeometry%20y%3D%22104%22%20width%3D%22500%22%20height%3D%2226%22%20as%3D%22geometry%22%2F%3E%3C%2FmxCell%3E%3CmxCell%20id%3D%227%22%20value%3D%22status%26lt%3Bspan%20style%3D%26quot%3Bwhite-space%3A%20pre%3B%26quot%3B%26gt%3B%26%239%3B%26lt%3B%2Fspan%26gt%3B%26lt%3Bspan%20style%3D%26quot%3Bwhite-space%3A%20pre%3B%26quot%3B%26gt%3B%26%239%3B%26lt%3B%2Fspan%26gt%3B%E7%8A%B6%E6%80%81%EF%BC%9A%E7%94%A8%E6%88%B7%EF%BC%9A0-%E6%AD%A3%E5%B8%B8%EF%BC%9B1-%E7%94%A8%E6%88%B7A%E5%88%A0%E9%99%A4%EF%BC%9B%E7%BE%A4%E7%BB%84%EF%BC%9A0-%E6%AD%A3%E5%B8%B8%EF%BC%9B1-%E8%A2%AB%E5%88%A0%E9%99%A4%22%20style%3D%22text%3BstrokeColor%3Dnone%3BfillColor%3Dnone%3Balign%3Dleft%3BverticalAlign%3Dtop%3BspacingLeft%3D4%3BspacingRight%3D4%3Boverflow%3Dhidden%3Brotatable%3D0%3Bpoints%3D%5B%5B0%2C0.5%5D%2C%5B1%2C0.5%5D%5D%3BportConstraint%3Deastwest%3BwhiteSpace%3Dwrap%3Bhtml%3D1%3B%22%20vertex%3D%221%22%20parent%3D%222%22%3E%3CmxGeometry%20y%3D%22130%22%20width%3D%22500%22%20height%3D%2226%22%20as%3D%22geometry%22%2F%3E%3C%2FmxCell%3E%3CmxCell%20id%3D%228%22%20value%3D%22created%26lt%3Bspan%20style%3D%26quot%3Bwhite-space%3A%20pre%3B%26quot%3B%26gt%3B%26%239%3B%26lt%3B%2Fspan%26gt%3B%26lt%3Bspan%20style%3D%26quot%3Bwhite-space%3A%20pre%3B%26quot%3B%26gt%3B%26%239%3B%26lt%3B%2Fspan%26gt%3B%E5%88%9B%E5%BB%BA%E6%97%B6%E9%97%B4%22%20style%3D%22text%3BstrokeColor%3Dnone%3BfillColor%3Dnone%3Balign%3Dleft%3BverticalAlign%3Dtop%3BspacingLeft%3D4%3BspacingRight%3D4%3Boverflow%3Dhidden%3Brotatable%3D0%3Bpoints%3D%5B%5B0%2C0.5%5D%2C%5B1%2C0.5%5D%5D%3BportConstraint%3Deastwest%3BwhiteSpace%3Dwrap%3Bhtml%3D1%3B%22%20vertex%3D%221%22%20parent%3D%222%22%3E%3CmxGeometry%20y%3D%22156%22%20width%3D%22500%22%20height%3D%2226%22%20as%3D%22geometry%22%2F%3E%3C%2FmxCell%3E%3CmxCell%20id%3D%229%22%20value%3D%22updated%26lt%3Bspan%20style%3D%26quot%3Bwhite-space%3A%20pre%3B%26quot%3B%26gt%3B%26%239%3B%26lt%3B%2Fspan%26gt%3B%26lt%3Bspan%20style%3D%26quot%3Bwhite-space%3A%20pre%3B%26quot%3B%26gt%3B%26%239%3B%26lt%3B%2Fspan%26gt%3B%E6%9B%B4%E6%96%B0%E6%97%B6%E9%97%B4%22%20style%3D%22text%3BstrokeColor%3Dnone%3BfillColor%3Dnone%3Balign%3Dleft%3BverticalAlign%3Dtop%3BspacingLeft%3D4%3BspacingRight%3D4%3Boverflow%3Dhidden%3Brotatable%3D0%3Bpoints%3D%5B%5B0%2C0.5%5D%2C%5B1%2C0.5%5D%5D%3BportConstraint%3Deastwest%3BwhiteSpace%3Dwrap%3Bhtml%3D1%3B%22%20vertex%3D%221%22%20parent%3D%222%22%3E%3CmxGeometry%20y%3D%22182%22%20width%3D%22500%22%20height%3D%2226%22%20as%3D%22geometry%22%2F%3E%3C%2FmxCell%3E%3C%2Froot%3E%3C%2FmxGraphModel%3E&lt;/span&gt;" style="text;strokeColor=none;fillColor=none;align=left;verticalAlign=top;spacingLeft=4;spacingRight=4;overflow=hidden;rotatable=0;points=[[0,0.5],[1,0.5]];portConstraint=eastwest;whiteSpace=wrap;html=1;" parent="cNy02wjT9gQk6fJg44tr-1" vertex="1">
          <mxGeometry y="208" width="500" height="26" as="geometry" />
        </mxCell>
        <mxCell id="cNy02wjT9gQk6fJg44tr-10" value="lastChated&lt;span style=&quot;white-space: pre;&quot;&gt;&#x9;&lt;/span&gt;最后聊天时间&lt;span style=&quot;color: rgba(0, 0, 0, 0); font-family: monospace; font-size: 0px; text-wrap: nowrap;&quot;&gt;%3CmxGraphModel%3E%3Croot%3E%3CmxCell%20id%3D%220%22%2F%3E%3CmxCell%20id%3D%221%22%20parent%3D%220%22%2F%3E%3CmxCell%20id%3D%222%22%20value%3D%22%26lt%3Bb%26gt%3B%26lt%3Bfont%20style%3D%26quot%3Bfont-size%3A%2024px%3B%26quot%3B%26gt%3BIMRecentSession%26lt%3B%2Ffont%26gt%3B%26lt%3B%2Fb%26gt%3B%22%20style%3D%22swimlane%3BfontStyle%3D0%3BchildLayout%3DstackLayout%3Bhorizontal%3D1%3BstartSize%3D26%3BfillColor%3Dnone%3BhorizontalStack%3D0%3BresizeParent%3D1%3BresizeParentMax%3D0%3BresizeLast%3D0%3Bcollapsible%3D1%3BmarginBottom%3D0%3BwhiteSpace%3Dwrap%3Bhtml%3D1%3B%22%20vertex%3D%221%22%20parent%3D%221%22%3E%3CmxGeometry%20x%3D%22800%22%20y%3D%22206%22%20width%3D%22500%22%20height%3D%22208%22%20as%3D%22geometry%22%2F%3E%3C%2FmxCell%3E%3CmxCell%20id%3D%223%22%20value%3D%22id%26lt%3Bspan%20style%3D%26quot%3Bwhite-space%3A%20pre%3B%26quot%3B%26gt%3B%26%239%3B%26lt%3B%2Fspan%26gt%3B%26lt%3Bspan%20style%3D%26quot%3Bwhite-space%3A%20pre%3B%26quot%3B%26gt%3B%26%239%3B%26lt%3B%2Fspan%26gt%3B%26lt%3Bspan%20style%3D%26quot%3Bwhite-space%3A%20pre%3B%26quot%3B%26gt%3B%26%239%3B%26lt%3B%2Fspan%26gt%3B%E4%BC%9A%E8%AF%9Did%EF%BC%8C%E6%A0%87%E8%AF%86%E7%AC%A6%22%20style%3D%22text%3BstrokeColor%3Dnone%3BfillColor%3Dnone%3Balign%3Dleft%3BverticalAlign%3Dtop%3BspacingLeft%3D4%3BspacingRight%3D4%3Boverflow%3Dhidden%3Brotatable%3D0%3Bpoints%3D%5B%5B0%2C0.5%5D%2C%5B1%2C0.5%5D%5D%3BportConstraint%3Deastwest%3BwhiteSpace%3Dwrap%3Bhtml%3D1%3B%22%20vertex%3D%221%22%20parent%3D%222%22%3E%3CmxGeometry%20y%3D%2226%22%20width%3D%22500%22%20height%3D%2226%22%20as%3D%22geometry%22%2F%3E%3C%2FmxCell%3E%3CmxCell%20id%3D%224%22%20value%3D%22userId%26lt%3Bspan%20style%3D%26quot%3Bwhite-space%3A%20pre%3B%26quot%3B%26gt%3B%26%239%3B%26lt%3B%2Fspan%26gt%3B%26lt%3Bspan%20style%3D%26quot%3Bwhite-space%3A%20pre%3B%26quot%3B%26gt%3B%26%239%3B%26lt%3B%2Fspan%26gt%3B%E7%94%A8%E6%88%B7id%22%20style%3D%22text%3BstrokeColor%3Dnone%3BfillColor%3Dnone%3Balign%3Dleft%3BverticalAlign%3Dtop%3BspacingLeft%3D4%3BspacingRight%3D4%3Boverflow%3Dhidden%3Brotatable%3D0%3Bpoints%3D%5B%5B0%2C0.5%5D%2C%5B1%2C0.5%5D%5D%3BportConstraint%3Deastwest%3BwhiteSpace%3Dwrap%3Bhtml%3D1%3B%22%20vertex%3D%221%22%20parent%3D%222%22%3E%3CmxGeometry%20y%3D%2252%22%20width%3D%22500%22%20height%3D%2226%22%20as%3D%22geometry%22%2F%3E%3C%2FmxCell%3E%3CmxCell%20id%3D%225%22%20value%3D%22peerId%26lt%3Bspan%20style%3D%26quot%3Bwhite-space%3A%20pre%3B%26quot%3B%26gt%3B%26%239%3B%26lt%3B%2Fspan%26gt%3B%26lt%3Bspan%20style%3D%26quot%3Bwhite-space%3A%20pre%3B%26quot%3B%26gt%3B%26%239%3B%26lt%3B%2Fspan%26gt%3B%E5%AF%B9%E6%96%B9id%22%20style%3D%22text%3BstrokeColor%3Dnone%3BfillColor%3Dnone%3Balign%3Dleft%3BverticalAlign%3Dtop%3BspacingLeft%3D4%3BspacingRight%3D4%3Boverflow%3Dhidden%3Brotatable%3D0%3Bpoints%3D%5B%5B0%2C0.5%5D%2C%5B1%2C0.5%5D%5D%3BportConstraint%3Deastwest%3BwhiteSpace%3Dwrap%3Bhtml%3D1%3B%22%20vertex%3D%221%22%20parent%3D%222%22%3E%3CmxGeometry%20y%3D%2278%22%20width%3D%22500%22%20height%3D%2226%22%20as%3D%22geometry%22%2F%3E%3C%2FmxCell%3E%3CmxCell%20id%3D%226%22%20value%3D%22type%26lt%3Bspan%20style%3D%26quot%3Bwhite-space%3A%20pre%3B%26quot%3B%26gt%3B%26%239%3B%26lt%3B%2Fspan%26gt%3B%26lt%3Bspan%20style%3D%26quot%3Bwhite-space%3A%20pre%3B%26quot%3B%26gt%3B%26%239%3B%26lt%3B%2Fspan%26gt%3B%26lt%3Bspan%20style%3D%26quot%3Bwhite-space%3A%20pre%3B%26quot%3B%26gt%3B%26%239%3B%26lt%3B%2Fspan%26gt%3B%E7%B1%BB%E5%9E%8B%EF%BC%9A0-%E9%BB%98%E8%AE%A4%EF%BC%9B1-%E7%94%A8%E6%88%B7%EF%BC%9B2-%E7%BE%A4%E7%BB%84%22%20style%3D%22text%3BstrokeColor%3Dnone%3BfillColor%3Dnone%3Balign%3Dleft%3BverticalAlign%3Dtop%3BspacingLeft%3D4%3BspacingRight%3D4%3Boverflow%3Dhidden%3Brotatable%3D0%3Bpoints%3D%5B%5B0%2C0.5%5D%2C%5B1%2C0.5%5D%5D%3BportConstraint%3Deastwest%3BwhiteSpace%3Dwrap%3Bhtml%3D1%3B%22%20vertex%3D%221%22%20parent%3D%222%22%3E%3CmxGeometry%20y%3D%22104%22%20width%3D%22500%22%20height%3D%2226%22%20as%3D%22geometry%22%2F%3E%3C%2FmxCell%3E%3CmxCell%20id%3D%227%22%20value%3D%22status%26lt%3Bspan%20style%3D%26quot%3Bwhite-space%3A%20pre%3B%26quot%3B%26gt%3B%26%239%3B%26lt%3B%2Fspan%26gt%3B%26lt%3Bspan%20style%3D%26quot%3Bwhite-space%3A%20pre%3B%26quot%3B%26gt%3B%26%239%3B%26lt%3B%2Fspan%26gt%3B%E7%8A%B6%E6%80%81%EF%BC%9A%E7%94%A8%E6%88%B7%EF%BC%9A0-%E6%AD%A3%E5%B8%B8%EF%BC%9B1-%E7%94%A8%E6%88%B7A%E5%88%A0%E9%99%A4%EF%BC%9B%E7%BE%A4%E7%BB%84%EF%BC%9A0-%E6%AD%A3%E5%B8%B8%EF%BC%9B1-%E8%A2%AB%E5%88%A0%E9%99%A4%22%20style%3D%22text%3BstrokeColor%3Dnone%3BfillColor%3Dnone%3Balign%3Dleft%3BverticalAlign%3Dtop%3BspacingLeft%3D4%3BspacingRight%3D4%3Boverflow%3Dhidden%3Brotatable%3D0%3Bpoints%3D%5B%5B0%2C0.5%5D%2C%5B1%2C0.5%5D%5D%3BportConstraint%3Deastwest%3BwhiteSpace%3Dwrap%3Bhtml%3D1%3B%22%20vertex%3D%221%22%20parent%3D%222%22%3E%3CmxGeometry%20y%3D%22130%22%20width%3D%22500%22%20height%3D%2226%22%20as%3D%22geometry%22%2F%3E%3C%2FmxCell%3E%3CmxCell%20id%3D%228%22%20value%3D%22created%26lt%3Bspan%20style%3D%26quot%3Bwhite-space%3A%20pre%3B%26quot%3B%26gt%3B%26%239%3B%26lt%3B%2Fspan%26gt%3B%26lt%3Bspan%20style%3D%26quot%3Bwhite-space%3A%20pre%3B%26quot%3B%26gt%3B%26%239%3B%26lt%3B%2Fspan%26gt%3B%E5%88%9B%E5%BB%BA%E6%97%B6%E9%97%B4%22%20style%3D%22text%3BstrokeColor%3Dnone%3BfillColor%3Dnone%3Balign%3Dleft%3BverticalAlign%3Dtop%3BspacingLeft%3D4%3BspacingRight%3D4%3Boverflow%3Dhidden%3Brotatable%3D0%3Bpoints%3D%5B%5B0%2C0.5%5D%2C%5B1%2C0.5%5D%5D%3BportConstraint%3Deastwest%3BwhiteSpace%3Dwrap%3Bhtml%3D1%3B%22%20vertex%3D%221%22%20parent%3D%222%22%3E%3CmxGeometry%20y%3D%22156%22%20width%3D%22500%22%20height%3D%2226%22%20as%3D%22geometry%22%2F%3E%3C%2FmxCell%3E%3CmxCell%20id%3D%229%22%20value%3D%22updated%26lt%3Bspan%20style%3D%26quot%3Bwhite-space%3A%20pre%3B%26quot%3B%26gt%3B%26%239%3B%26lt%3B%2Fspan%26gt%3B%26lt%3Bspan%20style%3D%26quot%3Bwhite-space%3A%20pre%3B%26quot%3B%26gt%3B%26%239%3B%26lt%3B%2Fspan%26gt%3B%E6%9B%B4%E6%96%B0%E6%97%B6%E9%97%B4%22%20style%3D%22text%3BstrokeColor%3Dnone%3BfillColor%3Dnone%3Balign%3Dleft%3BverticalAlign%3Dtop%3BspacingLeft%3D4%3BspacingRight%3D4%3Boverflow%3Dhidden%3Brotatable%3D0%3Bpoints%3D%5B%5B0%2C0.5%5D%2C%5B1%2C0.5%5D%5D%3BportConstraint%3Deastwest%3BwhiteSpace%3Dwrap%3Bhtml%3D1%3B%22%20vertex%3D%221%22%20parent%3D%222%22%3E%3CmxGeometry%20y%3D%22182%22%20width%3D%22500%22%20height%3D%2226%22%20as%3D%22geometry%22%2F%3E%3C%2FmxCell%3E%3C%2Froot%3E%3C%2FmxGraphModel%3E&lt;/span&gt;" style="text;strokeColor=none;fillColor=none;align=left;verticalAlign=top;spacingLeft=4;spacingRight=4;overflow=hidden;rotatable=0;points=[[0,0.5],[1,0.5]];portConstraint=eastwest;whiteSpace=wrap;html=1;" parent="cNy02wjT9gQk6fJg44tr-1" vertex="1">
          <mxGeometry y="234" width="500" height="26" as="geometry" />
        </mxCell>
        <mxCell id="cNy02wjT9gQk6fJg44tr-11" value="created&lt;span style=&quot;white-space: pre;&quot;&gt;&#x9;&lt;/span&gt;&lt;span style=&quot;white-space: pre;&quot;&gt;&#x9;&lt;/span&gt;创建时间&lt;span style=&quot;color: rgba(0, 0, 0, 0); font-family: monospace; font-size: 0px; text-wrap: nowrap;&quot;&gt;%3CmxGraphModel%3E%3Croot%3E%3CmxCell%20id%3D%220%22%2F%3E%3CmxCell%20id%3D%221%22%20parent%3D%220%22%2F%3E%3CmxCell%20id%3D%222%22%20value%3D%22%26lt%3Bb%26gt%3B%26lt%3Bfont%20style%3D%26quot%3Bfont-size%3A%2024px%3B%26quot%3B%26gt%3BIMRecentSession%26lt%3B%2Ffont%26gt%3B%26lt%3B%2Fb%26gt%3B%22%20style%3D%22swimlane%3BfontStyle%3D0%3BchildLayout%3DstackLayout%3Bhorizontal%3D1%3BstartSize%3D26%3BfillColor%3Dnone%3BhorizontalStack%3D0%3BresizeParent%3D1%3BresizeParentMax%3D0%3BresizeLast%3D0%3Bcollapsible%3D1%3BmarginBottom%3D0%3BwhiteSpace%3Dwrap%3Bhtml%3D1%3B%22%20vertex%3D%221%22%20parent%3D%221%22%3E%3CmxGeometry%20x%3D%22800%22%20y%3D%22206%22%20width%3D%22500%22%20height%3D%22208%22%20as%3D%22geometry%22%2F%3E%3C%2FmxCell%3E%3CmxCell%20id%3D%223%22%20value%3D%22id%26lt%3Bspan%20style%3D%26quot%3Bwhite-space%3A%20pre%3B%26quot%3B%26gt%3B%26%239%3B%26lt%3B%2Fspan%26gt%3B%26lt%3Bspan%20style%3D%26quot%3Bwhite-space%3A%20pre%3B%26quot%3B%26gt%3B%26%239%3B%26lt%3B%2Fspan%26gt%3B%26lt%3Bspan%20style%3D%26quot%3Bwhite-space%3A%20pre%3B%26quot%3B%26gt%3B%26%239%3B%26lt%3B%2Fspan%26gt%3B%E4%BC%9A%E8%AF%9Did%EF%BC%8C%E6%A0%87%E8%AF%86%E7%AC%A6%22%20style%3D%22text%3BstrokeColor%3Dnone%3BfillColor%3Dnone%3Balign%3Dleft%3BverticalAlign%3Dtop%3BspacingLeft%3D4%3BspacingRight%3D4%3Boverflow%3Dhidden%3Brotatable%3D0%3Bpoints%3D%5B%5B0%2C0.5%5D%2C%5B1%2C0.5%5D%5D%3BportConstraint%3Deastwest%3BwhiteSpace%3Dwrap%3Bhtml%3D1%3B%22%20vertex%3D%221%22%20parent%3D%222%22%3E%3CmxGeometry%20y%3D%2226%22%20width%3D%22500%22%20height%3D%2226%22%20as%3D%22geometry%22%2F%3E%3C%2FmxCell%3E%3CmxCell%20id%3D%224%22%20value%3D%22userId%26lt%3Bspan%20style%3D%26quot%3Bwhite-space%3A%20pre%3B%26quot%3B%26gt%3B%26%239%3B%26lt%3B%2Fspan%26gt%3B%26lt%3Bspan%20style%3D%26quot%3Bwhite-space%3A%20pre%3B%26quot%3B%26gt%3B%26%239%3B%26lt%3B%2Fspan%26gt%3B%E7%94%A8%E6%88%B7id%22%20style%3D%22text%3BstrokeColor%3Dnone%3BfillColor%3Dnone%3Balign%3Dleft%3BverticalAlign%3Dtop%3BspacingLeft%3D4%3BspacingRight%3D4%3Boverflow%3Dhidden%3Brotatable%3D0%3Bpoints%3D%5B%5B0%2C0.5%5D%2C%5B1%2C0.5%5D%5D%3BportConstraint%3Deastwest%3BwhiteSpace%3Dwrap%3Bhtml%3D1%3B%22%20vertex%3D%221%22%20parent%3D%222%22%3E%3CmxGeometry%20y%3D%2252%22%20width%3D%22500%22%20height%3D%2226%22%20as%3D%22geometry%22%2F%3E%3C%2FmxCell%3E%3CmxCell%20id%3D%225%22%20value%3D%22peerId%26lt%3Bspan%20style%3D%26quot%3Bwhite-space%3A%20pre%3B%26quot%3B%26gt%3B%26%239%3B%26lt%3B%2Fspan%26gt%3B%26lt%3Bspan%20style%3D%26quot%3Bwhite-space%3A%20pre%3B%26quot%3B%26gt%3B%26%239%3B%26lt%3B%2Fspan%26gt%3B%E5%AF%B9%E6%96%B9id%22%20style%3D%22text%3BstrokeColor%3Dnone%3BfillColor%3Dnone%3Balign%3Dleft%3BverticalAlign%3Dtop%3BspacingLeft%3D4%3BspacingRight%3D4%3Boverflow%3Dhidden%3Brotatable%3D0%3Bpoints%3D%5B%5B0%2C0.5%5D%2C%5B1%2C0.5%5D%5D%3BportConstraint%3Deastwest%3BwhiteSpace%3Dwrap%3Bhtml%3D1%3B%22%20vertex%3D%221%22%20parent%3D%222%22%3E%3CmxGeometry%20y%3D%2278%22%20width%3D%22500%22%20height%3D%2226%22%20as%3D%22geometry%22%2F%3E%3C%2FmxCell%3E%3CmxCell%20id%3D%226%22%20value%3D%22type%26lt%3Bspan%20style%3D%26quot%3Bwhite-space%3A%20pre%3B%26quot%3B%26gt%3B%26%239%3B%26lt%3B%2Fspan%26gt%3B%26lt%3Bspan%20style%3D%26quot%3Bwhite-space%3A%20pre%3B%26quot%3B%26gt%3B%26%239%3B%26lt%3B%2Fspan%26gt%3B%26lt%3Bspan%20style%3D%26quot%3Bwhite-space%3A%20pre%3B%26quot%3B%26gt%3B%26%239%3B%26lt%3B%2Fspan%26gt%3B%E7%B1%BB%E5%9E%8B%EF%BC%9A0-%E9%BB%98%E8%AE%A4%EF%BC%9B1-%E7%94%A8%E6%88%B7%EF%BC%9B2-%E7%BE%A4%E7%BB%84%22%20style%3D%22text%3BstrokeColor%3Dnone%3BfillColor%3Dnone%3Balign%3Dleft%3BverticalAlign%3Dtop%3BspacingLeft%3D4%3BspacingRight%3D4%3Boverflow%3Dhidden%3Brotatable%3D0%3Bpoints%3D%5B%5B0%2C0.5%5D%2C%5B1%2C0.5%5D%5D%3BportConstraint%3Deastwest%3BwhiteSpace%3Dwrap%3Bhtml%3D1%3B%22%20vertex%3D%221%22%20parent%3D%222%22%3E%3CmxGeometry%20y%3D%22104%22%20width%3D%22500%22%20height%3D%2226%22%20as%3D%22geometry%22%2F%3E%3C%2FmxCell%3E%3CmxCell%20id%3D%227%22%20value%3D%22status%26lt%3Bspan%20style%3D%26quot%3Bwhite-space%3A%20pre%3B%26quot%3B%26gt%3B%26%239%3B%26lt%3B%2Fspan%26gt%3B%26lt%3Bspan%20style%3D%26quot%3Bwhite-space%3A%20pre%3B%26quot%3B%26gt%3B%26%239%3B%26lt%3B%2Fspan%26gt%3B%E7%8A%B6%E6%80%81%EF%BC%9A%E7%94%A8%E6%88%B7%EF%BC%9A0-%E6%AD%A3%E5%B8%B8%EF%BC%9B1-%E7%94%A8%E6%88%B7A%E5%88%A0%E9%99%A4%EF%BC%9B%E7%BE%A4%E7%BB%84%EF%BC%9A0-%E6%AD%A3%E5%B8%B8%EF%BC%9B1-%E8%A2%AB%E5%88%A0%E9%99%A4%22%20style%3D%22text%3BstrokeColor%3Dnone%3BfillColor%3Dnone%3Balign%3Dleft%3BverticalAlign%3Dtop%3BspacingLeft%3D4%3BspacingRight%3D4%3Boverflow%3Dhidden%3Brotatable%3D0%3Bpoints%3D%5B%5B0%2C0.5%5D%2C%5B1%2C0.5%5D%5D%3BportConstraint%3Deastwest%3BwhiteSpace%3Dwrap%3Bhtml%3D1%3B%22%20vertex%3D%221%22%20parent%3D%222%22%3E%3CmxGeometry%20y%3D%22130%22%20width%3D%22500%22%20height%3D%2226%22%20as%3D%22geometry%22%2F%3E%3C%2FmxCell%3E%3CmxCell%20id%3D%228%22%20value%3D%22created%26lt%3Bspan%20style%3D%26quot%3Bwhite-space%3A%20pre%3B%26quot%3B%26gt%3B%26%239%3B%26lt%3B%2Fspan%26gt%3B%26lt%3Bspan%20style%3D%26quot%3Bwhite-space%3A%20pre%3B%26quot%3B%26gt%3B%26%239%3B%26lt%3B%2Fspan%26gt%3B%E5%88%9B%E5%BB%BA%E6%97%B6%E9%97%B4%22%20style%3D%22text%3BstrokeColor%3Dnone%3BfillColor%3Dnone%3Balign%3Dleft%3BverticalAlign%3Dtop%3BspacingLeft%3D4%3BspacingRight%3D4%3Boverflow%3Dhidden%3Brotatable%3D0%3Bpoints%3D%5B%5B0%2C0.5%5D%2C%5B1%2C0.5%5D%5D%3BportConstraint%3Deastwest%3BwhiteSpace%3Dwrap%3Bhtml%3D1%3B%22%20vertex%3D%221%22%20parent%3D%222%22%3E%3CmxGeometry%20y%3D%22156%22%20width%3D%22500%22%20height%3D%2226%22%20as%3D%22geometry%22%2F%3E%3C%2FmxCell%3E%3CmxCell%20id%3D%229%22%20value%3D%22updated%26lt%3Bspan%20style%3D%26quot%3Bwhite-space%3A%20pre%3B%26quot%3B%26gt%3B%26%239%3B%26lt%3B%2Fspan%26gt%3B%26lt%3Bspan%20style%3D%26quot%3Bwhite-space%3A%20pre%3B%26quot%3B%26gt%3B%26%239%3B%26lt%3B%2Fspan%26gt%3B%E6%9B%B4%E6%96%B0%E6%97%B6%E9%97%B4%22%20style%3D%22text%3BstrokeColor%3Dnone%3BfillColor%3Dnone%3Balign%3Dleft%3BverticalAlign%3Dtop%3BspacingLeft%3D4%3BspacingRight%3D4%3Boverflow%3Dhidden%3Brotatable%3D0%3Bpoints%3D%5B%5B0%2C0.5%5D%2C%5B1%2C0.5%5D%5D%3BportConstraint%3Deastwest%3BwhiteSpace%3Dwrap%3Bhtml%3D1%3B%22%20vertex%3D%221%22%20parent%3D%222%22%3E%3CmxGeometry%20y%3D%22182%22%20width%3D%22500%22%20height%3D%2226%22%20as%3D%22geometry%22%2F%3E%3C%2FmxCell%3E%3C%2Froot%3E%3C%2FmxGraphModel%3E&lt;/span&gt;" style="text;strokeColor=none;fillColor=none;align=left;verticalAlign=top;spacingLeft=4;spacingRight=4;overflow=hidden;rotatable=0;points=[[0,0.5],[1,0.5]];portConstraint=eastwest;whiteSpace=wrap;html=1;" parent="cNy02wjT9gQk6fJg44tr-1" vertex="1">
          <mxGeometry y="260" width="500" height="26" as="geometry" />
        </mxCell>
        <mxCell id="cNy02wjT9gQk6fJg44tr-12" value="updated&lt;span style=&quot;white-space: pre;&quot;&gt;&#x9;&lt;/span&gt;&lt;span style=&quot;white-space: pre;&quot;&gt;&#x9;&lt;/span&gt;更新时间&lt;span style=&quot;color: rgba(0, 0, 0, 0); font-family: monospace; font-size: 0px; text-wrap: nowrap;&quot;&gt;%3CmxGraphModel%3E%3Croot%3E%3CmxCell%20id%3D%220%22%2F%3E%3CmxCell%20id%3D%221%22%20parent%3D%220%22%2F%3E%3CmxCell%20id%3D%222%22%20value%3D%22%26lt%3Bb%26gt%3B%26lt%3Bfont%20style%3D%26quot%3Bfont-size%3A%2024px%3B%26quot%3B%26gt%3BIMRecentSession%26lt%3B%2Ffont%26gt%3B%26lt%3B%2Fb%26gt%3B%22%20style%3D%22swimlane%3BfontStyle%3D0%3BchildLayout%3DstackLayout%3Bhorizontal%3D1%3BstartSize%3D26%3BfillColor%3Dnone%3BhorizontalStack%3D0%3BresizeParent%3D1%3BresizeParentMax%3D0%3BresizeLast%3D0%3Bcollapsible%3D1%3BmarginBottom%3D0%3BwhiteSpace%3Dwrap%3Bhtml%3D1%3B%22%20vertex%3D%221%22%20parent%3D%221%22%3E%3CmxGeometry%20x%3D%22800%22%20y%3D%22206%22%20width%3D%22500%22%20height%3D%22208%22%20as%3D%22geometry%22%2F%3E%3C%2FmxCell%3E%3CmxCell%20id%3D%223%22%20value%3D%22id%26lt%3Bspan%20style%3D%26quot%3Bwhite-space%3A%20pre%3B%26quot%3B%26gt%3B%26%239%3B%26lt%3B%2Fspan%26gt%3B%26lt%3Bspan%20style%3D%26quot%3Bwhite-space%3A%20pre%3B%26quot%3B%26gt%3B%26%239%3B%26lt%3B%2Fspan%26gt%3B%26lt%3Bspan%20style%3D%26quot%3Bwhite-space%3A%20pre%3B%26quot%3B%26gt%3B%26%239%3B%26lt%3B%2Fspan%26gt%3B%E4%BC%9A%E8%AF%9Did%EF%BC%8C%E6%A0%87%E8%AF%86%E7%AC%A6%22%20style%3D%22text%3BstrokeColor%3Dnone%3BfillColor%3Dnone%3Balign%3Dleft%3BverticalAlign%3Dtop%3BspacingLeft%3D4%3BspacingRight%3D4%3Boverflow%3Dhidden%3Brotatable%3D0%3Bpoints%3D%5B%5B0%2C0.5%5D%2C%5B1%2C0.5%5D%5D%3BportConstraint%3Deastwest%3BwhiteSpace%3Dwrap%3Bhtml%3D1%3B%22%20vertex%3D%221%22%20parent%3D%222%22%3E%3CmxGeometry%20y%3D%2226%22%20width%3D%22500%22%20height%3D%2226%22%20as%3D%22geometry%22%2F%3E%3C%2FmxCell%3E%3CmxCell%20id%3D%224%22%20value%3D%22userId%26lt%3Bspan%20style%3D%26quot%3Bwhite-space%3A%20pre%3B%26quot%3B%26gt%3B%26%239%3B%26lt%3B%2Fspan%26gt%3B%26lt%3Bspan%20style%3D%26quot%3Bwhite-space%3A%20pre%3B%26quot%3B%26gt%3B%26%239%3B%26lt%3B%2Fspan%26gt%3B%E7%94%A8%E6%88%B7id%22%20style%3D%22text%3BstrokeColor%3Dnone%3BfillColor%3Dnone%3Balign%3Dleft%3BverticalAlign%3Dtop%3BspacingLeft%3D4%3BspacingRight%3D4%3Boverflow%3Dhidden%3Brotatable%3D0%3Bpoints%3D%5B%5B0%2C0.5%5D%2C%5B1%2C0.5%5D%5D%3BportConstraint%3Deastwest%3BwhiteSpace%3Dwrap%3Bhtml%3D1%3B%22%20vertex%3D%221%22%20parent%3D%222%22%3E%3CmxGeometry%20y%3D%2252%22%20width%3D%22500%22%20height%3D%2226%22%20as%3D%22geometry%22%2F%3E%3C%2FmxCell%3E%3CmxCell%20id%3D%225%22%20value%3D%22peerId%26lt%3Bspan%20style%3D%26quot%3Bwhite-space%3A%20pre%3B%26quot%3B%26gt%3B%26%239%3B%26lt%3B%2Fspan%26gt%3B%26lt%3Bspan%20style%3D%26quot%3Bwhite-space%3A%20pre%3B%26quot%3B%26gt%3B%26%239%3B%26lt%3B%2Fspan%26gt%3B%E5%AF%B9%E6%96%B9id%22%20style%3D%22text%3BstrokeColor%3Dnone%3BfillColor%3Dnone%3Balign%3Dleft%3BverticalAlign%3Dtop%3BspacingLeft%3D4%3BspacingRight%3D4%3Boverflow%3Dhidden%3Brotatable%3D0%3Bpoints%3D%5B%5B0%2C0.5%5D%2C%5B1%2C0.5%5D%5D%3BportConstraint%3Deastwest%3BwhiteSpace%3Dwrap%3Bhtml%3D1%3B%22%20vertex%3D%221%22%20parent%3D%222%22%3E%3CmxGeometry%20y%3D%2278%22%20width%3D%22500%22%20height%3D%2226%22%20as%3D%22geometry%22%2F%3E%3C%2FmxCell%3E%3CmxCell%20id%3D%226%22%20value%3D%22type%26lt%3Bspan%20style%3D%26quot%3Bwhite-space%3A%20pre%3B%26quot%3B%26gt%3B%26%239%3B%26lt%3B%2Fspan%26gt%3B%26lt%3Bspan%20style%3D%26quot%3Bwhite-space%3A%20pre%3B%26quot%3B%26gt%3B%26%239%3B%26lt%3B%2Fspan%26gt%3B%26lt%3Bspan%20style%3D%26quot%3Bwhite-space%3A%20pre%3B%26quot%3B%26gt%3B%26%239%3B%26lt%3B%2Fspan%26gt%3B%E7%B1%BB%E5%9E%8B%EF%BC%9A0-%E9%BB%98%E8%AE%A4%EF%BC%9B1-%E7%94%A8%E6%88%B7%EF%BC%9B2-%E7%BE%A4%E7%BB%84%22%20style%3D%22text%3BstrokeColor%3Dnone%3BfillColor%3Dnone%3Balign%3Dleft%3BverticalAlign%3Dtop%3BspacingLeft%3D4%3BspacingRight%3D4%3Boverflow%3Dhidden%3Brotatable%3D0%3Bpoints%3D%5B%5B0%2C0.5%5D%2C%5B1%2C0.5%5D%5D%3BportConstraint%3Deastwest%3BwhiteSpace%3Dwrap%3Bhtml%3D1%3B%22%20vertex%3D%221%22%20parent%3D%222%22%3E%3CmxGeometry%20y%3D%22104%22%20width%3D%22500%22%20height%3D%2226%22%20as%3D%22geometry%22%2F%3E%3C%2FmxCell%3E%3CmxCell%20id%3D%227%22%20value%3D%22status%26lt%3Bspan%20style%3D%26quot%3Bwhite-space%3A%20pre%3B%26quot%3B%26gt%3B%26%239%3B%26lt%3B%2Fspan%26gt%3B%26lt%3Bspan%20style%3D%26quot%3Bwhite-space%3A%20pre%3B%26quot%3B%26gt%3B%26%239%3B%26lt%3B%2Fspan%26gt%3B%E7%8A%B6%E6%80%81%EF%BC%9A%E7%94%A8%E6%88%B7%EF%BC%9A0-%E6%AD%A3%E5%B8%B8%EF%BC%9B1-%E7%94%A8%E6%88%B7A%E5%88%A0%E9%99%A4%EF%BC%9B%E7%BE%A4%E7%BB%84%EF%BC%9A0-%E6%AD%A3%E5%B8%B8%EF%BC%9B1-%E8%A2%AB%E5%88%A0%E9%99%A4%22%20style%3D%22text%3BstrokeColor%3Dnone%3BfillColor%3Dnone%3Balign%3Dleft%3BverticalAlign%3Dtop%3BspacingLeft%3D4%3BspacingRight%3D4%3Boverflow%3Dhidden%3Brotatable%3D0%3Bpoints%3D%5B%5B0%2C0.5%5D%2C%5B1%2C0.5%5D%5D%3BportConstraint%3Deastwest%3BwhiteSpace%3Dwrap%3Bhtml%3D1%3B%22%20vertex%3D%221%22%20parent%3D%222%22%3E%3CmxGeometry%20y%3D%22130%22%20width%3D%22500%22%20height%3D%2226%22%20as%3D%22geometry%22%2F%3E%3C%2FmxCell%3E%3CmxCell%20id%3D%228%22%20value%3D%22created%26lt%3Bspan%20style%3D%26quot%3Bwhite-space%3A%20pre%3B%26quot%3B%26gt%3B%26%239%3B%26lt%3B%2Fspan%26gt%3B%26lt%3Bspan%20style%3D%26quot%3Bwhite-space%3A%20pre%3B%26quot%3B%26gt%3B%26%239%3B%26lt%3B%2Fspan%26gt%3B%E5%88%9B%E5%BB%BA%E6%97%B6%E9%97%B4%22%20style%3D%22text%3BstrokeColor%3Dnone%3BfillColor%3Dnone%3Balign%3Dleft%3BverticalAlign%3Dtop%3BspacingLeft%3D4%3BspacingRight%3D4%3Boverflow%3Dhidden%3Brotatable%3D0%3Bpoints%3D%5B%5B0%2C0.5%5D%2C%5B1%2C0.5%5D%5D%3BportConstraint%3Deastwest%3BwhiteSpace%3Dwrap%3Bhtml%3D1%3B%22%20vertex%3D%221%22%20parent%3D%222%22%3E%3CmxGeometry%20y%3D%22156%22%20width%3D%22500%22%20height%3D%2226%22%20as%3D%22geometry%22%2F%3E%3C%2FmxCell%3E%3CmxCell%20id%3D%229%22%20value%3D%22updated%26lt%3Bspan%20style%3D%26quot%3Bwhite-space%3A%20pre%3B%26quot%3B%26gt%3B%26%239%3B%26lt%3B%2Fspan%26gt%3B%26lt%3Bspan%20style%3D%26quot%3Bwhite-space%3A%20pre%3B%26quot%3B%26gt%3B%26%239%3B%26lt%3B%2Fspan%26gt%3B%E6%9B%B4%E6%96%B0%E6%97%B6%E9%97%B4%22%20style%3D%22text%3BstrokeColor%3Dnone%3BfillColor%3Dnone%3Balign%3Dleft%3BverticalAlign%3Dtop%3BspacingLeft%3D4%3BspacingRight%3D4%3Boverflow%3Dhidden%3Brotatable%3D0%3Bpoints%3D%5B%5B0%2C0.5%5D%2C%5B1%2C0.5%5D%5D%3BportConstraint%3Deastwest%3BwhiteSpace%3Dwrap%3Bhtml%3D1%3B%22%20vertex%3D%221%22%20parent%3D%222%22%3E%3CmxGeometry%20y%3D%22182%22%20width%3D%22500%22%20height%3D%2226%22%20as%3D%22geometry%22%2F%3E%3C%2FmxCell%3E%3C%2Froot%3E%3C%2FmxGraphModel%3E&lt;/span&gt;" style="text;strokeColor=none;fillColor=none;align=left;verticalAlign=top;spacingLeft=4;spacingRight=4;overflow=hidden;rotatable=0;points=[[0,0.5],[1,0.5]];portConstraint=eastwest;whiteSpace=wrap;html=1;" parent="cNy02wjT9gQk6fJg44tr-1" vertex="1">
          <mxGeometry y="286" width="500" height="26" as="geometry" />
        </mxCell>
        <mxCell id="cNy02wjT9gQk6fJg44tr-13" value="&lt;font style=&quot;font-size: 18px;&quot;&gt;unread&lt;/font&gt;" style="text;align=center;fontStyle=1;verticalAlign=middle;spacingLeft=3;spacingRight=3;strokeColor=none;rotatable=0;points=[[0,0.5],[1,0.5]];portConstraint=eastwest;html=1;" parent="1" vertex="1">
          <mxGeometry x="210" y="297" width="80" height="26" as="geometry" />
        </mxCell>
        <mxCell id="cNy02wjT9gQk6fJg44tr-14" value="last_update_group" style="text;align=center;fontStyle=1;verticalAlign=middle;spacingLeft=3;spacingRight=3;strokeColor=none;rotatable=0;points=[[0,0.5],[1,0.5]];portConstraint=eastwest;html=1;" parent="1" vertex="1">
          <mxGeometry x="220" y="350" width="80" height="26" as="geometry" />
        </mxCell>
        <mxCell id="cNy02wjT9gQk6fJg44tr-15" value="&lt;b&gt;&lt;font style=&quot;font-size: 24px;&quot;&gt;IMUser&lt;/font&gt;&lt;/b&gt;" style="swimlane;fontStyle=0;childLayout=stackLayout;horizontal=1;startSize=26;fillColor=none;horizontalStack=0;resizeParent=1;resizeParentMax=0;resizeLast=0;collapsible=1;marginBottom=0;whiteSpace=wrap;html=1;" parent="1" vertex="1">
          <mxGeometry x="800" y="860" width="500" height="364" as="geometry" />
        </mxCell>
        <mxCell id="cNy02wjT9gQk6fJg44tr-16" value="id&lt;span style=&quot;white-space: pre;&quot;&gt;&#x9;&lt;/span&gt;&lt;span style=&quot;white-space: pre;&quot;&gt;&#x9;&lt;/span&gt;&lt;span style=&quot;white-space: pre;&quot;&gt;&#x9;&lt;/span&gt;用户id，自增" style="text;strokeColor=none;fillColor=none;align=left;verticalAlign=top;spacingLeft=4;spacingRight=4;overflow=hidden;rotatable=0;points=[[0,0.5],[1,0.5]];portConstraint=eastwest;whiteSpace=wrap;html=1;" parent="cNy02wjT9gQk6fJg44tr-15" vertex="1">
          <mxGeometry y="26" width="500" height="26" as="geometry" />
        </mxCell>
        <mxCell id="cNy02wjT9gQk6fJg44tr-17" value="sex&lt;span style=&quot;white-space: pre;&quot;&gt;&#x9;&lt;/span&gt;&lt;span style=&quot;white-space: pre;&quot;&gt;&#x9;&lt;span style=&quot;white-space: pre;&quot;&gt;&#x9;&lt;/span&gt;性别：1-男；2-女；3-未知&lt;/span&gt;" style="text;strokeColor=none;fillColor=none;align=left;verticalAlign=top;spacingLeft=4;spacingRight=4;overflow=hidden;rotatable=0;points=[[0,0.5],[1,0.5]];portConstraint=eastwest;whiteSpace=wrap;html=1;" parent="cNy02wjT9gQk6fJg44tr-15" vertex="1">
          <mxGeometry y="52" width="500" height="26" as="geometry" />
        </mxCell>
        <mxCell id="cNy02wjT9gQk6fJg44tr-18" value="name&lt;span style=&quot;white-space: pre;&quot;&gt;&#x9;&lt;span style=&quot;white-space: pre;&quot;&gt;&#x9;&lt;/span&gt;用户&lt;/span&gt;名" style="text;strokeColor=none;fillColor=none;align=left;verticalAlign=top;spacingLeft=4;spacingRight=4;overflow=hidden;rotatable=0;points=[[0,0.5],[1,0.5]];portConstraint=eastwest;whiteSpace=wrap;html=1;" parent="cNy02wjT9gQk6fJg44tr-15" vertex="1">
          <mxGeometry y="78" width="500" height="26" as="geometry" />
        </mxCell>
        <mxCell id="cNy02wjT9gQk6fJg44tr-19" value="domain&lt;span style=&quot;white-space: pre;&quot;&gt;&#x9;&lt;/span&gt;&lt;span style=&quot;white-space: pre;&quot;&gt;&#x9;&lt;/span&gt;拼音" style="text;strokeColor=none;fillColor=none;align=left;verticalAlign=top;spacingLeft=4;spacingRight=4;overflow=hidden;rotatable=0;points=[[0,0.5],[1,0.5]];portConstraint=eastwest;whiteSpace=wrap;html=1;" parent="cNy02wjT9gQk6fJg44tr-15" vertex="1">
          <mxGeometry y="104" width="500" height="26" as="geometry" />
        </mxCell>
        <mxCell id="cNy02wjT9gQk6fJg44tr-20" value="nick&lt;span style=&quot;white-space: pre;&quot;&gt;&#x9;&lt;/span&gt;&lt;span style=&quot;white-space: pre;&quot;&gt;&#x9;&lt;span style=&quot;white-space: pre;&quot;&gt;&#x9;&lt;/span&gt;昵称&lt;/span&gt;" style="text;strokeColor=none;fillColor=none;align=left;verticalAlign=top;spacingLeft=4;spacingRight=4;overflow=hidden;rotatable=0;points=[[0,0.5],[1,0.5]];portConstraint=eastwest;whiteSpace=wrap;html=1;" parent="cNy02wjT9gQk6fJg44tr-15" vertex="1">
          <mxGeometry y="130" width="500" height="26" as="geometry" />
        </mxCell>
        <mxCell id="cNy02wjT9gQk6fJg44tr-21" value="password&lt;span style=&quot;white-space: pre;&quot;&gt;&#x9;&lt;/span&gt;&lt;span style=&quot;white-space: pre;&quot;&gt;&#x9;&lt;/span&gt;密码" style="text;strokeColor=none;fillColor=none;align=left;verticalAlign=top;spacingLeft=4;spacingRight=4;overflow=hidden;rotatable=0;points=[[0,0.5],[1,0.5]];portConstraint=eastwest;whiteSpace=wrap;html=1;" parent="cNy02wjT9gQk6fJg44tr-15" vertex="1">
          <mxGeometry y="156" width="500" height="26" as="geometry" />
        </mxCell>
        <mxCell id="cNy02wjT9gQk6fJg44tr-22" value="salt&lt;span style=&quot;white-space: pre;&quot;&gt;&#x9;&lt;/span&gt;&lt;span style=&quot;white-space: pre;&quot;&gt;&#x9;&lt;span style=&quot;white-space: pre;&quot;&gt;&#x9;&lt;/span&gt;混淆&lt;/span&gt;码&lt;span style=&quot;color: rgba(0, 0, 0, 0); font-family: monospace; font-size: 0px; text-wrap: nowrap;&quot;&gt;%3CmxGraphModel%3E%3Croot%3E%3CmxCell%20id%3D%220%22%2F%3E%3CmxCell%20id%3D%221%22%20parent%3D%220%22%2F%3E%3CmxCell%20id%3D%222%22%20value%3D%22%26lt%3Bb%26gt%3B%26lt%3Bfont%20style%3D%26quot%3Bfont-size%3A%2024px%3B%26quot%3B%26gt%3BIMRecentSession%26lt%3B%2Ffont%26gt%3B%26lt%3B%2Fb%26gt%3B%22%20style%3D%22swimlane%3BfontStyle%3D0%3BchildLayout%3DstackLayout%3Bhorizontal%3D1%3BstartSize%3D26%3BfillColor%3Dnone%3BhorizontalStack%3D0%3BresizeParent%3D1%3BresizeParentMax%3D0%3BresizeLast%3D0%3Bcollapsible%3D1%3BmarginBottom%3D0%3BwhiteSpace%3Dwrap%3Bhtml%3D1%3B%22%20vertex%3D%221%22%20parent%3D%221%22%3E%3CmxGeometry%20x%3D%22800%22%20y%3D%22206%22%20width%3D%22500%22%20height%3D%22208%22%20as%3D%22geometry%22%2F%3E%3C%2FmxCell%3E%3CmxCell%20id%3D%223%22%20value%3D%22id%26lt%3Bspan%20style%3D%26quot%3Bwhite-space%3A%20pre%3B%26quot%3B%26gt%3B%26%239%3B%26lt%3B%2Fspan%26gt%3B%26lt%3Bspan%20style%3D%26quot%3Bwhite-space%3A%20pre%3B%26quot%3B%26gt%3B%26%239%3B%26lt%3B%2Fspan%26gt%3B%26lt%3Bspan%20style%3D%26quot%3Bwhite-space%3A%20pre%3B%26quot%3B%26gt%3B%26%239%3B%26lt%3B%2Fspan%26gt%3B%E4%BC%9A%E8%AF%9Did%EF%BC%8C%E6%A0%87%E8%AF%86%E7%AC%A6%22%20style%3D%22text%3BstrokeColor%3Dnone%3BfillColor%3Dnone%3Balign%3Dleft%3BverticalAlign%3Dtop%3BspacingLeft%3D4%3BspacingRight%3D4%3Boverflow%3Dhidden%3Brotatable%3D0%3Bpoints%3D%5B%5B0%2C0.5%5D%2C%5B1%2C0.5%5D%5D%3BportConstraint%3Deastwest%3BwhiteSpace%3Dwrap%3Bhtml%3D1%3B%22%20vertex%3D%221%22%20parent%3D%222%22%3E%3CmxGeometry%20y%3D%2226%22%20width%3D%22500%22%20height%3D%2226%22%20as%3D%22geometry%22%2F%3E%3C%2FmxCell%3E%3CmxCell%20id%3D%224%22%20value%3D%22userId%26lt%3Bspan%20style%3D%26quot%3Bwhite-space%3A%20pre%3B%26quot%3B%26gt%3B%26%239%3B%26lt%3B%2Fspan%26gt%3B%26lt%3Bspan%20style%3D%26quot%3Bwhite-space%3A%20pre%3B%26quot%3B%26gt%3B%26%239%3B%26lt%3B%2Fspan%26gt%3B%E7%94%A8%E6%88%B7id%22%20style%3D%22text%3BstrokeColor%3Dnone%3BfillColor%3Dnone%3Balign%3Dleft%3BverticalAlign%3Dtop%3BspacingLeft%3D4%3BspacingRight%3D4%3Boverflow%3Dhidden%3Brotatable%3D0%3Bpoints%3D%5B%5B0%2C0.5%5D%2C%5B1%2C0.5%5D%5D%3BportConstraint%3Deastwest%3BwhiteSpace%3Dwrap%3Bhtml%3D1%3B%22%20vertex%3D%221%22%20parent%3D%222%22%3E%3CmxGeometry%20y%3D%2252%22%20width%3D%22500%22%20height%3D%2226%22%20as%3D%22geometry%22%2F%3E%3C%2FmxCell%3E%3CmxCell%20id%3D%225%22%20value%3D%22peerId%26lt%3Bspan%20style%3D%26quot%3Bwhite-space%3A%20pre%3B%26quot%3B%26gt%3B%26%239%3B%26lt%3B%2Fspan%26gt%3B%26lt%3Bspan%20style%3D%26quot%3Bwhite-space%3A%20pre%3B%26quot%3B%26gt%3B%26%239%3B%26lt%3B%2Fspan%26gt%3B%E5%AF%B9%E6%96%B9id%22%20style%3D%22text%3BstrokeColor%3Dnone%3BfillColor%3Dnone%3Balign%3Dleft%3BverticalAlign%3Dtop%3BspacingLeft%3D4%3BspacingRight%3D4%3Boverflow%3Dhidden%3Brotatable%3D0%3Bpoints%3D%5B%5B0%2C0.5%5D%2C%5B1%2C0.5%5D%5D%3BportConstraint%3Deastwest%3BwhiteSpace%3Dwrap%3Bhtml%3D1%3B%22%20vertex%3D%221%22%20parent%3D%222%22%3E%3CmxGeometry%20y%3D%2278%22%20width%3D%22500%22%20height%3D%2226%22%20as%3D%22geometry%22%2F%3E%3C%2FmxCell%3E%3CmxCell%20id%3D%226%22%20value%3D%22type%26lt%3Bspan%20style%3D%26quot%3Bwhite-space%3A%20pre%3B%26quot%3B%26gt%3B%26%239%3B%26lt%3B%2Fspan%26gt%3B%26lt%3Bspan%20style%3D%26quot%3Bwhite-space%3A%20pre%3B%26quot%3B%26gt%3B%26%239%3B%26lt%3B%2Fspan%26gt%3B%26lt%3Bspan%20style%3D%26quot%3Bwhite-space%3A%20pre%3B%26quot%3B%26gt%3B%26%239%3B%26lt%3B%2Fspan%26gt%3B%E7%B1%BB%E5%9E%8B%EF%BC%9A0-%E9%BB%98%E8%AE%A4%EF%BC%9B1-%E7%94%A8%E6%88%B7%EF%BC%9B2-%E7%BE%A4%E7%BB%84%22%20style%3D%22text%3BstrokeColor%3Dnone%3BfillColor%3Dnone%3Balign%3Dleft%3BverticalAlign%3Dtop%3BspacingLeft%3D4%3BspacingRight%3D4%3Boverflow%3Dhidden%3Brotatable%3D0%3Bpoints%3D%5B%5B0%2C0.5%5D%2C%5B1%2C0.5%5D%5D%3BportConstraint%3Deastwest%3BwhiteSpace%3Dwrap%3Bhtml%3D1%3B%22%20vertex%3D%221%22%20parent%3D%222%22%3E%3CmxGeometry%20y%3D%22104%22%20width%3D%22500%22%20height%3D%2226%22%20as%3D%22geometry%22%2F%3E%3C%2FmxCell%3E%3CmxCell%20id%3D%227%22%20value%3D%22status%26lt%3Bspan%20style%3D%26quot%3Bwhite-space%3A%20pre%3B%26quot%3B%26gt%3B%26%239%3B%26lt%3B%2Fspan%26gt%3B%26lt%3Bspan%20style%3D%26quot%3Bwhite-space%3A%20pre%3B%26quot%3B%26gt%3B%26%239%3B%26lt%3B%2Fspan%26gt%3B%E7%8A%B6%E6%80%81%EF%BC%9A%E7%94%A8%E6%88%B7%EF%BC%9A0-%E6%AD%A3%E5%B8%B8%EF%BC%9B1-%E7%94%A8%E6%88%B7A%E5%88%A0%E9%99%A4%EF%BC%9B%E7%BE%A4%E7%BB%84%EF%BC%9A0-%E6%AD%A3%E5%B8%B8%EF%BC%9B1-%E8%A2%AB%E5%88%A0%E9%99%A4%22%20style%3D%22text%3BstrokeColor%3Dnone%3BfillColor%3Dnone%3Balign%3Dleft%3BverticalAlign%3Dtop%3BspacingLeft%3D4%3BspacingRight%3D4%3Boverflow%3Dhidden%3Brotatable%3D0%3Bpoints%3D%5B%5B0%2C0.5%5D%2C%5B1%2C0.5%5D%5D%3BportConstraint%3Deastwest%3BwhiteSpace%3Dwrap%3Bhtml%3D1%3B%22%20vertex%3D%221%22%20parent%3D%222%22%3E%3CmxGeometry%20y%3D%22130%22%20width%3D%22500%22%20height%3D%2226%22%20as%3D%22geometry%22%2F%3E%3C%2FmxCell%3E%3CmxCell%20id%3D%228%22%20value%3D%22created%26lt%3Bspan%20style%3D%26quot%3Bwhite-space%3A%20pre%3B%26quot%3B%26gt%3B%26%239%3B%26lt%3B%2Fspan%26gt%3B%26lt%3Bspan%20style%3D%26quot%3Bwhite-space%3A%20pre%3B%26quot%3B%26gt%3B%26%239%3B%26lt%3B%2Fspan%26gt%3B%E5%88%9B%E5%BB%BA%E6%97%B6%E9%97%B4%22%20style%3D%22text%3BstrokeColor%3Dnone%3BfillColor%3Dnone%3Balign%3Dleft%3BverticalAlign%3Dtop%3BspacingLeft%3D4%3BspacingRight%3D4%3Boverflow%3Dhidden%3Brotatable%3D0%3Bpoints%3D%5B%5B0%2C0.5%5D%2C%5B1%2C0.5%5D%5D%3BportConstraint%3Deastwest%3BwhiteSpace%3Dwrap%3Bhtml%3D1%3B%22%20vertex%3D%221%22%20parent%3D%222%22%3E%3CmxGeometry%20y%3D%22156%22%20width%3D%22500%22%20height%3D%2226%22%20as%3D%22geometry%22%2F%3E%3C%2FmxCell%3E%3CmxCell%20id%3D%229%22%20value%3D%22updated%26lt%3Bspan%20style%3D%26quot%3Bwhite-space%3A%20pre%3B%26quot%3B%26gt%3B%26%239%3B%26lt%3B%2Fspan%26gt%3B%26lt%3Bspan%20style%3D%26quot%3Bwhite-space%3A%20pre%3B%26quot%3B%26gt%3B%26%239%3B%26lt%3B%2Fspan%26gt%3B%E6%9B%B4%E6%96%B0%E6%97%B6%E9%97%B4%22%20style%3D%22text%3BstrokeColor%3Dnone%3BfillColor%3Dnone%3Balign%3Dleft%3BverticalAlign%3Dtop%3BspacingLeft%3D4%3BspacingRight%3D4%3Boverflow%3Dhidden%3Brotatable%3D0%3Bpoints%3D%5B%5B0%2C0.5%5D%2C%5B1%2C0.5%5D%5D%3BportConstraint%3Deastwest%3BwhiteSpace%3Dwrap%3Bhtml%3D1%3B%22%20vertex%3D%221%22%20parent%3D%222%22%3E%3CmxGeometry%20y%3D%22182%22%20width%3D%22500%22%20height%3D%2226%22%20as%3D%22geometry%22%2F%3E%3C%2FmxCell%3E%3C%2Froot%3E%3C%2FmxGraphModel%3E&lt;/span&gt;" style="text;strokeColor=none;fillColor=none;align=left;verticalAlign=top;spacingLeft=4;spacingRight=4;overflow=hidden;rotatable=0;points=[[0,0.5],[1,0.5]];portConstraint=eastwest;whiteSpace=wrap;html=1;" parent="cNy02wjT9gQk6fJg44tr-15" vertex="1">
          <mxGeometry y="182" width="500" height="26" as="geometry" />
        </mxCell>
        <mxCell id="cNy02wjT9gQk6fJg44tr-23" value="phone&lt;span style=&quot;white-space: pre;&quot;&gt;&#x9;&lt;/span&gt;&lt;span style=&quot;white-space: pre;&quot;&gt;&#x9;&lt;/span&gt;手机号码&lt;span style=&quot;color: rgba(0, 0, 0, 0); font-family: monospace; font-size: 0px; text-wrap: nowrap;&quot;&gt;%3CmxGraphModel%3E%3Croot%3E%3CmxCell%20id%3D%220%22%2F%3E%3CmxCell%20id%3D%221%22%20parent%3D%220%22%2F%3E%3CmxCell%20id%3D%222%22%20value%3D%22%26lt%3Bb%26gt%3B%26lt%3Bfont%20style%3D%26quot%3Bfont-size%3A%2024px%3B%26quot%3B%26gt%3BIMRecentSession%26lt%3B%2Ffont%26gt%3B%26lt%3B%2Fb%26gt%3B%22%20style%3D%22swimlane%3BfontStyle%3D0%3BchildLayout%3DstackLayout%3Bhorizontal%3D1%3BstartSize%3D26%3BfillColor%3Dnone%3BhorizontalStack%3D0%3BresizeParent%3D1%3BresizeParentMax%3D0%3BresizeLast%3D0%3Bcollapsible%3D1%3BmarginBottom%3D0%3BwhiteSpace%3Dwrap%3Bhtml%3D1%3B%22%20vertex%3D%221%22%20parent%3D%221%22%3E%3CmxGeometry%20x%3D%22800%22%20y%3D%22206%22%20width%3D%22500%22%20height%3D%22208%22%20as%3D%22geometry%22%2F%3E%3C%2FmxCell%3E%3CmxCell%20id%3D%223%22%20value%3D%22id%26lt%3Bspan%20style%3D%26quot%3Bwhite-space%3A%20pre%3B%26quot%3B%26gt%3B%26%239%3B%26lt%3B%2Fspan%26gt%3B%26lt%3Bspan%20style%3D%26quot%3Bwhite-space%3A%20pre%3B%26quot%3B%26gt%3B%26%239%3B%26lt%3B%2Fspan%26gt%3B%26lt%3Bspan%20style%3D%26quot%3Bwhite-space%3A%20pre%3B%26quot%3B%26gt%3B%26%239%3B%26lt%3B%2Fspan%26gt%3B%E4%BC%9A%E8%AF%9Did%EF%BC%8C%E6%A0%87%E8%AF%86%E7%AC%A6%22%20style%3D%22text%3BstrokeColor%3Dnone%3BfillColor%3Dnone%3Balign%3Dleft%3BverticalAlign%3Dtop%3BspacingLeft%3D4%3BspacingRight%3D4%3Boverflow%3Dhidden%3Brotatable%3D0%3Bpoints%3D%5B%5B0%2C0.5%5D%2C%5B1%2C0.5%5D%5D%3BportConstraint%3Deastwest%3BwhiteSpace%3Dwrap%3Bhtml%3D1%3B%22%20vertex%3D%221%22%20parent%3D%222%22%3E%3CmxGeometry%20y%3D%2226%22%20width%3D%22500%22%20height%3D%2226%22%20as%3D%22geometry%22%2F%3E%3C%2FmxCell%3E%3CmxCell%20id%3D%224%22%20value%3D%22userId%26lt%3Bspan%20style%3D%26quot%3Bwhite-space%3A%20pre%3B%26quot%3B%26gt%3B%26%239%3B%26lt%3B%2Fspan%26gt%3B%26lt%3Bspan%20style%3D%26quot%3Bwhite-space%3A%20pre%3B%26quot%3B%26gt%3B%26%239%3B%26lt%3B%2Fspan%26gt%3B%E7%94%A8%E6%88%B7id%22%20style%3D%22text%3BstrokeColor%3Dnone%3BfillColor%3Dnone%3Balign%3Dleft%3BverticalAlign%3Dtop%3BspacingLeft%3D4%3BspacingRight%3D4%3Boverflow%3Dhidden%3Brotatable%3D0%3Bpoints%3D%5B%5B0%2C0.5%5D%2C%5B1%2C0.5%5D%5D%3BportConstraint%3Deastwest%3BwhiteSpace%3Dwrap%3Bhtml%3D1%3B%22%20vertex%3D%221%22%20parent%3D%222%22%3E%3CmxGeometry%20y%3D%2252%22%20width%3D%22500%22%20height%3D%2226%22%20as%3D%22geometry%22%2F%3E%3C%2FmxCell%3E%3CmxCell%20id%3D%225%22%20value%3D%22peerId%26lt%3Bspan%20style%3D%26quot%3Bwhite-space%3A%20pre%3B%26quot%3B%26gt%3B%26%239%3B%26lt%3B%2Fspan%26gt%3B%26lt%3Bspan%20style%3D%26quot%3Bwhite-space%3A%20pre%3B%26quot%3B%26gt%3B%26%239%3B%26lt%3B%2Fspan%26gt%3B%E5%AF%B9%E6%96%B9id%22%20style%3D%22text%3BstrokeColor%3Dnone%3BfillColor%3Dnone%3Balign%3Dleft%3BverticalAlign%3Dtop%3BspacingLeft%3D4%3BspacingRight%3D4%3Boverflow%3Dhidden%3Brotatable%3D0%3Bpoints%3D%5B%5B0%2C0.5%5D%2C%5B1%2C0.5%5D%5D%3BportConstraint%3Deastwest%3BwhiteSpace%3Dwrap%3Bhtml%3D1%3B%22%20vertex%3D%221%22%20parent%3D%222%22%3E%3CmxGeometry%20y%3D%2278%22%20width%3D%22500%22%20height%3D%2226%22%20as%3D%22geometry%22%2F%3E%3C%2FmxCell%3E%3CmxCell%20id%3D%226%22%20value%3D%22type%26lt%3Bspan%20style%3D%26quot%3Bwhite-space%3A%20pre%3B%26quot%3B%26gt%3B%26%239%3B%26lt%3B%2Fspan%26gt%3B%26lt%3Bspan%20style%3D%26quot%3Bwhite-space%3A%20pre%3B%26quot%3B%26gt%3B%26%239%3B%26lt%3B%2Fspan%26gt%3B%26lt%3Bspan%20style%3D%26quot%3Bwhite-space%3A%20pre%3B%26quot%3B%26gt%3B%26%239%3B%26lt%3B%2Fspan%26gt%3B%E7%B1%BB%E5%9E%8B%EF%BC%9A0-%E9%BB%98%E8%AE%A4%EF%BC%9B1-%E7%94%A8%E6%88%B7%EF%BC%9B2-%E7%BE%A4%E7%BB%84%22%20style%3D%22text%3BstrokeColor%3Dnone%3BfillColor%3Dnone%3Balign%3Dleft%3BverticalAlign%3Dtop%3BspacingLeft%3D4%3BspacingRight%3D4%3Boverflow%3Dhidden%3Brotatable%3D0%3Bpoints%3D%5B%5B0%2C0.5%5D%2C%5B1%2C0.5%5D%5D%3BportConstraint%3Deastwest%3BwhiteSpace%3Dwrap%3Bhtml%3D1%3B%22%20vertex%3D%221%22%20parent%3D%222%22%3E%3CmxGeometry%20y%3D%22104%22%20width%3D%22500%22%20height%3D%2226%22%20as%3D%22geometry%22%2F%3E%3C%2FmxCell%3E%3CmxCell%20id%3D%227%22%20value%3D%22status%26lt%3Bspan%20style%3D%26quot%3Bwhite-space%3A%20pre%3B%26quot%3B%26gt%3B%26%239%3B%26lt%3B%2Fspan%26gt%3B%26lt%3Bspan%20style%3D%26quot%3Bwhite-space%3A%20pre%3B%26quot%3B%26gt%3B%26%239%3B%26lt%3B%2Fspan%26gt%3B%E7%8A%B6%E6%80%81%EF%BC%9A%E7%94%A8%E6%88%B7%EF%BC%9A0-%E6%AD%A3%E5%B8%B8%EF%BC%9B1-%E7%94%A8%E6%88%B7A%E5%88%A0%E9%99%A4%EF%BC%9B%E7%BE%A4%E7%BB%84%EF%BC%9A0-%E6%AD%A3%E5%B8%B8%EF%BC%9B1-%E8%A2%AB%E5%88%A0%E9%99%A4%22%20style%3D%22text%3BstrokeColor%3Dnone%3BfillColor%3Dnone%3Balign%3Dleft%3BverticalAlign%3Dtop%3BspacingLeft%3D4%3BspacingRight%3D4%3Boverflow%3Dhidden%3Brotatable%3D0%3Bpoints%3D%5B%5B0%2C0.5%5D%2C%5B1%2C0.5%5D%5D%3BportConstraint%3Deastwest%3BwhiteSpace%3Dwrap%3Bhtml%3D1%3B%22%20vertex%3D%221%22%20parent%3D%222%22%3E%3CmxGeometry%20y%3D%22130%22%20width%3D%22500%22%20height%3D%2226%22%20as%3D%22geometry%22%2F%3E%3C%2FmxCell%3E%3CmxCell%20id%3D%228%22%20value%3D%22created%26lt%3Bspan%20style%3D%26quot%3Bwhite-space%3A%20pre%3B%26quot%3B%26gt%3B%26%239%3B%26lt%3B%2Fspan%26gt%3B%26lt%3Bspan%20style%3D%26quot%3Bwhite-space%3A%20pre%3B%26quot%3B%26gt%3B%26%239%3B%26lt%3B%2Fspan%26gt%3B%E5%88%9B%E5%BB%BA%E6%97%B6%E9%97%B4%22%20style%3D%22text%3BstrokeColor%3Dnone%3BfillColor%3Dnone%3Balign%3Dleft%3BverticalAlign%3Dtop%3BspacingLeft%3D4%3BspacingRight%3D4%3Boverflow%3Dhidden%3Brotatable%3D0%3Bpoints%3D%5B%5B0%2C0.5%5D%2C%5B1%2C0.5%5D%5D%3BportConstraint%3Deastwest%3BwhiteSpace%3Dwrap%3Bhtml%3D1%3B%22%20vertex%3D%221%22%20parent%3D%222%22%3E%3CmxGeometry%20y%3D%22156%22%20width%3D%22500%22%20height%3D%2226%22%20as%3D%22geometry%22%2F%3E%3C%2FmxCell%3E%3CmxCell%20id%3D%229%22%20value%3D%22updated%26lt%3Bspan%20style%3D%26quot%3Bwhite-space%3A%20pre%3B%26quot%3B%26gt%3B%26%239%3B%26lt%3B%2Fspan%26gt%3B%26lt%3Bspan%20style%3D%26quot%3Bwhite-space%3A%20pre%3B%26quot%3B%26gt%3B%26%239%3B%26lt%3B%2Fspan%26gt%3B%E6%9B%B4%E6%96%B0%E6%97%B6%E9%97%B4%22%20style%3D%22text%3BstrokeColor%3Dnone%3BfillColor%3Dnone%3Balign%3Dleft%3BverticalAlign%3Dtop%3BspacingLeft%3D4%3BspacingRight%3D4%3Boverflow%3Dhidden%3Brotatable%3D0%3Bpoints%3D%5B%5B0%2C0.5%5D%2C%5B1%2C0.5%5D%5D%3BportConstraint%3Deastwest%3BwhiteSpace%3Dwrap%3Bhtml%3D1%3B%22%20vertex%3D%221%22%20parent%3D%222%22%3E%3CmxGeometry%20y%3D%22182%22%20width%3D%22500%22%20height%3D%2226%22%20as%3D%22geometry%22%2F%3E%3C%2FmxCell%3E%3C%2Froot%3E%3C%2FmxGraphModel%3E&lt;/span&gt;" style="text;strokeColor=none;fillColor=none;align=left;verticalAlign=top;spacingLeft=4;spacingRight=4;overflow=hidden;rotatable=0;points=[[0,0.5],[1,0.5]];portConstraint=eastwest;whiteSpace=wrap;html=1;" parent="cNy02wjT9gQk6fJg44tr-15" vertex="1">
          <mxGeometry y="208" width="500" height="26" as="geometry" />
        </mxCell>
        <mxCell id="cNy02wjT9gQk6fJg44tr-24" value="email&lt;span style=&quot;white-space: pre;&quot;&gt;&#x9;&lt;span style=&quot;white-space: pre;&quot;&gt;&#x9;&lt;/span&gt;邮箱&lt;/span&gt;&lt;span style=&quot;color: rgba(0, 0, 0, 0); font-family: monospace; font-size: 0px; text-wrap: nowrap;&quot;&gt;%3CmxGraphModel%3E%3Croot%3E%3CmxCell%20id%3D%220%22%2F%3E%3CmxCell%20id%3D%221%22%20parent%3D%220%22%2F%3E%3CmxCell%20id%3D%222%22%20value%3D%22%26lt%3Bb%26gt%3B%26lt%3Bfont%20style%3D%26quot%3Bfont-size%3A%2024px%3B%26quot%3B%26gt%3BIMRecentSession%26lt%3B%2Ffont%26gt%3B%26lt%3B%2Fb%26gt%3B%22%20style%3D%22swimlane%3BfontStyle%3D0%3BchildLayout%3DstackLayout%3Bhorizontal%3D1%3BstartSize%3D26%3BfillColor%3Dnone%3BhorizontalStack%3D0%3BresizeParent%3D1%3BresizeParentMax%3D0%3BresizeLast%3D0%3Bcollapsible%3D1%3BmarginBottom%3D0%3BwhiteSpace%3Dwrap%3Bhtml%3D1%3B%22%20vertex%3D%221%22%20parent%3D%221%22%3E%3CmxGeometry%20x%3D%22800%22%20y%3D%22206%22%20width%3D%22500%22%20height%3D%22208%22%20as%3D%22geometry%22%2F%3E%3C%2FmxCell%3E%3CmxCell%20id%3D%223%22%20value%3D%22id%26lt%3Bspan%20style%3D%26quot%3Bwhite-space%3A%20pre%3B%26quot%3B%26gt%3B%26%239%3B%26lt%3B%2Fspan%26gt%3B%26lt%3Bspan%20style%3D%26quot%3Bwhite-space%3A%20pre%3B%26quot%3B%26gt%3B%26%239%3B%26lt%3B%2Fspan%26gt%3B%26lt%3Bspan%20style%3D%26quot%3Bwhite-space%3A%20pre%3B%26quot%3B%26gt%3B%26%239%3B%26lt%3B%2Fspan%26gt%3B%E4%BC%9A%E8%AF%9Did%EF%BC%8C%E6%A0%87%E8%AF%86%E7%AC%A6%22%20style%3D%22text%3BstrokeColor%3Dnone%3BfillColor%3Dnone%3Balign%3Dleft%3BverticalAlign%3Dtop%3BspacingLeft%3D4%3BspacingRight%3D4%3Boverflow%3Dhidden%3Brotatable%3D0%3Bpoints%3D%5B%5B0%2C0.5%5D%2C%5B1%2C0.5%5D%5D%3BportConstraint%3Deastwest%3BwhiteSpace%3Dwrap%3Bhtml%3D1%3B%22%20vertex%3D%221%22%20parent%3D%222%22%3E%3CmxGeometry%20y%3D%2226%22%20width%3D%22500%22%20height%3D%2226%22%20as%3D%22geometry%22%2F%3E%3C%2FmxCell%3E%3CmxCell%20id%3D%224%22%20value%3D%22userId%26lt%3Bspan%20style%3D%26quot%3Bwhite-space%3A%20pre%3B%26quot%3B%26gt%3B%26%239%3B%26lt%3B%2Fspan%26gt%3B%26lt%3Bspan%20style%3D%26quot%3Bwhite-space%3A%20pre%3B%26quot%3B%26gt%3B%26%239%3B%26lt%3B%2Fspan%26gt%3B%E7%94%A8%E6%88%B7id%22%20style%3D%22text%3BstrokeColor%3Dnone%3BfillColor%3Dnone%3Balign%3Dleft%3BverticalAlign%3Dtop%3BspacingLeft%3D4%3BspacingRight%3D4%3Boverflow%3Dhidden%3Brotatable%3D0%3Bpoints%3D%5B%5B0%2C0.5%5D%2C%5B1%2C0.5%5D%5D%3BportConstraint%3Deastwest%3BwhiteSpace%3Dwrap%3Bhtml%3D1%3B%22%20vertex%3D%221%22%20parent%3D%222%22%3E%3CmxGeometry%20y%3D%2252%22%20width%3D%22500%22%20height%3D%2226%22%20as%3D%22geometry%22%2F%3E%3C%2FmxCell%3E%3CmxCell%20id%3D%225%22%20value%3D%22peerId%26lt%3Bspan%20style%3D%26quot%3Bwhite-space%3A%20pre%3B%26quot%3B%26gt%3B%26%239%3B%26lt%3B%2Fspan%26gt%3B%26lt%3Bspan%20style%3D%26quot%3Bwhite-space%3A%20pre%3B%26quot%3B%26gt%3B%26%239%3B%26lt%3B%2Fspan%26gt%3B%E5%AF%B9%E6%96%B9id%22%20style%3D%22text%3BstrokeColor%3Dnone%3BfillColor%3Dnone%3Balign%3Dleft%3BverticalAlign%3Dtop%3BspacingLeft%3D4%3BspacingRight%3D4%3Boverflow%3Dhidden%3Brotatable%3D0%3Bpoints%3D%5B%5B0%2C0.5%5D%2C%5B1%2C0.5%5D%5D%3BportConstraint%3Deastwest%3BwhiteSpace%3Dwrap%3Bhtml%3D1%3B%22%20vertex%3D%221%22%20parent%3D%222%22%3E%3CmxGeometry%20y%3D%2278%22%20width%3D%22500%22%20height%3D%2226%22%20as%3D%22geometry%22%2F%3E%3C%2FmxCell%3E%3CmxCell%20id%3D%226%22%20value%3D%22type%26lt%3Bspan%20style%3D%26quot%3Bwhite-space%3A%20pre%3B%26quot%3B%26gt%3B%26%239%3B%26lt%3B%2Fspan%26gt%3B%26lt%3Bspan%20style%3D%26quot%3Bwhite-space%3A%20pre%3B%26quot%3B%26gt%3B%26%239%3B%26lt%3B%2Fspan%26gt%3B%26lt%3Bspan%20style%3D%26quot%3Bwhite-space%3A%20pre%3B%26quot%3B%26gt%3B%26%239%3B%26lt%3B%2Fspan%26gt%3B%E7%B1%BB%E5%9E%8B%EF%BC%9A0-%E9%BB%98%E8%AE%A4%EF%BC%9B1-%E7%94%A8%E6%88%B7%EF%BC%9B2-%E7%BE%A4%E7%BB%84%22%20style%3D%22text%3BstrokeColor%3Dnone%3BfillColor%3Dnone%3Balign%3Dleft%3BverticalAlign%3Dtop%3BspacingLeft%3D4%3BspacingRight%3D4%3Boverflow%3Dhidden%3Brotatable%3D0%3Bpoints%3D%5B%5B0%2C0.5%5D%2C%5B1%2C0.5%5D%5D%3BportConstraint%3Deastwest%3BwhiteSpace%3Dwrap%3Bhtml%3D1%3B%22%20vertex%3D%221%22%20parent%3D%222%22%3E%3CmxGeometry%20y%3D%22104%22%20width%3D%22500%22%20height%3D%2226%22%20as%3D%22geometry%22%2F%3E%3C%2FmxCell%3E%3CmxCell%20id%3D%227%22%20value%3D%22status%26lt%3Bspan%20style%3D%26quot%3Bwhite-space%3A%20pre%3B%26quot%3B%26gt%3B%26%239%3B%26lt%3B%2Fspan%26gt%3B%26lt%3Bspan%20style%3D%26quot%3Bwhite-space%3A%20pre%3B%26quot%3B%26gt%3B%26%239%3B%26lt%3B%2Fspan%26gt%3B%E7%8A%B6%E6%80%81%EF%BC%9A%E7%94%A8%E6%88%B7%EF%BC%9A0-%E6%AD%A3%E5%B8%B8%EF%BC%9B1-%E7%94%A8%E6%88%B7A%E5%88%A0%E9%99%A4%EF%BC%9B%E7%BE%A4%E7%BB%84%EF%BC%9A0-%E6%AD%A3%E5%B8%B8%EF%BC%9B1-%E8%A2%AB%E5%88%A0%E9%99%A4%22%20style%3D%22text%3BstrokeColor%3Dnone%3BfillColor%3Dnone%3Balign%3Dleft%3BverticalAlign%3Dtop%3BspacingLeft%3D4%3BspacingRight%3D4%3Boverflow%3Dhidden%3Brotatable%3D0%3Bpoints%3D%5B%5B0%2C0.5%5D%2C%5B1%2C0.5%5D%5D%3BportConstraint%3Deastwest%3BwhiteSpace%3Dwrap%3Bhtml%3D1%3B%22%20vertex%3D%221%22%20parent%3D%222%22%3E%3CmxGeometry%20y%3D%22130%22%20width%3D%22500%22%20height%3D%2226%22%20as%3D%22geometry%22%2F%3E%3C%2FmxCell%3E%3CmxCell%20id%3D%228%22%20value%3D%22created%26lt%3Bspan%20style%3D%26quot%3Bwhite-space%3A%20pre%3B%26quot%3B%26gt%3B%26%239%3B%26lt%3B%2Fspan%26gt%3B%26lt%3Bspan%20style%3D%26quot%3Bwhite-space%3A%20pre%3B%26quot%3B%26gt%3B%26%239%3B%26lt%3B%2Fspan%26gt%3B%E5%88%9B%E5%BB%BA%E6%97%B6%E9%97%B4%22%20style%3D%22text%3BstrokeColor%3Dnone%3BfillColor%3Dnone%3Balign%3Dleft%3BverticalAlign%3Dtop%3BspacingLeft%3D4%3BspacingRight%3D4%3Boverflow%3Dhidden%3Brotatable%3D0%3Bpoints%3D%5B%5B0%2C0.5%5D%2C%5B1%2C0.5%5D%5D%3BportConstraint%3Deastwest%3BwhiteSpace%3Dwrap%3Bhtml%3D1%3B%22%20vertex%3D%221%22%20parent%3D%222%22%3E%3CmxGeometry%20y%3D%22156%22%20width%3D%22500%22%20height%3D%2226%22%20as%3D%22geometry%22%2F%3E%3C%2FmxCell%3E%3CmxCell%20id%3D%229%22%20value%3D%22updated%26lt%3Bspan%20style%3D%26quot%3Bwhite-space%3A%20pre%3B%26quot%3B%26gt%3B%26%239%3B%26lt%3B%2Fspan%26gt%3B%26lt%3Bspan%20style%3D%26quot%3Bwhite-space%3A%20pre%3B%26quot%3B%26gt%3B%26%239%3B%26lt%3B%2Fspan%26gt%3B%E6%9B%B4%E6%96%B0%E6%97%B6%E9%97%B4%22%20style%3D%22text%3BstrokeColor%3Dnone%3BfillColor%3Dnone%3Balign%3Dleft%3BverticalAlign%3Dtop%3BspacingLeft%3D4%3BspacingRight%3D4%3Boverflow%3Dhidden%3Brotatable%3D0%3Bpoints%3D%5B%5B0%2C0.5%5D%2C%5B1%2C0.5%5D%5D%3BportConstraint%3Deastwest%3BwhiteSpace%3Dwrap%3Bhtml%3D1%3B%22%20vertex%3D%221%22%20parent%3D%222%22%3E%3CmxGeometry%20y%3D%22182%22%20width%3D%22500%22%20height%3D%2226%22%20as%3D%22geometry%22%2F%3E%3C%2FmxCell%3E%3C%2Froot%3E%3C%2FmxGraphModel%3E&lt;/span&gt;" style="text;strokeColor=none;fillColor=none;align=left;verticalAlign=top;spacingLeft=4;spacingRight=4;overflow=hidden;rotatable=0;points=[[0,0.5],[1,0.5]];portConstraint=eastwest;whiteSpace=wrap;html=1;" parent="cNy02wjT9gQk6fJg44tr-15" vertex="1">
          <mxGeometry y="234" width="500" height="26" as="geometry" />
        </mxCell>
        <mxCell id="cNy02wjT9gQk6fJg44tr-25" value="status&lt;span style=&quot;white-space: pre;&quot;&gt;&#x9;&lt;/span&gt;&lt;span style=&quot;white-space: pre;&quot;&gt;&#x9;&lt;/span&gt;状态；1-试用期，2-正式；3-离职；4-实习&lt;span style=&quot;color: rgba(0, 0, 0, 0); font-family: monospace; font-size: 0px; text-wrap: nowrap;&quot;&gt;%3CmxGraphModel%3E%3Croot%3E%3CmxCell%20id%3D%220%22%2F%3E%3CmxCell%20id%3D%221%22%20parent%3D%220%22%2F%3E%3CmxCell%20id%3D%222%22%20value%3D%22%26lt%3Bb%26gt%3B%26lt%3Bfont%20style%3D%26quot%3Bfont-size%3A%2024px%3B%26quot%3B%26gt%3BIMRecentSession%26lt%3B%2Ffont%26gt%3B%26lt%3B%2Fb%26gt%3B%22%20style%3D%22swimlane%3BfontStyle%3D0%3BchildLayout%3DstackLayout%3Bhorizontal%3D1%3BstartSize%3D26%3BfillColor%3Dnone%3BhorizontalStack%3D0%3BresizeParent%3D1%3BresizeParentMax%3D0%3BresizeLast%3D0%3Bcollapsible%3D1%3BmarginBottom%3D0%3BwhiteSpace%3Dwrap%3Bhtml%3D1%3B%22%20vertex%3D%221%22%20parent%3D%221%22%3E%3CmxGeometry%20x%3D%22800%22%20y%3D%22206%22%20width%3D%22500%22%20height%3D%22208%22%20as%3D%22geometry%22%2F%3E%3C%2FmxCell%3E%3CmxCell%20id%3D%223%22%20value%3D%22id%26lt%3Bspan%20style%3D%26quot%3Bwhite-space%3A%20pre%3B%26quot%3B%26gt%3B%26%239%3B%26lt%3B%2Fspan%26gt%3B%26lt%3Bspan%20style%3D%26quot%3Bwhite-space%3A%20pre%3B%26quot%3B%26gt%3B%26%239%3B%26lt%3B%2Fspan%26gt%3B%26lt%3Bspan%20style%3D%26quot%3Bwhite-space%3A%20pre%3B%26quot%3B%26gt%3B%26%239%3B%26lt%3B%2Fspan%26gt%3B%E4%BC%9A%E8%AF%9Did%EF%BC%8C%E6%A0%87%E8%AF%86%E7%AC%A6%22%20style%3D%22text%3BstrokeColor%3Dnone%3BfillColor%3Dnone%3Balign%3Dleft%3BverticalAlign%3Dtop%3BspacingLeft%3D4%3BspacingRight%3D4%3Boverflow%3Dhidden%3Brotatable%3D0%3Bpoints%3D%5B%5B0%2C0.5%5D%2C%5B1%2C0.5%5D%5D%3BportConstraint%3Deastwest%3BwhiteSpace%3Dwrap%3Bhtml%3D1%3B%22%20vertex%3D%221%22%20parent%3D%222%22%3E%3CmxGeometry%20y%3D%2226%22%20width%3D%22500%22%20height%3D%2226%22%20as%3D%22geometry%22%2F%3E%3C%2FmxCell%3E%3CmxCell%20id%3D%224%22%20value%3D%22userId%26lt%3Bspan%20style%3D%26quot%3Bwhite-space%3A%20pre%3B%26quot%3B%26gt%3B%26%239%3B%26lt%3B%2Fspan%26gt%3B%26lt%3Bspan%20style%3D%26quot%3Bwhite-space%3A%20pre%3B%26quot%3B%26gt%3B%26%239%3B%26lt%3B%2Fspan%26gt%3B%E7%94%A8%E6%88%B7id%22%20style%3D%22text%3BstrokeColor%3Dnone%3BfillColor%3Dnone%3Balign%3Dleft%3BverticalAlign%3Dtop%3BspacingLeft%3D4%3BspacingRight%3D4%3Boverflow%3Dhidden%3Brotatable%3D0%3Bpoints%3D%5B%5B0%2C0.5%5D%2C%5B1%2C0.5%5D%5D%3BportConstraint%3Deastwest%3BwhiteSpace%3Dwrap%3Bhtml%3D1%3B%22%20vertex%3D%221%22%20parent%3D%222%22%3E%3CmxGeometry%20y%3D%2252%22%20width%3D%22500%22%20height%3D%2226%22%20as%3D%22geometry%22%2F%3E%3C%2FmxCell%3E%3CmxCell%20id%3D%225%22%20value%3D%22peerId%26lt%3Bspan%20style%3D%26quot%3Bwhite-space%3A%20pre%3B%26quot%3B%26gt%3B%26%239%3B%26lt%3B%2Fspan%26gt%3B%26lt%3Bspan%20style%3D%26quot%3Bwhite-space%3A%20pre%3B%26quot%3B%26gt%3B%26%239%3B%26lt%3B%2Fspan%26gt%3B%E5%AF%B9%E6%96%B9id%22%20style%3D%22text%3BstrokeColor%3Dnone%3BfillColor%3Dnone%3Balign%3Dleft%3BverticalAlign%3Dtop%3BspacingLeft%3D4%3BspacingRight%3D4%3Boverflow%3Dhidden%3Brotatable%3D0%3Bpoints%3D%5B%5B0%2C0.5%5D%2C%5B1%2C0.5%5D%5D%3BportConstraint%3Deastwest%3BwhiteSpace%3Dwrap%3Bhtml%3D1%3B%22%20vertex%3D%221%22%20parent%3D%222%22%3E%3CmxGeometry%20y%3D%2278%22%20width%3D%22500%22%20height%3D%2226%22%20as%3D%22geometry%22%2F%3E%3C%2FmxCell%3E%3CmxCell%20id%3D%226%22%20value%3D%22type%26lt%3Bspan%20style%3D%26quot%3Bwhite-space%3A%20pre%3B%26quot%3B%26gt%3B%26%239%3B%26lt%3B%2Fspan%26gt%3B%26lt%3Bspan%20style%3D%26quot%3Bwhite-space%3A%20pre%3B%26quot%3B%26gt%3B%26%239%3B%26lt%3B%2Fspan%26gt%3B%26lt%3Bspan%20style%3D%26quot%3Bwhite-space%3A%20pre%3B%26quot%3B%26gt%3B%26%239%3B%26lt%3B%2Fspan%26gt%3B%E7%B1%BB%E5%9E%8B%EF%BC%9A0-%E9%BB%98%E8%AE%A4%EF%BC%9B1-%E7%94%A8%E6%88%B7%EF%BC%9B2-%E7%BE%A4%E7%BB%84%22%20style%3D%22text%3BstrokeColor%3Dnone%3BfillColor%3Dnone%3Balign%3Dleft%3BverticalAlign%3Dtop%3BspacingLeft%3D4%3BspacingRight%3D4%3Boverflow%3Dhidden%3Brotatable%3D0%3Bpoints%3D%5B%5B0%2C0.5%5D%2C%5B1%2C0.5%5D%5D%3BportConstraint%3Deastwest%3BwhiteSpace%3Dwrap%3Bhtml%3D1%3B%22%20vertex%3D%221%22%20parent%3D%222%22%3E%3CmxGeometry%20y%3D%22104%22%20width%3D%22500%22%20height%3D%2226%22%20as%3D%22geometry%22%2F%3E%3C%2FmxCell%3E%3CmxCell%20id%3D%227%22%20value%3D%22status%26lt%3Bspan%20style%3D%26quot%3Bwhite-space%3A%20pre%3B%26quot%3B%26gt%3B%26%239%3B%26lt%3B%2Fspan%26gt%3B%26lt%3Bspan%20style%3D%26quot%3Bwhite-space%3A%20pre%3B%26quot%3B%26gt%3B%26%239%3B%26lt%3B%2Fspan%26gt%3B%E7%8A%B6%E6%80%81%EF%BC%9A%E7%94%A8%E6%88%B7%EF%BC%9A0-%E6%AD%A3%E5%B8%B8%EF%BC%9B1-%E7%94%A8%E6%88%B7A%E5%88%A0%E9%99%A4%EF%BC%9B%E7%BE%A4%E7%BB%84%EF%BC%9A0-%E6%AD%A3%E5%B8%B8%EF%BC%9B1-%E8%A2%AB%E5%88%A0%E9%99%A4%22%20style%3D%22text%3BstrokeColor%3Dnone%3BfillColor%3Dnone%3Balign%3Dleft%3BverticalAlign%3Dtop%3BspacingLeft%3D4%3BspacingRight%3D4%3Boverflow%3Dhidden%3Brotatable%3D0%3Bpoints%3D%5B%5B0%2C0.5%5D%2C%5B1%2C0.5%5D%5D%3BportConstraint%3Deastwest%3BwhiteSpace%3Dwrap%3Bhtml%3D1%3B%22%20vertex%3D%221%22%20parent%3D%222%22%3E%3CmxGeometry%20y%3D%22130%22%20width%3D%22500%22%20height%3D%2226%22%20as%3D%22geometry%22%2F%3E%3C%2FmxCell%3E%3CmxCell%20id%3D%228%22%20value%3D%22created%26lt%3Bspan%20style%3D%26quot%3Bwhite-space%3A%20pre%3B%26quot%3B%26gt%3B%26%239%3B%26lt%3B%2Fspan%26gt%3B%26lt%3Bspan%20style%3D%26quot%3Bwhite-space%3A%20pre%3B%26quot%3B%26gt%3B%26%239%3B%26lt%3B%2Fspan%26gt%3B%E5%88%9B%E5%BB%BA%E6%97%B6%E9%97%B4%22%20style%3D%22text%3BstrokeColor%3Dnone%3BfillColor%3Dnone%3Balign%3Dleft%3BverticalAlign%3Dtop%3BspacingLeft%3D4%3BspacingRight%3D4%3Boverflow%3Dhidden%3Brotatable%3D0%3Bpoints%3D%5B%5B0%2C0.5%5D%2C%5B1%2C0.5%5D%5D%3BportConstraint%3Deastwest%3BwhiteSpace%3Dwrap%3Bhtml%3D1%3B%22%20vertex%3D%221%22%20parent%3D%222%22%3E%3CmxGeometry%20y%3D%22156%22%20width%3D%22500%22%20height%3D%2226%22%20as%3D%22geometry%22%2F%3E%3C%2FmxCell%3E%3CmxCell%20id%3D%229%22%20value%3D%22updated%26lt%3Bspan%20style%3D%26quot%3Bwhite-space%3A%20pre%3B%26quot%3B%26gt%3B%26%239%3B%26lt%3B%2Fspan%26gt%3B%26lt%3Bspan%20style%3D%26quot%3Bwhite-space%3A%20pre%3B%26quot%3B%26gt%3B%26%239%3B%26lt%3B%2Fspan%26gt%3B%E6%9B%B4%E6%96%B0%E6%97%B6%E9%97%B4%22%20style%3D%22text%3BstrokeColor%3Dnone%3BfillColor%3Dnone%3Balign%3Dleft%3BverticalAlign%3Dtop%3BspacingLeft%3D4%3BspacingRight%3D4%3Boverflow%3Dhidden%3Brotatable%3D0%3Bpoints%3D%5B%5B0%2C0.5%5D%2C%5B1%2C0.5%5D%5D%3BportConstraint%3Deastwest%3BwhiteSpace%3Dwrap%3Bhtml%3D1%3B%22%20vertex%3D%221%22%20parent%3D%222%22%3E%3CmxGeometry%20y%3D%22182%22%20width%3D%22500%22%20height%3D%2226%22%20as%3D%22geometry%22%2F%3E%3C%2FmxCell%3E%3C%2Froot%3E%3C%2FmxGraphModel%3E&lt;/span&gt;" style="text;strokeColor=none;fillColor=none;align=left;verticalAlign=top;spacingLeft=4;spacingRight=4;overflow=hidden;rotatable=0;points=[[0,0.5],[1,0.5]];portConstraint=eastwest;whiteSpace=wrap;html=1;" parent="cNy02wjT9gQk6fJg44tr-15" vertex="1">
          <mxGeometry y="260" width="500" height="26" as="geometry" />
        </mxCell>
        <mxCell id="cNy02wjT9gQk6fJg44tr-26" value="sign_info&lt;span style=&quot;white-space: pre;&quot;&gt;&#x9;&lt;/span&gt;&lt;span style=&quot;white-space: pre;&quot;&gt;&#x9;&lt;/span&gt;个性签名&lt;span style=&quot;color: rgba(0, 0, 0, 0); font-family: monospace; font-size: 0px; text-wrap: nowrap;&quot;&gt;%3CmxGraphModel%3E%3Croot%3E%3CmxCell%20id%3D%220%22%2F%3E%3CmxCell%20id%3D%221%22%20parent%3D%220%22%2F%3E%3CmxCell%20id%3D%222%22%20value%3D%22%26lt%3Bb%26gt%3B%26lt%3Bfont%20style%3D%26quot%3Bfont-size%3A%2024px%3B%26quot%3B%26gt%3BIMRecentSession%26lt%3B%2Ffont%26gt%3B%26lt%3B%2Fb%26gt%3B%22%20style%3D%22swimlane%3BfontStyle%3D0%3BchildLayout%3DstackLayout%3Bhorizontal%3D1%3BstartSize%3D26%3BfillColor%3Dnone%3BhorizontalStack%3D0%3BresizeParent%3D1%3BresizeParentMax%3D0%3BresizeLast%3D0%3Bcollapsible%3D1%3BmarginBottom%3D0%3BwhiteSpace%3Dwrap%3Bhtml%3D1%3B%22%20vertex%3D%221%22%20parent%3D%221%22%3E%3CmxGeometry%20x%3D%22800%22%20y%3D%22206%22%20width%3D%22500%22%20height%3D%22208%22%20as%3D%22geometry%22%2F%3E%3C%2FmxCell%3E%3CmxCell%20id%3D%223%22%20value%3D%22id%26lt%3Bspan%20style%3D%26quot%3Bwhite-space%3A%20pre%3B%26quot%3B%26gt%3B%26%239%3B%26lt%3B%2Fspan%26gt%3B%26lt%3Bspan%20style%3D%26quot%3Bwhite-space%3A%20pre%3B%26quot%3B%26gt%3B%26%239%3B%26lt%3B%2Fspan%26gt%3B%26lt%3Bspan%20style%3D%26quot%3Bwhite-space%3A%20pre%3B%26quot%3B%26gt%3B%26%239%3B%26lt%3B%2Fspan%26gt%3B%E4%BC%9A%E8%AF%9Did%EF%BC%8C%E6%A0%87%E8%AF%86%E7%AC%A6%22%20style%3D%22text%3BstrokeColor%3Dnone%3BfillColor%3Dnone%3Balign%3Dleft%3BverticalAlign%3Dtop%3BspacingLeft%3D4%3BspacingRight%3D4%3Boverflow%3Dhidden%3Brotatable%3D0%3Bpoints%3D%5B%5B0%2C0.5%5D%2C%5B1%2C0.5%5D%5D%3BportConstraint%3Deastwest%3BwhiteSpace%3Dwrap%3Bhtml%3D1%3B%22%20vertex%3D%221%22%20parent%3D%222%22%3E%3CmxGeometry%20y%3D%2226%22%20width%3D%22500%22%20height%3D%2226%22%20as%3D%22geometry%22%2F%3E%3C%2FmxCell%3E%3CmxCell%20id%3D%224%22%20value%3D%22userId%26lt%3Bspan%20style%3D%26quot%3Bwhite-space%3A%20pre%3B%26quot%3B%26gt%3B%26%239%3B%26lt%3B%2Fspan%26gt%3B%26lt%3Bspan%20style%3D%26quot%3Bwhite-space%3A%20pre%3B%26quot%3B%26gt%3B%26%239%3B%26lt%3B%2Fspan%26gt%3B%E7%94%A8%E6%88%B7id%22%20style%3D%22text%3BstrokeColor%3Dnone%3BfillColor%3Dnone%3Balign%3Dleft%3BverticalAlign%3Dtop%3BspacingLeft%3D4%3BspacingRight%3D4%3Boverflow%3Dhidden%3Brotatable%3D0%3Bpoints%3D%5B%5B0%2C0.5%5D%2C%5B1%2C0.5%5D%5D%3BportConstraint%3Deastwest%3BwhiteSpace%3Dwrap%3Bhtml%3D1%3B%22%20vertex%3D%221%22%20parent%3D%222%22%3E%3CmxGeometry%20y%3D%2252%22%20width%3D%22500%22%20height%3D%2226%22%20as%3D%22geometry%22%2F%3E%3C%2FmxCell%3E%3CmxCell%20id%3D%225%22%20value%3D%22peerId%26lt%3Bspan%20style%3D%26quot%3Bwhite-space%3A%20pre%3B%26quot%3B%26gt%3B%26%239%3B%26lt%3B%2Fspan%26gt%3B%26lt%3Bspan%20style%3D%26quot%3Bwhite-space%3A%20pre%3B%26quot%3B%26gt%3B%26%239%3B%26lt%3B%2Fspan%26gt%3B%E5%AF%B9%E6%96%B9id%22%20style%3D%22text%3BstrokeColor%3Dnone%3BfillColor%3Dnone%3Balign%3Dleft%3BverticalAlign%3Dtop%3BspacingLeft%3D4%3BspacingRight%3D4%3Boverflow%3Dhidden%3Brotatable%3D0%3Bpoints%3D%5B%5B0%2C0.5%5D%2C%5B1%2C0.5%5D%5D%3BportConstraint%3Deastwest%3BwhiteSpace%3Dwrap%3Bhtml%3D1%3B%22%20vertex%3D%221%22%20parent%3D%222%22%3E%3CmxGeometry%20y%3D%2278%22%20width%3D%22500%22%20height%3D%2226%22%20as%3D%22geometry%22%2F%3E%3C%2FmxCell%3E%3CmxCell%20id%3D%226%22%20value%3D%22type%26lt%3Bspan%20style%3D%26quot%3Bwhite-space%3A%20pre%3B%26quot%3B%26gt%3B%26%239%3B%26lt%3B%2Fspan%26gt%3B%26lt%3Bspan%20style%3D%26quot%3Bwhite-space%3A%20pre%3B%26quot%3B%26gt%3B%26%239%3B%26lt%3B%2Fspan%26gt%3B%26lt%3Bspan%20style%3D%26quot%3Bwhite-space%3A%20pre%3B%26quot%3B%26gt%3B%26%239%3B%26lt%3B%2Fspan%26gt%3B%E7%B1%BB%E5%9E%8B%EF%BC%9A0-%E9%BB%98%E8%AE%A4%EF%BC%9B1-%E7%94%A8%E6%88%B7%EF%BC%9B2-%E7%BE%A4%E7%BB%84%22%20style%3D%22text%3BstrokeColor%3Dnone%3BfillColor%3Dnone%3Balign%3Dleft%3BverticalAlign%3Dtop%3BspacingLeft%3D4%3BspacingRight%3D4%3Boverflow%3Dhidden%3Brotatable%3D0%3Bpoints%3D%5B%5B0%2C0.5%5D%2C%5B1%2C0.5%5D%5D%3BportConstraint%3Deastwest%3BwhiteSpace%3Dwrap%3Bhtml%3D1%3B%22%20vertex%3D%221%22%20parent%3D%222%22%3E%3CmxGeometry%20y%3D%22104%22%20width%3D%22500%22%20height%3D%2226%22%20as%3D%22geometry%22%2F%3E%3C%2FmxCell%3E%3CmxCell%20id%3D%227%22%20value%3D%22status%26lt%3Bspan%20style%3D%26quot%3Bwhite-space%3A%20pre%3B%26quot%3B%26gt%3B%26%239%3B%26lt%3B%2Fspan%26gt%3B%26lt%3Bspan%20style%3D%26quot%3Bwhite-space%3A%20pre%3B%26quot%3B%26gt%3B%26%239%3B%26lt%3B%2Fspan%26gt%3B%E7%8A%B6%E6%80%81%EF%BC%9A%E7%94%A8%E6%88%B7%EF%BC%9A0-%E6%AD%A3%E5%B8%B8%EF%BC%9B1-%E7%94%A8%E6%88%B7A%E5%88%A0%E9%99%A4%EF%BC%9B%E7%BE%A4%E7%BB%84%EF%BC%9A0-%E6%AD%A3%E5%B8%B8%EF%BC%9B1-%E8%A2%AB%E5%88%A0%E9%99%A4%22%20style%3D%22text%3BstrokeColor%3Dnone%3BfillColor%3Dnone%3Balign%3Dleft%3BverticalAlign%3Dtop%3BspacingLeft%3D4%3BspacingRight%3D4%3Boverflow%3Dhidden%3Brotatable%3D0%3Bpoints%3D%5B%5B0%2C0.5%5D%2C%5B1%2C0.5%5D%5D%3BportConstraint%3Deastwest%3BwhiteSpace%3Dwrap%3Bhtml%3D1%3B%22%20vertex%3D%221%22%20parent%3D%222%22%3E%3CmxGeometry%20y%3D%22130%22%20width%3D%22500%22%20height%3D%2226%22%20as%3D%22geometry%22%2F%3E%3C%2FmxCell%3E%3CmxCell%20id%3D%228%22%20value%3D%22created%26lt%3Bspan%20style%3D%26quot%3Bwhite-space%3A%20pre%3B%26quot%3B%26gt%3B%26%239%3B%26lt%3B%2Fspan%26gt%3B%26lt%3Bspan%20style%3D%26quot%3Bwhite-space%3A%20pre%3B%26quot%3B%26gt%3B%26%239%3B%26lt%3B%2Fspan%26gt%3B%E5%88%9B%E5%BB%BA%E6%97%B6%E9%97%B4%22%20style%3D%22text%3BstrokeColor%3Dnone%3BfillColor%3Dnone%3Balign%3Dleft%3BverticalAlign%3Dtop%3BspacingLeft%3D4%3BspacingRight%3D4%3Boverflow%3Dhidden%3Brotatable%3D0%3Bpoints%3D%5B%5B0%2C0.5%5D%2C%5B1%2C0.5%5D%5D%3BportConstraint%3Deastwest%3BwhiteSpace%3Dwrap%3Bhtml%3D1%3B%22%20vertex%3D%221%22%20parent%3D%222%22%3E%3CmxGeometry%20y%3D%22156%22%20width%3D%22500%22%20height%3D%2226%22%20as%3D%22geometry%22%2F%3E%3C%2FmxCell%3E%3CmxCell%20id%3D%229%22%20value%3D%22updated%26lt%3Bspan%20style%3D%26quot%3Bwhite-space%3A%20pre%3B%26quot%3B%26gt%3B%26%239%3B%26lt%3B%2Fspan%26gt%3B%26lt%3Bspan%20style%3D%26quot%3Bwhite-space%3A%20pre%3B%26quot%3B%26gt%3B%26%239%3B%26lt%3B%2Fspan%26gt%3B%E6%9B%B4%E6%96%B0%E6%97%B6%E9%97%B4%22%20style%3D%22text%3BstrokeColor%3Dnone%3BfillColor%3Dnone%3Balign%3Dleft%3BverticalAlign%3Dtop%3BspacingLeft%3D4%3BspacingRight%3D4%3Boverflow%3Dhidden%3Brotatable%3D0%3Bpoints%3D%5B%5B0%2C0.5%5D%2C%5B1%2C0.5%5D%5D%3BportConstraint%3Deastwest%3BwhiteSpace%3Dwrap%3Bhtml%3D1%3B%22%20vertex%3D%221%22%20parent%3D%222%22%3E%3CmxGeometry%20y%3D%22182%22%20width%3D%22500%22%20height%3D%2226%22%20as%3D%22geometry%22%2F%3E%3C%2FmxCell%3E%3C%2Froot%3E%3C%2FmxGraphModel%3E&lt;/span&gt;" style="text;strokeColor=none;fillColor=none;align=left;verticalAlign=top;spacingLeft=4;spacingRight=4;overflow=hidden;rotatable=0;points=[[0,0.5],[1,0.5]];portConstraint=eastwest;whiteSpace=wrap;html=1;" parent="cNy02wjT9gQk6fJg44tr-15" vertex="1">
          <mxGeometry y="286" width="500" height="26" as="geometry" />
        </mxCell>
        <mxCell id="cNy02wjT9gQk6fJg44tr-41" value="created&lt;span style=&quot;white-space: pre;&quot;&gt;&#x9;&lt;/span&gt;&lt;span style=&quot;white-space: pre;&quot;&gt;&#x9;&lt;/span&gt;创建时间&lt;span style=&quot;color: rgba(0, 0, 0, 0); font-family: monospace; font-size: 0px; text-wrap: nowrap;&quot;&gt;%3CmxGraphModel%3E%3Croot%3E%3CmxCell%20id%3D%220%22%2F%3E%3CmxCell%20id%3D%221%22%20parent%3D%220%22%2F%3E%3CmxCell%20id%3D%222%22%20value%3D%22%26lt%3Bb%26gt%3B%26lt%3Bfont%20style%3D%26quot%3Bfont-size%3A%2024px%3B%26quot%3B%26gt%3BIMRecentSession%26lt%3B%2Ffont%26gt%3B%26lt%3B%2Fb%26gt%3B%22%20style%3D%22swimlane%3BfontStyle%3D0%3BchildLayout%3DstackLayout%3Bhorizontal%3D1%3BstartSize%3D26%3BfillColor%3Dnone%3BhorizontalStack%3D0%3BresizeParent%3D1%3BresizeParentMax%3D0%3BresizeLast%3D0%3Bcollapsible%3D1%3BmarginBottom%3D0%3BwhiteSpace%3Dwrap%3Bhtml%3D1%3B%22%20vertex%3D%221%22%20parent%3D%221%22%3E%3CmxGeometry%20x%3D%22800%22%20y%3D%22206%22%20width%3D%22500%22%20height%3D%22208%22%20as%3D%22geometry%22%2F%3E%3C%2FmxCell%3E%3CmxCell%20id%3D%223%22%20value%3D%22id%26lt%3Bspan%20style%3D%26quot%3Bwhite-space%3A%20pre%3B%26quot%3B%26gt%3B%26%239%3B%26lt%3B%2Fspan%26gt%3B%26lt%3Bspan%20style%3D%26quot%3Bwhite-space%3A%20pre%3B%26quot%3B%26gt%3B%26%239%3B%26lt%3B%2Fspan%26gt%3B%26lt%3Bspan%20style%3D%26quot%3Bwhite-space%3A%20pre%3B%26quot%3B%26gt%3B%26%239%3B%26lt%3B%2Fspan%26gt%3B%E4%BC%9A%E8%AF%9Did%EF%BC%8C%E6%A0%87%E8%AF%86%E7%AC%A6%22%20style%3D%22text%3BstrokeColor%3Dnone%3BfillColor%3Dnone%3Balign%3Dleft%3BverticalAlign%3Dtop%3BspacingLeft%3D4%3BspacingRight%3D4%3Boverflow%3Dhidden%3Brotatable%3D0%3Bpoints%3D%5B%5B0%2C0.5%5D%2C%5B1%2C0.5%5D%5D%3BportConstraint%3Deastwest%3BwhiteSpace%3Dwrap%3Bhtml%3D1%3B%22%20vertex%3D%221%22%20parent%3D%222%22%3E%3CmxGeometry%20y%3D%2226%22%20width%3D%22500%22%20height%3D%2226%22%20as%3D%22geometry%22%2F%3E%3C%2FmxCell%3E%3CmxCell%20id%3D%224%22%20value%3D%22userId%26lt%3Bspan%20style%3D%26quot%3Bwhite-space%3A%20pre%3B%26quot%3B%26gt%3B%26%239%3B%26lt%3B%2Fspan%26gt%3B%26lt%3Bspan%20style%3D%26quot%3Bwhite-space%3A%20pre%3B%26quot%3B%26gt%3B%26%239%3B%26lt%3B%2Fspan%26gt%3B%E7%94%A8%E6%88%B7id%22%20style%3D%22text%3BstrokeColor%3Dnone%3BfillColor%3Dnone%3Balign%3Dleft%3BverticalAlign%3Dtop%3BspacingLeft%3D4%3BspacingRight%3D4%3Boverflow%3Dhidden%3Brotatable%3D0%3Bpoints%3D%5B%5B0%2C0.5%5D%2C%5B1%2C0.5%5D%5D%3BportConstraint%3Deastwest%3BwhiteSpace%3Dwrap%3Bhtml%3D1%3B%22%20vertex%3D%221%22%20parent%3D%222%22%3E%3CmxGeometry%20y%3D%2252%22%20width%3D%22500%22%20height%3D%2226%22%20as%3D%22geometry%22%2F%3E%3C%2FmxCell%3E%3CmxCell%20id%3D%225%22%20value%3D%22peerId%26lt%3Bspan%20style%3D%26quot%3Bwhite-space%3A%20pre%3B%26quot%3B%26gt%3B%26%239%3B%26lt%3B%2Fspan%26gt%3B%26lt%3Bspan%20style%3D%26quot%3Bwhite-space%3A%20pre%3B%26quot%3B%26gt%3B%26%239%3B%26lt%3B%2Fspan%26gt%3B%E5%AF%B9%E6%96%B9id%22%20style%3D%22text%3BstrokeColor%3Dnone%3BfillColor%3Dnone%3Balign%3Dleft%3BverticalAlign%3Dtop%3BspacingLeft%3D4%3BspacingRight%3D4%3Boverflow%3Dhidden%3Brotatable%3D0%3Bpoints%3D%5B%5B0%2C0.5%5D%2C%5B1%2C0.5%5D%5D%3BportConstraint%3Deastwest%3BwhiteSpace%3Dwrap%3Bhtml%3D1%3B%22%20vertex%3D%221%22%20parent%3D%222%22%3E%3CmxGeometry%20y%3D%2278%22%20width%3D%22500%22%20height%3D%2226%22%20as%3D%22geometry%22%2F%3E%3C%2FmxCell%3E%3CmxCell%20id%3D%226%22%20value%3D%22type%26lt%3Bspan%20style%3D%26quot%3Bwhite-space%3A%20pre%3B%26quot%3B%26gt%3B%26%239%3B%26lt%3B%2Fspan%26gt%3B%26lt%3Bspan%20style%3D%26quot%3Bwhite-space%3A%20pre%3B%26quot%3B%26gt%3B%26%239%3B%26lt%3B%2Fspan%26gt%3B%26lt%3Bspan%20style%3D%26quot%3Bwhite-space%3A%20pre%3B%26quot%3B%26gt%3B%26%239%3B%26lt%3B%2Fspan%26gt%3B%E7%B1%BB%E5%9E%8B%EF%BC%9A0-%E9%BB%98%E8%AE%A4%EF%BC%9B1-%E7%94%A8%E6%88%B7%EF%BC%9B2-%E7%BE%A4%E7%BB%84%22%20style%3D%22text%3BstrokeColor%3Dnone%3BfillColor%3Dnone%3Balign%3Dleft%3BverticalAlign%3Dtop%3BspacingLeft%3D4%3BspacingRight%3D4%3Boverflow%3Dhidden%3Brotatable%3D0%3Bpoints%3D%5B%5B0%2C0.5%5D%2C%5B1%2C0.5%5D%5D%3BportConstraint%3Deastwest%3BwhiteSpace%3Dwrap%3Bhtml%3D1%3B%22%20vertex%3D%221%22%20parent%3D%222%22%3E%3CmxGeometry%20y%3D%22104%22%20width%3D%22500%22%20height%3D%2226%22%20as%3D%22geometry%22%2F%3E%3C%2FmxCell%3E%3CmxCell%20id%3D%227%22%20value%3D%22status%26lt%3Bspan%20style%3D%26quot%3Bwhite-space%3A%20pre%3B%26quot%3B%26gt%3B%26%239%3B%26lt%3B%2Fspan%26gt%3B%26lt%3Bspan%20style%3D%26quot%3Bwhite-space%3A%20pre%3B%26quot%3B%26gt%3B%26%239%3B%26lt%3B%2Fspan%26gt%3B%E7%8A%B6%E6%80%81%EF%BC%9A%E7%94%A8%E6%88%B7%EF%BC%9A0-%E6%AD%A3%E5%B8%B8%EF%BC%9B1-%E7%94%A8%E6%88%B7A%E5%88%A0%E9%99%A4%EF%BC%9B%E7%BE%A4%E7%BB%84%EF%BC%9A0-%E6%AD%A3%E5%B8%B8%EF%BC%9B1-%E8%A2%AB%E5%88%A0%E9%99%A4%22%20style%3D%22text%3BstrokeColor%3Dnone%3BfillColor%3Dnone%3Balign%3Dleft%3BverticalAlign%3Dtop%3BspacingLeft%3D4%3BspacingRight%3D4%3Boverflow%3Dhidden%3Brotatable%3D0%3Bpoints%3D%5B%5B0%2C0.5%5D%2C%5B1%2C0.5%5D%5D%3BportConstraint%3Deastwest%3BwhiteSpace%3Dwrap%3Bhtml%3D1%3B%22%20vertex%3D%221%22%20parent%3D%222%22%3E%3CmxGeometry%20y%3D%22130%22%20width%3D%22500%22%20height%3D%2226%22%20as%3D%22geometry%22%2F%3E%3C%2FmxCell%3E%3CmxCell%20id%3D%228%22%20value%3D%22created%26lt%3Bspan%20style%3D%26quot%3Bwhite-space%3A%20pre%3B%26quot%3B%26gt%3B%26%239%3B%26lt%3B%2Fspan%26gt%3B%26lt%3Bspan%20style%3D%26quot%3Bwhite-space%3A%20pre%3B%26quot%3B%26gt%3B%26%239%3B%26lt%3B%2Fspan%26gt%3B%E5%88%9B%E5%BB%BA%E6%97%B6%E9%97%B4%22%20style%3D%22text%3BstrokeColor%3Dnone%3BfillColor%3Dnone%3Balign%3Dleft%3BverticalAlign%3Dtop%3BspacingLeft%3D4%3BspacingRight%3D4%3Boverflow%3Dhidden%3Brotatable%3D0%3Bpoints%3D%5B%5B0%2C0.5%5D%2C%5B1%2C0.5%5D%5D%3BportConstraint%3Deastwest%3BwhiteSpace%3Dwrap%3Bhtml%3D1%3B%22%20vertex%3D%221%22%20parent%3D%222%22%3E%3CmxGeometry%20y%3D%22156%22%20width%3D%22500%22%20height%3D%2226%22%20as%3D%22geometry%22%2F%3E%3C%2FmxCell%3E%3CmxCell%20id%3D%229%22%20value%3D%22updated%26lt%3Bspan%20style%3D%26quot%3Bwhite-space%3A%20pre%3B%26quot%3B%26gt%3B%26%239%3B%26lt%3B%2Fspan%26gt%3B%26lt%3Bspan%20style%3D%26quot%3Bwhite-space%3A%20pre%3B%26quot%3B%26gt%3B%26%239%3B%26lt%3B%2Fspan%26gt%3B%E6%9B%B4%E6%96%B0%E6%97%B6%E9%97%B4%22%20style%3D%22text%3BstrokeColor%3Dnone%3BfillColor%3Dnone%3Balign%3Dleft%3BverticalAlign%3Dtop%3BspacingLeft%3D4%3BspacingRight%3D4%3Boverflow%3Dhidden%3Brotatable%3D0%3Bpoints%3D%5B%5B0%2C0.5%5D%2C%5B1%2C0.5%5D%5D%3BportConstraint%3Deastwest%3BwhiteSpace%3Dwrap%3Bhtml%3D1%3B%22%20vertex%3D%221%22%20parent%3D%222%22%3E%3CmxGeometry%20y%3D%22182%22%20width%3D%22500%22%20height%3D%2226%22%20as%3D%22geometry%22%2F%3E%3C%2FmxCell%3E%3C%2Froot%3E%3C%2FmxGraphModel%3E&lt;/span&gt;" style="text;strokeColor=none;fillColor=none;align=left;verticalAlign=top;spacingLeft=4;spacingRight=4;overflow=hidden;rotatable=0;points=[[0,0.5],[1,0.5]];portConstraint=eastwest;whiteSpace=wrap;html=1;" parent="cNy02wjT9gQk6fJg44tr-15" vertex="1">
          <mxGeometry y="312" width="500" height="26" as="geometry" />
        </mxCell>
        <mxCell id="cNy02wjT9gQk6fJg44tr-42" value="updated&lt;span style=&quot;white-space: pre;&quot;&gt;&#x9;&lt;/span&gt;&lt;span style=&quot;white-space: pre;&quot;&gt;&#x9;&lt;/span&gt;更新时间&lt;span style=&quot;color: rgba(0, 0, 0, 0); font-family: monospace; font-size: 0px; text-wrap: nowrap;&quot;&gt;%3CmxGraphModel%3E%3Croot%3E%3CmxCell%20id%3D%220%22%2F%3E%3CmxCell%20id%3D%221%22%20parent%3D%220%22%2F%3E%3CmxCell%20id%3D%222%22%20value%3D%22%26lt%3Bb%26gt%3B%26lt%3Bfont%20style%3D%26quot%3Bfont-size%3A%2024px%3B%26quot%3B%26gt%3BIMRecentSession%26lt%3B%2Ffont%26gt%3B%26lt%3B%2Fb%26gt%3B%22%20style%3D%22swimlane%3BfontStyle%3D0%3BchildLayout%3DstackLayout%3Bhorizontal%3D1%3BstartSize%3D26%3BfillColor%3Dnone%3BhorizontalStack%3D0%3BresizeParent%3D1%3BresizeParentMax%3D0%3BresizeLast%3D0%3Bcollapsible%3D1%3BmarginBottom%3D0%3BwhiteSpace%3Dwrap%3Bhtml%3D1%3B%22%20vertex%3D%221%22%20parent%3D%221%22%3E%3CmxGeometry%20x%3D%22800%22%20y%3D%22206%22%20width%3D%22500%22%20height%3D%22208%22%20as%3D%22geometry%22%2F%3E%3C%2FmxCell%3E%3CmxCell%20id%3D%223%22%20value%3D%22id%26lt%3Bspan%20style%3D%26quot%3Bwhite-space%3A%20pre%3B%26quot%3B%26gt%3B%26%239%3B%26lt%3B%2Fspan%26gt%3B%26lt%3Bspan%20style%3D%26quot%3Bwhite-space%3A%20pre%3B%26quot%3B%26gt%3B%26%239%3B%26lt%3B%2Fspan%26gt%3B%26lt%3Bspan%20style%3D%26quot%3Bwhite-space%3A%20pre%3B%26quot%3B%26gt%3B%26%239%3B%26lt%3B%2Fspan%26gt%3B%E4%BC%9A%E8%AF%9Did%EF%BC%8C%E6%A0%87%E8%AF%86%E7%AC%A6%22%20style%3D%22text%3BstrokeColor%3Dnone%3BfillColor%3Dnone%3Balign%3Dleft%3BverticalAlign%3Dtop%3BspacingLeft%3D4%3BspacingRight%3D4%3Boverflow%3Dhidden%3Brotatable%3D0%3Bpoints%3D%5B%5B0%2C0.5%5D%2C%5B1%2C0.5%5D%5D%3BportConstraint%3Deastwest%3BwhiteSpace%3Dwrap%3Bhtml%3D1%3B%22%20vertex%3D%221%22%20parent%3D%222%22%3E%3CmxGeometry%20y%3D%2226%22%20width%3D%22500%22%20height%3D%2226%22%20as%3D%22geometry%22%2F%3E%3C%2FmxCell%3E%3CmxCell%20id%3D%224%22%20value%3D%22userId%26lt%3Bspan%20style%3D%26quot%3Bwhite-space%3A%20pre%3B%26quot%3B%26gt%3B%26%239%3B%26lt%3B%2Fspan%26gt%3B%26lt%3Bspan%20style%3D%26quot%3Bwhite-space%3A%20pre%3B%26quot%3B%26gt%3B%26%239%3B%26lt%3B%2Fspan%26gt%3B%E7%94%A8%E6%88%B7id%22%20style%3D%22text%3BstrokeColor%3Dnone%3BfillColor%3Dnone%3Balign%3Dleft%3BverticalAlign%3Dtop%3BspacingLeft%3D4%3BspacingRight%3D4%3Boverflow%3Dhidden%3Brotatable%3D0%3Bpoints%3D%5B%5B0%2C0.5%5D%2C%5B1%2C0.5%5D%5D%3BportConstraint%3Deastwest%3BwhiteSpace%3Dwrap%3Bhtml%3D1%3B%22%20vertex%3D%221%22%20parent%3D%222%22%3E%3CmxGeometry%20y%3D%2252%22%20width%3D%22500%22%20height%3D%2226%22%20as%3D%22geometry%22%2F%3E%3C%2FmxCell%3E%3CmxCell%20id%3D%225%22%20value%3D%22peerId%26lt%3Bspan%20style%3D%26quot%3Bwhite-space%3A%20pre%3B%26quot%3B%26gt%3B%26%239%3B%26lt%3B%2Fspan%26gt%3B%26lt%3Bspan%20style%3D%26quot%3Bwhite-space%3A%20pre%3B%26quot%3B%26gt%3B%26%239%3B%26lt%3B%2Fspan%26gt%3B%E5%AF%B9%E6%96%B9id%22%20style%3D%22text%3BstrokeColor%3Dnone%3BfillColor%3Dnone%3Balign%3Dleft%3BverticalAlign%3Dtop%3BspacingLeft%3D4%3BspacingRight%3D4%3Boverflow%3Dhidden%3Brotatable%3D0%3Bpoints%3D%5B%5B0%2C0.5%5D%2C%5B1%2C0.5%5D%5D%3BportConstraint%3Deastwest%3BwhiteSpace%3Dwrap%3Bhtml%3D1%3B%22%20vertex%3D%221%22%20parent%3D%222%22%3E%3CmxGeometry%20y%3D%2278%22%20width%3D%22500%22%20height%3D%2226%22%20as%3D%22geometry%22%2F%3E%3C%2FmxCell%3E%3CmxCell%20id%3D%226%22%20value%3D%22type%26lt%3Bspan%20style%3D%26quot%3Bwhite-space%3A%20pre%3B%26quot%3B%26gt%3B%26%239%3B%26lt%3B%2Fspan%26gt%3B%26lt%3Bspan%20style%3D%26quot%3Bwhite-space%3A%20pre%3B%26quot%3B%26gt%3B%26%239%3B%26lt%3B%2Fspan%26gt%3B%26lt%3Bspan%20style%3D%26quot%3Bwhite-space%3A%20pre%3B%26quot%3B%26gt%3B%26%239%3B%26lt%3B%2Fspan%26gt%3B%E7%B1%BB%E5%9E%8B%EF%BC%9A0-%E9%BB%98%E8%AE%A4%EF%BC%9B1-%E7%94%A8%E6%88%B7%EF%BC%9B2-%E7%BE%A4%E7%BB%84%22%20style%3D%22text%3BstrokeColor%3Dnone%3BfillColor%3Dnone%3Balign%3Dleft%3BverticalAlign%3Dtop%3BspacingLeft%3D4%3BspacingRight%3D4%3Boverflow%3Dhidden%3Brotatable%3D0%3Bpoints%3D%5B%5B0%2C0.5%5D%2C%5B1%2C0.5%5D%5D%3BportConstraint%3Deastwest%3BwhiteSpace%3Dwrap%3Bhtml%3D1%3B%22%20vertex%3D%221%22%20parent%3D%222%22%3E%3CmxGeometry%20y%3D%22104%22%20width%3D%22500%22%20height%3D%2226%22%20as%3D%22geometry%22%2F%3E%3C%2FmxCell%3E%3CmxCell%20id%3D%227%22%20value%3D%22status%26lt%3Bspan%20style%3D%26quot%3Bwhite-space%3A%20pre%3B%26quot%3B%26gt%3B%26%239%3B%26lt%3B%2Fspan%26gt%3B%26lt%3Bspan%20style%3D%26quot%3Bwhite-space%3A%20pre%3B%26quot%3B%26gt%3B%26%239%3B%26lt%3B%2Fspan%26gt%3B%E7%8A%B6%E6%80%81%EF%BC%9A%E7%94%A8%E6%88%B7%EF%BC%9A0-%E6%AD%A3%E5%B8%B8%EF%BC%9B1-%E7%94%A8%E6%88%B7A%E5%88%A0%E9%99%A4%EF%BC%9B%E7%BE%A4%E7%BB%84%EF%BC%9A0-%E6%AD%A3%E5%B8%B8%EF%BC%9B1-%E8%A2%AB%E5%88%A0%E9%99%A4%22%20style%3D%22text%3BstrokeColor%3Dnone%3BfillColor%3Dnone%3Balign%3Dleft%3BverticalAlign%3Dtop%3BspacingLeft%3D4%3BspacingRight%3D4%3Boverflow%3Dhidden%3Brotatable%3D0%3Bpoints%3D%5B%5B0%2C0.5%5D%2C%5B1%2C0.5%5D%5D%3BportConstraint%3Deastwest%3BwhiteSpace%3Dwrap%3Bhtml%3D1%3B%22%20vertex%3D%221%22%20parent%3D%222%22%3E%3CmxGeometry%20y%3D%22130%22%20width%3D%22500%22%20height%3D%2226%22%20as%3D%22geometry%22%2F%3E%3C%2FmxCell%3E%3CmxCell%20id%3D%228%22%20value%3D%22created%26lt%3Bspan%20style%3D%26quot%3Bwhite-space%3A%20pre%3B%26quot%3B%26gt%3B%26%239%3B%26lt%3B%2Fspan%26gt%3B%26lt%3Bspan%20style%3D%26quot%3Bwhite-space%3A%20pre%3B%26quot%3B%26gt%3B%26%239%3B%26lt%3B%2Fspan%26gt%3B%E5%88%9B%E5%BB%BA%E6%97%B6%E9%97%B4%22%20style%3D%22text%3BstrokeColor%3Dnone%3BfillColor%3Dnone%3Balign%3Dleft%3BverticalAlign%3Dtop%3BspacingLeft%3D4%3BspacingRight%3D4%3Boverflow%3Dhidden%3Brotatable%3D0%3Bpoints%3D%5B%5B0%2C0.5%5D%2C%5B1%2C0.5%5D%5D%3BportConstraint%3Deastwest%3BwhiteSpace%3Dwrap%3Bhtml%3D1%3B%22%20vertex%3D%221%22%20parent%3D%222%22%3E%3CmxGeometry%20y%3D%22156%22%20width%3D%22500%22%20height%3D%2226%22%20as%3D%22geometry%22%2F%3E%3C%2FmxCell%3E%3CmxCell%20id%3D%229%22%20value%3D%22updated%26lt%3Bspan%20style%3D%26quot%3Bwhite-space%3A%20pre%3B%26quot%3B%26gt%3B%26%239%3B%26lt%3B%2Fspan%26gt%3B%26lt%3Bspan%20style%3D%26quot%3Bwhite-space%3A%20pre%3B%26quot%3B%26gt%3B%26%239%3B%26lt%3B%2Fspan%26gt%3B%E6%9B%B4%E6%96%B0%E6%97%B6%E9%97%B4%22%20style%3D%22text%3BstrokeColor%3Dnone%3BfillColor%3Dnone%3Balign%3Dleft%3BverticalAlign%3Dtop%3BspacingLeft%3D4%3BspacingRight%3D4%3Boverflow%3Dhidden%3Brotatable%3D0%3Bpoints%3D%5B%5B0%2C0.5%5D%2C%5B1%2C0.5%5D%5D%3BportConstraint%3Deastwest%3BwhiteSpace%3Dwrap%3Bhtml%3D1%3B%22%20vertex%3D%221%22%20parent%3D%222%22%3E%3CmxGeometry%20y%3D%22182%22%20width%3D%22500%22%20height%3D%2226%22%20as%3D%22geometry%22%2F%3E%3C%2FmxCell%3E%3C%2Froot%3E%3C%2FmxGraphModel%3E&lt;/span&gt;" style="text;strokeColor=none;fillColor=none;align=left;verticalAlign=top;spacingLeft=4;spacingRight=4;overflow=hidden;rotatable=0;points=[[0,0.5],[1,0.5]];portConstraint=eastwest;whiteSpace=wrap;html=1;" parent="cNy02wjT9gQk6fJg44tr-15" vertex="1">
          <mxGeometry y="338" width="500" height="26" as="geometry" />
        </mxCell>
        <mxCell id="cNy02wjT9gQk6fJg44tr-44" value="&lt;font style=&quot;font-size: 18px;&quot;&gt;teamtalk_master&lt;/font&gt;" style="text;align=center;fontStyle=1;verticalAlign=middle;spacingLeft=3;spacingRight=3;strokeColor=none;rotatable=0;points=[[0,0.5],[1,0.5]];portConstraint=eastwest;html=1;" parent="1" vertex="1">
          <mxGeometry x="1480" y="120" width="80" height="26" as="geometry" />
        </mxCell>
        <mxCell id="4FZqM-bikuzlJvexATYJ-1" value="" style="shape=image;verticalLabelPosition=bottom;labelBackgroundColor=default;verticalAlign=top;aspect=fixed;imageAspect=0;image=data:image/png,iVBORw0KGgoAAAANSUhEUgAAAYsAAAB6CAYAAABOWX+DAAAdFklEQVR4Ae1dPZbcuM59y5lgQmdf8sJ3JppwdtCBF+DIgTfQWcfuxJGz3sAsrb4DgCABEBSlatWPqm7gU1USCYLAxb2Q3KX6zx9/fjnhH2IADAADwAAwsISB/yydxDmABxgABoABYIAwALHAlRWuLIEBYAAYmGIAYgGQTEGCzhKdJTAADEAsIBYQC2AAGAAGphiAWAAkU5Cgq0RXCQwAAxALiAXE4toY+Pv19PPj39Pvt2/Hi736/vFx+v43CPSZRBRisYYovr6fflNxu3/vpxee+8/p+69/T79/vZ7+Ultl/OtXKqZy3s69J5Lg4te9ZMX/7fRqfP/545/9CI7iZOOm8dvjddG23xPlVXKV7f8Cx5Rwd8XBNXAma+yKgT1yDRv71eRCLCEWC8HpugYWgUisRDwfp5+/2vGXN/qsBCQF1shIiOpuCm5JLAqpWV//+vG+X0e5SOifJOmh7UclvGvgTLCOK4pPYnML59zR2G1iQQX49iqdNF2Gfi2X06479F2bJRomXybc1qX78wL41sE3Ahbi9rbjZfxfPz5C9+8v9f35aHsFANj3OI98ej99//FRutNvp9e3b6eXt39PsrdYxBlZ+X35mJBf/rzvxkPMXLcqvr1oJ0tXCDVXwWa9emi3F2gPMcZOQK1dmm/XZqx8O9mY133FeXVtG9uwr+p3y5O1Xa8OZrb5fNuj208tTB+b6reeX8TwF7fn6leZyzEt++3s/rk8l/ZLc6yN1oSswJnzu49BjGfDisac4tLPy2Ooc/D6KPHZLhblkl0AS8VtARSJUIquAdqO7UHEYLWEo8VZC82SSbAdSID9swQTiJ7XsufDWmmCgw0ZQ368n5iQyfev7ywatL6QQSjiQmYtJmtiprb6mPE+a8xyW7/JP95fiBkdY3/0vLWfjHUxiuflcyVAJSb1LYsdHRvkwF/BxH0pqWZ+lz0MbYut30PSi2tl+1wgzGE8bWy/mGbCHI8x4s9tLSVzjbHHsPhdcRVxxp+bLcJpw8UXxm33ucsNxcLYcHgw+8Dxq9wWSjnqgrHfLhYFQI0MDYAIkAFgXgACoYSNSTEsEEAY33wo5GHXDsVAY2shsR3jd7A7TEKwyeMqOVCxvp9e38T/5puSk15NhWKbxMwTQixI2kOIF/lY49DvsflVbFX/M9sxZm1M6pdd274fxbsb0+zHHGQ48vkMcye2BWuSEyXfms8aP7GZre3mWPxwPMdx0311eSj/txXt2nHejyj0yzijud62FRf7vsQxi98QKyH2Nh54/zDCsa9YEMDqLQUlx3B7ohSTjAtE96d0XGrDg1u7H2P3w3TcvHYjYiqydlskFpLaaOO1iBdfeY3gsykgW8ytOG0hynu3r0nM/D5CUbpY6p7irSa/R0s+lRyj4FRyH5Oe3WuNGe1Fida+r/a8L9zd6vhIKtne9CqFzwVbcX63foidjtd11PYkHy1mGu+AB7JrbQz21+WhiEUUQDuuizn7rusv44xxlNSmrGfnZmIhTV7NrcYOrw8jBLWGF3K6v1gMiiNzhsGfEhUBVgBaibUUtS0mW0hyO0ULmF61iMhWUgwLQcl85WNMAtZu6e6SPbfCDmtHG/Q5ma8+NDsJ2TmySM67W4Ry3sWMYjC0IX43wfX22a/gtzvW7au/yhmLRci93stXQk/2pfGqr9363v86Tm3rXjbMIxu8Z4c1vw6TtNo2mOvykF5ZSA60BjosuNwt46xfz/oZ5pKfWRzcenY+3ls8Per7fcUiErwpjjSABMhhoflCEVIz3STPbVcWy8UwL+rUv+h/5i8VUEIGrbBjIYZ9zWLGBTrq8MXWiNBFcE3MypWbko/sWYjZinCNRYmxPVf/L6HzK9ihuS4uiViwDe9f6lNZy+5zRMLV96HtSGwxhr1QVZsRD0qqQwwnt0eLjQyvnfAEvDVMlT3wHrV5meCMbWWxFlscTxVjjbfLH41LcpjFBMce8opjZ7FQQNkO3xBdIR+9zeT/k7EUrb1UVvCaAqtzf72evtf/RNYO2a8bhUiK0YzpiqEUYQR757e5cqFziZ1W2LGI9TaFLVwhqLq3+Hf/WrwaG7deH7cmBn1xZyTlbpvE/8AMe2+2+5i7c11cel+IhH1OlPj64/TXZlYsaC4TnMYkxmxkO+yHYx5wple1aT66+TaP0W+DE8ZUn2daw8bNxyOxbX1dFIsEZ53vLd5+z++nly5/Wtvep0UhjXWEz4cWkW1iccfJzkjQdUt37DsKbiDSyNntyAVicbvY3ynuH0QspLu2HZp2Sv4YSAnCBAyswkAqFslV8p0S26o9wvdNgvggYtHfEomX9wAPSBIY2ICBVCxsneF21LPh6XHEAl3Cpi7h2YCO/W4QCtQSainBAMQiCQqIBcQCDAADwIDHwCax+L///g+KC3EBBoABYOAJMQCxeMKko2PyHRPigXgAA3MMQCwgFugSgQFgABiYYgBiAZBMQYKua951IUaI0aNj4MBiMfmbb/ft1p2BfJbt8u1d9+3rzK/JviBuEDdgABi4AQaOKxajvwMvQcy+0b2b8kMsrlCsIpr1kRv2MRcrCsU/NsM+1sJ+V0Ae/WKffSUY8Y/lyL7Yqfb7uVkDgGO71d6K3GOty+DtsGJBYjAuVCr2QBB7guwssVibQFxZULH7R7UIeWeknRIDNRIm/2yrXtFRfM0Xynis+Ryf/sq5tliT/Pz88cq/TT7G4Np8Y1yawz3rFbZ2ae6OKRYTsuauL+1EfcdYHwBIhDH7uVgmFfMQQkNGM7BrF8pd8hq/kofiMeFtWHPm012f5/xaAg9Pby25aERdrkJYEJTM/2kFkthr+xdMVFts2zcaVrgolzI2zAMhtXgjFg8Zi0OKBRXvuMukIvZEI8QgxZ3OM+TTSNnYiWQzEatGRL5rzEUskpt8ruRVCq/55W2O1jr0ccpHvRLQp6f6J7iKAAup8/s63uSNYyd5J6GOMbW40HMxR7KO/UEpjb/Y1XmHjjfI/SHJfW9MHlAsIhlo8ZbXSDSlEDyhjOc0IWrrtGNl3p5i0fmbi8Xeib9rexoTjrOKRMuH+i55odtBtjnQcRJHFYkuh1aEq9CUKxi6+iMf6PHndC7NN60zEqCAL5AxyPgBMHA4sYidnxKHvI6Jlsgi/h5Cnavk5H4cSElH7p+7K5KUPOYEkfpu1p7tofr7AMBb3IsStb3tlsZcCNvlpvyYlIrEUkzlqsHfcpJj4UqiyxHlGmKxmMNHx+gT7u9gYjEWAwZuSihC4ilRa8INGbQOFGJxMzLgPNqrhexnPhULkbTleC8g3p6Igj/G+2WhSgSk+7+muO68WbhZPBXneMUVzicwcCyxMKSeFV4j+qRwmYAGtw2M3WajiQUTS71VISRh/9om8yU7lgpWIEa+Akpub8hxT2LZGo9xTAi//b9FLwAuJ4HgoxC4sfUX9BKh4EIq+a3iMBKF0fEEe58o0MfIJ2LyCHk8lFg0Is/AR8U7IoAyvggG34vW+9FUyBOx+KP8OaXMozVorbXEXYjP/Pwn26lk5H+Kkzpi2mf8j9PnEgvKl4+bvVKIYtDGtpzImPLXa1Xoya6QfMWA5mVhjMsFC5P9qzh578ZAHNDBPyAGjiMWTPSNDKJSMzkYAo7n8TkTWBwDLoABYGAdBo4jFg+o1ADpOpAiTogTMHB7DEAsIEK4ZQAMAAPAwBQDEAuAZAoSdHW37+qQA+Tg1hiAWEAsIBbAADAADEwxALEASKYguXVHg/XRVQMDt8cAxAJiAbEABoABYGCKAYgFQDIFCbq623d1yAFycGsMQCwgFhALYAAYAAamGIBYbACJfiv4st/WlW8u77qGfnMdX1qcFsTa7m01FszTAdbaxjhcRdwjBiAWEItlAh2SnX8cx+/kUSvyiJLskRvHJ4P7FYvyOBP3+JLjx/seyfPZfIJYbBCL64DjAlcWn9njUCwCAfEzk8zjWOhzvZIpwlI/h7mf8e/e566N3x77KDn4/uPD/3jUHrZhY7mpeoL4HEgsGom2jjU8OJCLRR/yFs7Vp43qefubBc22CoJ/1pR9+Fxvtz6IUG/30MPpHDEWstSH1rlzRJzW/pYH0838Lr9lXda1D+PjfRZC1y6ZHq5Xx9i9qN/8agTBFsiaZ3et7nbn++piFmzbPcUnBBN+aJ92zPrbfjZXCRYWcXZJkfx2ei0x4H2FeDhcJ1eBeh6vl8zRsW0fTiwsobFoKPEyWZniLV3WixJa9rkW1BpyUlI3azjbRPKFSIMvzs/yNNVKyoPP68hrrd/JDziR7yquGsMYIx1T4zQGOxOU2tG4mNclAusJar4vJfx+ru6riVpcm/NBwlf8jedTm2Yvcp5EY4SFtnZtJLr541iuW388f2k/fC7z+4r+fXZ/mD/O/SVjczyxsIRE5Ga6qUbAFExLOPZ9CbSZ68fKeS4quxYX0xJBWOKw69EcQx5kx65t3/Madu4MFP3Y3O8FsXBCkOyv88/6ROP1Ss3u3475cvqjXKWsE0CaO98XE77zva1J5/xafl/d3MlVUV6A3qaM6f12uZ4QshC5xrO9+r20feZ+lUfeD2IzmoPj87g+e4wOJxajwqndYiUvKTYZPyvi/nxOuhlBBPKPhFCIcvj7CR0Z976MQdqPzf2+lFjYAhPh6PMjx72Q23nZ+zX7kjEa17auP67n7X/AE1a2+ZP5mGGh93uLWIzznK0/PsYYgFg8/f8x7IUntfNQYjEmgFkR9+dz0s0IYo1YhCsLKygPIxaZIIlQ6O0eBd38dW0+CmG6K5d+blzvXsWCMReaHRK7JoRjgbB7hFisi5ONGd7PY/YwYsEd3MK9WL7y0NtK2u3X7ksIpooNEbi5p92AdIZYlFsqQ8JkX9otHL1CWkcQa/3OiDwTuWR/wb8WiwCubty5QkF21+9L/JG1NGZCumOBvpxYSJxrrjuchZjZpmHH90tioYKksRrmc0d/sMZ18n7pOD+OWBC4leRrd2YJo5AXn3s/vcSOXgubzv96Pb3Qnx+quHR26RZXI/j5rQYhv3ZLxN8G0QKm8yRYRGari3nJ7+SvrHQNBlaMAY83+yqEYf2r/4nf2fbz/Jwz7r9v3FcV+tRn+5dvA+FcS44zLLi4vJ9eaB+1KbkkafQYY7zFtdV/xfbafWPc09/WOpBY7FxoHVHubB/F9fTFdelO7yz7RYRXNyPAMXBcMACxQDGgGJ4CA+3KA0KBxvCcRgNi8RREgeJYVRz21le9ldluocVbXatsAl9oRh4EA88rFg+SQBAWhBAYAAaugQGIBUQDnR8wAAwAA1MMQCwAkilIrtG1YA10x8DAfWMAYgGxgFgAA8AAMDDFAMQCIJmCBB3ffXd8yA/ycw0MQCwgFhALYAAYAAamGIBYbACJfiv5sn+nLn8Pv+sa+iehB/rWrsaav4V8IL+v0eHVNQ72xVLN6a7Y3lC/NW6YMxWGLFYQiw3AuQ7Y70wshoTUvuTFhG4ff1Jiqs+5Sh87sTLuHPNzxGLo9w63LFh87aNkdrC5Mh6uiLfu8aJ+z3F7nfrZNxd7YNjl7Jw838kciMWdJKIBal50bey+hZHaXUtINM7+bgd9riRfhKV+Xu83xGIhVmtzoxi/sVik+FLf7vF1Jwwfbt+DXBxILBqJNrX3D6/zDxIM5xZ/7rLZ1sR6krIPIezt1gcJ6u0e+vavI8ZClvqtYHeOyMDat7/DsUAUnNCZ3+UpqGXd7hvIpRi046MrgDrG7kX95tdBRz0hIl4jPtRuAErNAb36PNh4hJhpTFf5vTEf1e+wZo1Lgol0bzTfjyUs15gv5aPYs7nqr9jCvjb67W0P8pzsq9Vj+7a7w5LDt98/187b6+n7L5r7cfr+9fX0k+Jafe/ro8Yr8cViZ+/3IwzL/tfHa2+/rmXvcGJhQchJciRhgEiFFzvd+LkCck66kpC+2Pk4r0VgL4Bhwmq+OD/j47cHn9fd113r9+BJq+q3xjDGjIqRjtU4WbL278ekLuNGhTYD+sjuy5stTiFxF7MFv5fzMYiVJaaJMI731OOHfKnkF/MRcCTNkNl32ONfP95P3//WvAg2qm3yf8lvXrvZ3p6vHot9HPr9y57kKcucF64hOy7uI8m1zc0F349i0vzW2D/m6/HEQomNQGGKhRLpCqOQsBBIAmQzV38/wZJNTlIWxAYQXGhNHLw9mtOKsIqLErDzg2wmvg4LoB+b+z0gwG7tZH/dGLPvpY7R+swkteGx62buaD+RiBzpBmz4sZN8/FmuxjQ/xpdqZ4l0s/H1WB9f53cXa5tf+77koBtvc5NclS34TX5Y/MvVrsW0t11jUfeW+FfP6dx+/7aGWyzMOPI55GItJshHsslXYPUqsFzBVFFV3yavn8BwH6vJWl3c7mP84cTCA7oFMQeFFkACZFdo/fkckAbENqHOVvOJQVJA1gFWC6Cb2/syBls/Nvf7UmJh90qx0Xj3x72Q2/PL70f70Y7UxtWt0cW1rDPLB+dV4qq2O8yxjdAAWDwM3/f4aQTpmx/Jufgh++pzbYl2iDXbXA399vvVfbvfbBnuSfOX+NfN6fdv99BiYcZRHh3RF/K3++rWUZ/2ehVsO3xdfM29fN/PzkOJxTiZCZAdmfTnc5IyILZgcbZCcoYFWsZ1c3tfjiEWmSBJkfn/vwnxsXFM3qd5KIRvSbwRzSiu5fgsH9GHZK3F2zlxvvvc48f5vYiFBBdufE9oXeyGe09sO7/X5GyNjX7/q8RCG6vNPu1xZfF5DI/rd01c72fMw4iFdJrjy2YqykpahQDavXgBehUbKkLqZrruJQE7AdgVbUyu2O5tlXHsS/Ob/Uw79GiXPq/1OyPyzO9kf8G/IfC7cfsUWUd4FO+4VslXzV82phLNJB91nMZb9mGFSf8gwR/T8Uuv3hbvzf5RQcCRnG9XMMsY9rYlRhHDYYzZa1xrmGczJ45x/qXjaP2GdZ5v9kzzJYd2nPjscpvaXor7uedk7WHtFj+kZsO+rubjuXvbPu9xxIKSU0ijXba2QtMCl3P4WdVYqFL4tkgbmJTUauy4EEoh1VsEvlj8nHbfeB3BFkKvtvtbD1Kg5fiv19P3SjQzv+l8b7+RUdyXElizW2NX/fN7l1iG8UoeFqNv3/ieel3bnmPbFr9kz/rW/2Srj/n76bv9aeBs/UDcfn78i6TBftRugonxvihvJWZTsYj7lpyvw9Ean8djuniUfMe1dVzdr4vJ2P4iTu7QxoHEYuegG5AeLWnwd2cs3EthApNnfbP45vXAIr+hYbgXvG30A2KxMWA3Byb8PSahrMkbxOJgudUrvccXCuI9iMWaIsaYgxXxba483K2xeouq3CqLfz6dYeouxUIJUfcRXrv/17tN7NHEXT7uzysWWbHiGEQBGAAGgIEUAxALACMFBjq1y3dqiDFifCQMQCwgFhALYAAYAAamGIBYACRTkByp+4Gv6NaBgctgAGIBsYBYAAPAADAwxQDEAiCZggSd2mU6NcQVcT0SBiAWTizKnwl+4lk05yTf/snltm+ByjeR4zdKz/EBc5S4CAM7/t38Xf45rO4Vr8D9egw8l1hMC/c2YqGAJdG4uljwc5biYyXWA0h9v8TrcjwuJZQ3Fot7zQf71b5j0TcopXbK90u24fg+8HYJDD+STYiFu7K4LWiXyTHzbQfCvFdyKr9FMCadHfae5h5i0RMcxdpcbVHT5a6+JBc1V0VYekHJMIxjfbzvMybHEovQ3binQRKA377Jz3DG7ibOq9+ubR21Pgwsf9ps+SGZOs//bgPNpUKxt5N8oUgx1QccDm5znS8WtqsLewpr8T75mJ3TOkZPAnHfzbYAPNgIa82KwMXckI8/bnwr3xa2ca4xtU9v1Z9jrfkyRKcCwYTXbFei44f1mZ/3JBuf2lecH2JWvwEdjg9897FJ9qX7u+ir+FoxzrH02OAc1b0J+Ynvt/L5Pgl4ViP3dP5AYhEAWp7AWYtci18BygIRgEljJoXPgFYbWnCxGPhzs60FrL7wZ7PO9OcuyzrnioUleFekXQxCB0jr8hhf6BWgYd9xX9v9NQX79+vp9cc/9T/Xo23yYdm+7KUSluaq7GnRdshf3S/bUNLWmETcmT3YNfV9iFl8fP3052CX8rEiZn4vE1/V582vPiacO1Mz/DkRWTne6uY6vl4qBs9n9zBikZGJK0QqUkPQ+hhqRybdmD7hEfhqR4VAAW6JrJuzVPDa9ZriymzqseXXhDADWVk/U2FY8JXmuvhp111+kpLO+5j38Vz234xP/HC+d4SW7L0bU+w724lgunlEhJ7Qlv0we8h+EneCuc6289XaTt5vGCtE3a6k9IrM5zdZw8VGzse8V/wz9gomNvi2GiOJL5i7Lmd7xOlYYhEJ1haifc+gSkihG9MHugK/AjMnJVvk3ZxYKPw5FGrcy7ST7n1VIXMFH9c2eyY/o+ilAmLip6TSXi2RSmz0nPOjxi/zm475uWJDu3mZY2Pcgz3Pi4xbsu274t7uhcWC8lFvMQkmXE5i/lwcl/Y1ivO+xxnr4aGIciw0DgZ3fYz39Qn2rxPPY4mFu3Io99P1WAfOhEy6MX2QO+KPv0ZniFSLvJvjCl7ISccSsLvxhRCWybH3VQnXkXS3RyU/iocl+mLP+WrXSOLniMuO1dtZ8UokjDHzY3eaidZyPMb+LdsezxPS0Xg135f9aOOm+eBY+xh1tof5KD8RqninWC6MjQRaCT0IlcOOyU+cX3Ebrrp4HGEuE5CkIcrs4pjF0P2+P4xYSGHYQhMSrmAPJCnF4TtVsZEQpimSjMg7W6E4ujmuiIOfhTDcf86X9TviMH7lBRWJTz5bYaJ57N+vj9PPtHiDf2bNbt/mXO/P2E4/thBf9Uf8TgnHkmNYn0Wh2mhF5o/3tpf3RfvwGNmSF7e25lr3wJ+NbcZR/HPpcRyd7XplFjAeYpTF/pxjEjPju1tHfG6YzvcgNmwNt5yd4xPmXDd+xxELAqcWX+mOHCmWwmuX+HkRKWD9bQ8llPGtIj/PFw2fs6TFfrb1/dz4c5el0ELH5/bmCtMCpPc7nVfiVoU12nOxS/ZmfVPicz/xmdxOiWvEzyGXrz9eTz9Dd6qdes2pjTHb87Gre19h2+fEEjbZ9DHYIhaznz5lwtd4Dn4O1v88sPFlxb4uQ6A+zjUfFQuEST8mxZrirMujxTTeXyaHn4/rscQiEo79TEB04P18cO41aZv9YpJp4rV5vo0z3te/4EIcN9ZYEbtUSICru8cVxOLhQSpXH7Xrfvj9biQwxOMKJNWugCEUx8UnxOJhyaIVaLuXfFyg3kMXH29d1dsxfFvJ3C56WEwBP/eAw1v58DhigQK9QocIsrhVoWJdYO/WGIBYQGQgMsAAMAAMTDGwSSxurWxYH90VMAAMAAO3wQDEAh3FtKNAcd6mOBF3xP2eMACxgFhALIABYAAYmGIAYgGQTEFyT90NfEG3DQzcBgObxaL++SC+AAeShdACA8DA02Bgs1ioqm97BMJtlFB9xSviDwwAA8DA5zBwtljw82vwjJen6SpQaJ8rNMQP8Ts6BiAWuIyG4AEDwAAwMMUAxAIgmYLk6B0R/EdXDwx8HgPniwWeZAqShdACA8DA02DgfLEgkOjz9fF/F08DGHRon+/QEEPE8IgYOF8s8PsREAh0lcAAMPA0GPicWOCK4mmAcsROCD6jgwcG9sMAxAKdEQQPGAAGgIEpBiAWAMkUJOjO9uvOEEvE8qgYOFss8A1ugP6ooIffwC4wsB0Dm8WiPhvq4/30gq4cXTkwAAwAA0+Bgc1iAUXersiIGWIGDAADR8cAxAJd0VN0RUcvVPgPsbk1BiAWEAuIBTAADAADUwxALACSKUhu3dFgfXTVwMDtMQCxgFhALIABYAAYmGIAYgGQTEGCru72XR1ygBzcGgMQC4gFxAIYAAaAgSkGIBYAyRQkt+5osD66amDg9hj4f73unZ2OqdwbAAAAAElFTkSuQmCC;" vertex="1" parent="1">
          <mxGeometry x="1430" y="323" width="540.7" height="167" as="geometry" />
        </mxCell>
        <mxCell id="4FZqM-bikuzlJvexATYJ-2" value="" style="shape=image;verticalLabelPosition=bottom;labelBackgroundColor=default;verticalAlign=top;aspect=fixed;imageAspect=0;image=data:image/png,iVBORw0KGgoAAAANSUhEUgAAAjwAAAB5CAYAAAA9BftsAAAgAElEQVR4Ae2dP3bcvM7G73JSpEz3Nbe8J9VbvjtwkQWkcuENTOc6blKl8wayNH0HIEHiHyWNR2NL8lPkjGdEgSDwI/GImoz+8+Xrtwn/EAMwAAbAABgAA2DgzAz858yDw9gwecEAGAADYAAMgAFiAIIHO1zY4QMDYAAMgAEwcHoGIHgA+ekhx9Udru7AABgAA2AAggeCB4IHDIABMAAGwMDpGYDgAeSnh3wXV3b/XKZfr3+nP88/jxdv8f31dXr8B1eJu+AJ69bx5hFy9uE5g+AZQfjjZfpDBcr8e5keuP2/0+Pvv9Of35fpu5xf219+UEGox/W5eyp0XMBkLFkB+zldlO+/nv7dDlSKk46bxG+L11nbdkyU15KrbPx3+ExEw6YcvAdnpY9NGdgi17Cx3ZxELBHLT8IABM9SolnIeHFAxfN1+vW7f/7wTO+liJYi0QtqKba7KRpzgqcWZu3r96eX7a7sZ0XJjUJjaPusRfs9OCusY2fnRjaX1hkch+gAA3dnYFnwUBF5vpQdDdrS/lG35s1Vur161sWSt39ZNPTdEnu8LNp9J6WLiLJ1bG37WwLfn17dLoy9bWCPe9srFjH23Z9HPr1Mj0+vdZfg53R5/jk9PP+dyth8IcoKrh2XjQn5ZY/bXREXM7NrUHx7kB0F2qlpuXI22y5Ov1VBY/AxNlv42i6dr/tmVn5OOuZtXP681reOrRtX87vnSdtuuzRLtvl4H6MZT1tkbGya33J8luFvZszNr3oux7SON9j9On8ujZfO0Ta6kF7B2Yzf87Yl5hSXpdhJW7zmbCEuiAsY2AMD6wRP3f4viy4VKL0I+mJeCkdflHXbmHQuYLpoSoFpxUIXRGfbFTL2TxdJJ1a4L33c9ZUmxNkobciPl4lFBfn+44WFD/VfCporRLUg95isiZnYijHjcbaY5bb+kH88Phcz+oz9kePaftLWxMgfL+9bEZfiKr5lsaPPBjmwO0l+XCIMMr/rGIa2i60/w8Lt+8rGOVP0h/HUsf2mBLH63MeI3/e+mNnXzoJluPjduAqc0Ti6Lc+3t00cd27Ex3kb3ibeS9zwChbAwN4YWCd4aoHqBV0tgrTIugLGC6kUvbpT0YqiKaAriphr332o5+q+3YJNbVsxYDvKb2d3mBhnk9u1AkcF52W6PJci3H2TAiu7Wq7oLMTMFjU/aWgMruiTjy0OcYzdr2qr+Z/Z9jHrbVK/dN/671G8Q5tu3+cg48jm0527YJvtZTstC/mQ3bYRw0VAjuMm4wp5qN/18nZ1OxsDL1YXOFsz99o8pVhGdsbi2MV+7XxCu7tv2wtveAWjYMAycLvgoSLTbk9IgXe3OrjAyjFXrL+WK1+x4Rf/ctUp55bX1ob77mKCCkW/xeKLgdjo7VfBwH04n5Vg0AWJ/i6+lb5LcS5/N59pwV+ImR2HTZgUV4lXe30vwWMKZB2L9E3jkr/fIngMJzVf0h8fW8hd6N/FToqt9CO2F/LBnMg5zLrjwefUxKD7oIVMYU9zkrfTfHU/pH99fsIZ+TXjd7BdBVLhlsSPvh3a/Vs1byTWeIXAAQNgYCcMbCN4Bgt8tjDyIut3KFowyiLbxEFdrPVVvSkaZjGnAimFgBZnXQxuWKy5GGq7tYgkY+4FxPXtbSwU5m4n8ZvH7Pxp8aP28SrdxIzaDm0Uv7totP2zX27c5rMwrugLiz1no3Dici/fbRFRkowr8BX6t/7r9vN+j88jG3yuYc22Z8GajDHkId3hscKF+2ox8Llb4MxwEf0OtrMYD1mxY9axxd+IDRgAA3tk4HbBU68Km0hxi2wYtC/+pr1d7EthVlf1fG7/PkMsIBaypcIUfDO+VFuZv1QEkoLWC4grRKGwxeJufOEiM7pFUmyPRMkqwVNzpoVk67/GWB9r360JfpVxtLZ0rolLInjYhsppi7mzVfvS4xwJieb70LblQsRwt72Qj+bjDBOqDXNg4lDOy3gNjDreOlO1bx6jCN4lzty4F2zn8U1yqMbaYo/PcBUPBsDAzhnYQPDQoloKRru9on/jpBbQfkwXu1q89S0xfTXrbndRMX1sXwyWq125VSWvUgzKYl8Kihy7Yos++K12kOhYUtB6cfKFSG5j6bHPxIygkYIvsTH9xbh1wRkLVFZo7W017Zf42mPWbUe/zLEQl+gLFUibk54v/zn9L7guSko+uShLTDRndaJ5G/zF7SyXjrO3M+zHozhhn2KeaS7ouFmfbS74mPZ1VvBI7qqNMO7EtoplxnQmoCFynJDc+SKPfCFfYKAwsCx4djyZs0LOBVEXiB37DwixEH0kA0FMpXMlF60f6Tf6xrwBA2DgLQwcWPCUXQ59pSxX6fYzgPEWMHDO+blZJ3iS3cpUGJ0/XpgTyDEYODYDBxY88faKv1UAOI8NJ/J33/ytEzx6ntlbYsjPffOD+CK+YGBbBo4teHCliS/JgQEwAAbAABgAAysYgOBZESSo7G1VNuKJeIIBMAAGwMB7M7AoeP7vv/+DcoQoAgNgAAyAATAABg7NAAQPAD40wO99hYD+cFUKBsAAGDgmAxA8EDwQPGAADIABMAAGTs8ABA8gPz3kuBo75tUY8oa8gQEwsCUDBxM8C78JYn6FdmNQ3mS7/squ+ZXkzK+FcUGUQZSBATAABsAAGLiJgWMJnvDoAisesl9e3kwdQvDcBNq6PBTh1x5DcuUvZvPvyrRHJfRHVnDfnL/+uIz2/K+2gNhHQPgfrzSPtFgUsJbLdWPHOYgTGAADYOCeDBxK8FDRiYVKAKGC5YpcK2bS5obXNwmetf1hh4cgt48FKQLEC4/hZODnRvX8s60mTCi+6kfzuK167x/uWsVRY43aN/FVRVl7vzbHaDfM3ZbzFLbe4cIELIPlYzJwHMGzIDjGvxprr9zbAxK5iF2mx9901f86Pf64TL9od6AVSXkQY98V+HOFoDK7DWlxdH4lD8Isuwq9iJ96knF+tQipD+WUfLBI0YK3Cg8+Xv424iix1+NXYm8EjcutFV92cnNuxS8UWBRYMAAGwMAhGDiM4KECZAqaAYwKmC2WpbiVwpaepwpoFxbKji+YC4KrF9OkOAbB4wt0ed8KcB1b98vaHPV16M8pH1pE1PxokVlEZBGAVnSovHHsSt7p1piPqeZCjrEtlaPSjxO/ijfb9yfIjRr7oRnDOA5RlMAY1pR7MXAQweMLmgPCF8u6sM0WJnVOF1O9n/5Z7WtLwaP6LonNBc+9kr5LuxITjjPtqpGw6fkQn0teLk7gSrsSRxE6IYeVC/pci6smeMgH2eUb5bv6J2JJ/MKrm5MQFxAXYAAM7IyBQwieVpDS4I3FAhc2deVuipIU2PrdkbILJIWzfJ/E7AyNCmDqU1/8U99V38Wn8RiMzwt9HbqtiA19aymNOeXI7/aVz0TozMWU86H7+FpvnYnQkRiHHFFOs757rg8dfxk3XlGkwAAYOCkDBxA8C2IgLYqlCKViQxKpClrfCYDg+bCizXl0tyVVjqyIKcKj77IURoxATXaHithxfRAPLLbsd6UiO1VUjQS0cIVXFAswAAbAwC4Z2L/gCUXPXlF3sWI/5wLJRXTwPQ5lt9vogocLXvtOSS12bmdgjTiIhfPb9MUVd96JSr5vUj63hXhNn8dsU0RLv9UURYzJiRMpfEx9j8u0bbs4idjhhcmLmfK+Cyp/PGENC9wuF7hjzgXwhbyBgXswsHvB08VIBgAVolERq+2r6OHvZujbFguC50v9r8rlPOqD+lorPmrxpv70P7U7UAp0OU47EzTOXmCL759L8NCYbdz0jo0XNL1tz4mOaRdOZLcKFp0LzYIWPbWNzoWxq2zoNveYnLBZ5zDEJMQkGAADGzCwb8HDYqUXNF8AuBApEeGP4z0KBhgAA2AADIABMEAM7FvwbKDoADpABwNgAAyAATAABiB4IKqwVQoGwAAYAANg4PQMQPAA8tNDjis7XNmBATAABsAABA8EDwQPGAADYAAMgIHTMwDBA8hPDzmu7HBlBwbAABgAAxA8EDwQPGAADIABMAAGTs8ABA8gPz3kuLLDlR0YAANgAAxA8EDwQPCAATAABsAAGDg9AxA8C5DLr+ze91d1yy8Mb9qH/MI0fphxs0m8mgX1K964qsRVJRgAA2BgHwxA8EDwREEwLNj20Q9/ksd6lMdh1EdqtGeR7QP2Wxed/Qqe+uiMk8X71nzh/HPMO+QRedyKAQieBcGzVaDn7dxhh+eWcQ0Fj5t41E4/X4zetx2lKo7ae3fuLf7t/dy18dtiHDUHj0+vk31+2CeK9xZxhI144YOYICYnY2DngqcLgb5z4B4Wygu+PKTTHWtPyZbjf1VR6LZFjNhnc+kHTka7X6Soya0jeqikKe614MvDJs0xKkbafvFv3S2tJb+/8YNI5aGl+gGcPE7y+/nnJLsV1K610WMRv/l18DyzNc86W73rsDyuEDNnW4/JCLGvJSY0Tt1mXbx9rhIWZjm7p/D4OV1qDHhcLh6G62Q3To7j9Z45gm3wBQb2wsAhBI8uyix8RDxwwVUFqF7tPogqzd63orCmwBKoJExUH8Y2CZUqBpwvxs/6FPAmLAbv1xXgtX73Im9g45goceZjROOjz1qcxpOVi6zkQuKiXueKsPGJz1keF8W0x9D55cbh+26Cufrrj0d/nH32cY4FJQpXxm9dn5kf8bO58fCxjGGVqy19ga2YH8QEMQEDH8/AMQSPLqqqmNBCbgugLpr67xpode6XKjq0yODCoPtaLHJaCOn+qDCqAkh2dN/6b+5Dn7sERWyb+z0jeIyYSYp48E/7RO1lx0yPX7f5Nn2pu0U6vvMTfnlcLFqM771POmb7suMK5y7sTuW+WpulTfTb5HpBVBQxIvHsr3YsfZy5X9/KztUgNqNz8PlyXBEjxAgMnIeBQwie0eLfrtpbAS4Fo7RfKkTxeC4csiLnBIwvarXYy22l9ioFKQiK6Mt4ksW2ud/3Ejwa/iJ+Yn7K51aM6vOyv9eMq7SRePZ+7edyXH+pmli5zp/Mx4yF6Pc1gmec56z/8WfMgPDlecR7fBcDDIABMDAdXvCMi9hSIYrHc+GQFbk1gsft8GjYTiN4MlFVxI79PtO4UPeCvzYf1ZbZQYrndrul/V4FDzPnBDsJti7m1sQOOzw+33i/jhvECXH6TAwcWvDwlfTMdxN4B0huUcmuS7sKLkWyCSYSIVR4pH0TKG8QPPV2WbRVJxf70m8HyU7VuiK31u9MjGRCLRmf8284IUK7t4odisv6cRV/Sl8SsyIcxiLzfoKnxLnlOnD2Pgvq3A6PiCqJ1TCfjfn38Rl+IM5gAAy8JwPHFjy0QItQaVfJuujVAszHXqYHv7MixYmO/75MD/Rfe0XwBLt0u6yLlOXbFqWA99sr9paKFCE6TqKLCvLqgjTnd/K/v6QPBsvHYPClbO1f+2J2sK3ikf1PpZqTe42ridVaqK3P+n/kDcTf2gK/xIKJy8v0QPlpwvqeC1pkjHnzfYv/wvbacaMdboOAATBwIgZ2Lng2Lhah2G9s/0RgvKfqRl935rAK5NXCExyjyIEBMHBCBiB4TphUCIg7C4jDMNN3gCB2wATWBTDw2RmA4DlM8cJkvctk1bcH223R/t/D/W2zu/gABnE1DQbAABi4OwOfS/AAqLsDBUEAYQoGwAAYAAN7ZACCByIIIggMgAEwAAbAwOkZgOAB5KeHfI9XGvAJV8BgAAyAgfdlAIIHggeCBwyAATAABsDA6RmA4AHkp4ccV1HvexWFeCPeYAAM7JEBCB4IHggeMAAGwAAYAAOnZwCCZxeQl99LwW+lbHFVpH9d2/669Rf5RWT/S8S7YGCLsX8uG/LL2rucN/Lr1vxTB/YXyfd45QufxnPnQzgzP5ehnx6g/axrHdaz1UINgueWYrfZLzdfI3j6j8mlj62oC20vArX9ykkhz/XqtkeTTU+8Df42BaL8Ds5bfgOH/R8+QuHjFghZNEtct43pNs8Jy3M4a9ssyu7RK7fMq5XnSkw76/kYrirmCYf90Spr7RfONvVrZUyuGqu3udl6lsTpnrb9ODZ+fxfO1vrIc2y0Xtywnn1YPlz9Gq7VCUNrYzbTDoJnJjiLi8dm0FwjeASEco4XBTQ5f/1+5edzsf80Yej9NYJHQTgvIMSXDV4plq9qYtdi6sc3n5O3xHED3xcY4hjqsdFOk4rx/JiW/ZsVJQu+LfU9tn3Qor42Hp7HtedRu9kitZzPpZzc7fhm61kyxnvaviY3R2t7L5Y+KB9cn57+rTsyZQ25bo1P2LoipzsXPL2AlaKRXEXywiS/jGu3jiW4/Vz/gM5iv+1m+CJkbKtzazFu57Vf6FUFW56YLse8bbm9Isdflf1VCZwRPE+X6VIFzvenl+nxx2X6ZQruGBqOlfY1TIx6VSF+67bkt4uZh1mulsJOB5+n4ye29Ge2b29bblllV9amX+8z56I+9FPG5QWiGZflbLYAMSvz7Y1vjoM5hv15jUc9PuN3xpiNKT1E9/vMg2Dtw3V1bhKmTN8+Bm7uBT5zv0qs9TFvt/ih57x56C/PSzpH20jGkfFY40LcafuBt8G57LtfO3Su1sx7E1N3y3bONp33/HPSzLT548+TOWByouP1tz9kufk8yOcq2wk7zS4dc327uanHZC6a2MbAr2Z/zrY+di1ndO7CmtJ8mBk/xy/yacacMqR9Vw9S3iQfM/6uGZNqE+oNHas+Nj5V+9m1dkW7QwgeWshl8CZAHBgFoltoBAo5txTjDo+xVQVKa+uvwp1tDjx95iafJGTethcr5X1YOGcT6G0UCGnMNIaHZ4rLv9Pj82X6Ppg04qt+tX7Hp4w/PPf4yULU/aZJpvLh/Xcx5PxI/Nwx9snk14+3TGjuu06QVvDTBbvHpxXt5p8sDjI2ZZvaGD8yITZeAMwYW3+qvR83v+8x9Axn9ihnnVtle5HhMs783GJn1jbHWWKm+12OGY8jXaiX+tX9kP89VsKxj1GJofhZOOoiyHNV7fu81NwVWz3eui85Fjhs43Rc1UI+F38ZE786NsyxasvOxe5nuxARX7Lx0WcyHx2r8/O+xlRsu3Ob7wPbdhw6vytYcOPQ+SC7/H7GrzHf2o+3cFZy3QWYz722P/P3wto9Gt/iuGZyvZSPLY+Tn2E9ruv56nmR8Tb47BiCRwOrEkXJtkEpE08mfYRBg0t/yyJYgVO2Y1L1uUvtF2yHfqzfse9sQuQLdQP9x8v06/llutD24cKk0f0xgE0wqCuDAUCtPz5O41aLrDuH2kpuSp8qphQTnw9exGtBozG4BTPPr+/Dxi6eQ8eVH9VnPa4lznT8/N/cn/O7t1nIYbZgJ7nUvnbbdtzlczvOed/K+Uu26bgUeJ3bpZhx3yHf3We2O4ybtLPj6WP0DOj5pf8udtgXvcYQAymPSQFN8jF7rh9TWAtkbP41Z0XyneZS29Z/t7nqxGJo433o7w0XdN5MLtnHK2zLmOR1jgU6prnzc/njOItsmpi5tVHGGl4zvtS5Kbtfy4XqSLxyH2/NB/vT57zM/SBalI9hTHKMuXEMyrE7vR5C8Fig7aRrAVdFWtpHGAjCOkFGiVMLEk80ZbdfFVYfRtAs2Q7nxUV4CEkDIV8A+6TSE47+duKu2enxpD55zGrxDwsGQ2qBN6LTjF33WfyN+arAs13d3u0SJP2yLeVr3HGyY6PxRSaojY5VOafHscbEcFDGL5zN5Yr7U0zZtnnedd/BX46vjZNub+1nvvcFxufan0vv52yb9jU/wgLbXoiZbiPndZuWlzzWMW9ZLr/U3dtiI8Y8xJjmRsZjxk+Sj9XnSj9DPjS/NFZf3Pvx4RjENo1H/ua5n8QutOn2y5jyeT/PeLUxZ3uwFi2zYBnpa0tnXBiWY+/HWYzv6rmk45HxpY6neefjNjZh/tyUD8WF8qXna8XxWieCX2+1t/K8wwueCHAPdoRBQbgGJCMS1LkS3BE0C7Z58TCLT1yEl+Ep5/jx06SKECW+yxjcKxehICLqApJAOjeJOf4thgtjpFi2tiWH5vxRrI3/NM5s/HNM0LEYHz0u/fdyXnpf3JbHZRfgbiPLof0sMJywNfLPxI/jZMcZbJtYlnGMbPcx9PFSW7nSu+Y8Eaqe5dZHwl05ZsfTP/MMaC4ih2kcEh7Jfmib5GNW8Jh5X+25z9q4TT6i37od++XsmM/C/EliF9rU3CbxN/kdnaf9X9NGtx/9bXyZj4mOT/m7cPA+nMX4mpiNxuc/z/hSbQKP6lgbv4lZzelb81FtiYBsr6Zm9DWh+aD9qjaGedBtN/770IKnLCyjYhIXJ16Q26JQJoss0D4xZrGQnQ//fQFOXNb/vG3/nRD2a6FQe//kqtVDQ7bWCJ5Rn/y5gtfEwY+XJs3MLSy/8LMtJ2rauNiW2rmotvtYFhYrnhilTT8nTrx8gVhYnNiXLM/afs25Z0S+vN64o3P6/9IKMXFxCP5yDlScpAgb+8UvPld9XnKuxlEXnsV4KRstX2EhcvlZFTOJX4mdZ7n3NcprzBudw+NUPts4lL70mEOMaWwuD+JLaJvkY3SufBmz9z0al8TFvnLfo/kTculs03hUTDKR79clGXP4nGOjb12Xvsb5c7u1gR07ztZv2s6OazYm4fz35Iz8VHPtmt1S7XfGlzoeeFTHehxtzPhztmv96+2vyceVbSuny6z0i6ct/Tq24KHk1snXlKZaEMpkUNuwZsJToqRI9TY9EQUSsfuL/ueTA5gSYfvQhWjOtj2P+qRFui+EcxBFu110lGPRTj756DzfthTFHg+/62KO/75Mj/oLsyEXcULZeKnvCK04V3YCJCfR/2Ri8wKQx6yL3Tw+nYV5zsqElD7imCNnmhPLgr9tGha0dAGUvmvemmBdwXBdgFpMl+ZItR3ymAnfkFMZt/OXbn01n4l96zf5Np8LGreNu+FUrQmSC829iXHwmWyL3/EiqoiBfpxZYBvuMylELt5mXNJm5tXH3Zw/Z5t8MrmNzM+tZyaeft6zvz5ncfzW93i8zCO/9nm7joWwBqs1JVnf34+zGF+KocnXFXku81NilswfM4eWYzaX6zwPPi9ve284are87dzt81/G+7a+snHsXPDcNlCzkM3AlQUGn90We8QP8QMDYAAMgIHrGaiCzlwEbRNHCB4IodU/y309uNtAin4RRzAABsDA+Rlou4B3EDvEDwQPBA8EDxgAA2DgAxiIt17arVVzi+Zchb4V9XZLR3+FwN/eOdfYP1q0nlrwfHRw0T8mKxgAA2AADICBfTAAwYMruw+4stsH/FiEkAcwAAbAwOdhAIIHggeCBwyAATAABsDA6RmA4AHkp4ccV3Cf5woOuUauwQAYGDEAwQPBA8EDBsAAGAADYOD0DEDwAPLTQz5S+/gcV4JgAAyAgc/DAASP/Kqr+RXS+wOgf3Fy7a9vlolZfpRJ/1IsJuyt+Yq/inpTTMOv2t7qH86/KR+4qMFFDRgAA2f/HR5eJBeLT/0tiHcWPLKAX/Nz4+WcDQRP+niCfRTV+XhsMPZ04ftgwbPXfLhHFUSRbX9H5Trhvg/eZB7iFfkAA+dn4Pw7PIuC52OTPF/gM982KPp7LbCLD9jbYOwQPCuv9CjW6kfQaB6Z51WVXDSRU8VRFEUZw/gMxRUMgIH3Z2D/gsddZZqHv9Ei/PzTPMDTL8Dmlzv5ly37A8nML14mP2VtjrsHbdIx6kvfmrKLfSkIrf/BDtLbBY++unZjcn3xOPgzfc741z3tuLvtMkGdDdfX0iS2tntBtZ8r32pedJxbTN1DJa2Nbrv5xEW7226s8G3N1+nxx2X6Jb9+etO49AMMaVK7mDXW3OfStxEW8w8XbWNLhdyWC0rxtTHOsbRscI7a2ErfJSdJLu7u75Zjh6334wyxRqzvx8DOBY9bZGvhaIVKCpgssiyO3OJKbRaKFy/KYkMWYr+g8/tuW4qr+MLvVT/fn16mx38kce5qWPpY3NGQ8/WrCKnuiyk0IQZJ39zGFqs2ydy4/biuF2jK938u0+Xp37bD4G2TD/P2y1ha0VVxpKdWz9p2+WvjZRsiPCQmnjs1Bt2n/O1i9oXeKxYensUu2Ulsz+VjaVziw91frd+cOzVn+D0JNjVuinH5vLNq474Q17uPCf0jH2DgMzGwa8GTFURTTFxh+fI1KYihTQTcL95iR8SMAKGLcThnrmjJwq8KRGZTPpt/HYzxtRdV7ScJgV/qGNvOPqvFhc61goIKXS9YdNwXtXl/Y7xb+8QP43soeMnYQ5van7FdzvP5bH7IDk8TqEvCS48p8WmBuTBG46u2nfx9RdsiNvqOluyM2fwmfSQx9Xlv/NNYRehc4VuP/br+0R5xAgNg4FYG9i94vEjQxUT/zYt0UthCmwhNW7zbQp8UMbf7EM7xiz2/d8XGj8XZXJfMxDfftxoz+RkKvW/vxi2Fsb92wSNiUI5dVzyL73Juee1CjcYfxEDzjfKWjL0dn7NtdydinK2oW/ZDM5T4pOLPfdH7druqMGFyMsxHH7M938Ysjkf7d/vfzLoTzeUzJ379uFtubvfh3mOEfeQIDJyfgf0LnmyLXD4LC+yK4pMswkG81MJqipL7LJxjilYpsPr80L76MV/gMwDXjFEKOLXVYqXaM77qPhLbSbzawsB2/I6Qtmf/9rsE2e7TfDzG/s3bHp9XxiLx6v7O+9HbpSJMc5nEKNge5qMIQLOjNtO25aXmrIkSJ7auEanFRsIQizgrvEaMe7/wXvODv8EDGHgvBnYteEpB1AW1CIm2YOvCIreN3JVosZEs2KqQZwt1WejVgu4W+HCOKUTOz1r0zBeuNxM8pZhrcUXwsH+/X6dfya5S+j0SUyTVuFWcIpRunLNta/Fu/hS//7h8Fb8v0/eBLRY2zUZfKOzn0XbIp7F/i+Bx45Jciyjn94o/5uiv23Ubx3FpXDEnPSa3HisxU76HmK422tUAAAOQSURBVP3l/zRQ+snHUGzoObydf7eOD+cjF2DgczGwb8FDC6wUkHqVagp7LR59uz8v1LLo2lsoUhTHt53seXbh52O68LKfvX977sv0+PQaikP3O7nNYYqLhjL6bWIi59W4NXEon8uriV0yNr0rIMXb/28j97+kFhcPl8vLU/L9orqT1mKjY8y+l8Iqx9vYV9i2OdGi4zbBIwKy8UW+tJhVQSTx/H2ZHp913zW3o3ysGNdi3CXnV73aOEu8zW6T4yFlTcYV8qiZxt/3ySHiiriCAc3A/gXP3CJNi6kqLHpgn/5vLpRdgH36eMxxhGPtf85tzkkVbKkYQtzvF3fEFrEFA4EBCJ5TQlF2gdruxynHiCuXzcXJppz0nUiIHbC6b1aRn8+SHwieTRf5j544vchk3xf6LFBvOU5/G6zd2uFbVPZW4Jb9wtZHzyX0DwbBwNkYOLbgOZVYweQ62+TCeMA0GAADYGA/DEDwQDSF+5yYoPuZoMgFcgEGwAAY2IaBRcGDQG8TaMQRcQQDYAAMgAEw8HEMQPBghwc7PGAADIABMAAGTs8ABA8gPz3kuKL6uCsqxB6xBwNgYC8MQPBA8EDwgAEwAAbAABg4PQOrBE/7r7n4kb/TA7EXJQ4/cFUIBsAAGAADWzKwSvBIh+Ghh1DEEEBgAAyAATAABsDAARi4SvB8oUc54Jk4APsAYItIxyuuEMEAGAADYIAYgOBB8YaAAwNgAAyAATBwegYgeAD56SHH1R2u7sAAGAADYOA6wYMncEMcQCCCATAABsAAGDggA9cJHhogi56/+C7PAZONKxxc4YABMAAGwMBnZeA6wUNfWsZ/TYeyh9gDA2AADIABMHAwBq4XPPhfWoD8YJB/1qsZjBtX8mAADICBzgAED4o3BBwYAANgAAyAgdMzAMEDyE8POa5w+hUOYoFYgAEw8FkZuErw4JeWMVE+60TBuME+GAADYODYDKwSPO1ZWq8v0wN2RLAjAgbAABgAA2AADByMgVWCB6r22KoW+UP+wAAYAANg4LMzAMFzMIX62YHF+LFogwEwAAbAwFsYgOCB4MG2LBgAA2AADICB0zMAwQPITw/5W64EcA6uIMEAGAAD52IAggeCB4IHDIABMAAGwMDpGYDgAeSnhxxXaee6SkM+kU8wAAbewgAEDwQPBA8YAANgAAyAgdMzAMEDyE8P+VuuBHAOriDBABgAA+di4P8B7+SFW00PaCgAAAAASUVORK5CYII=;" vertex="1" parent="1">
          <mxGeometry x="2030" y="323" width="789.45" height="167" as="geometry" />
        </mxCell>
        <mxCell id="4FZqM-bikuzlJvexATYJ-3" value="" style="shape=image;verticalLabelPosition=bottom;labelBackgroundColor=default;verticalAlign=top;aspect=fixed;imageAspect=0;image=data:image/png,iVBORw0KGgoAAAANSUhEUgAAAe8AAADLCAYAAABHwxtZAAAgAElEQVR4Ae19O5bjuLLtHc4x2izvOde8q602ewZp9ADKKiMnIK/sSqes4+UEemh6KwIIIH4AKZFSitI2clEigfhuxAbAFPk///nj2xl/iAEwAAwAA8AAMHAcDPwPknWcZCFXyBUwAAwAA8AAYQDkjZ0H7LwAA8AAMAAMHAwDIO+DJQyzbsy6gQFgABgABkDeIG/MuIEBYAAYAAYOhgGQ98EShhk3ZtzAADAADAADIG+QN2bcwAAwAAwAAwfDAMj7YAnDjBszbmAAGAAGgAGQN8gbM25gABgABoCBg2EA5H2whGHGjRk3MAAMAAPAAMgb5P1QM+63n/+e//v5ef7x1+MNzj/fP8///ST76O/j/HYRdv4+//hd+v56//uhYg4ieDysISfIyRIGQN4XFWANqF6MuZj//L5jQS6yT/9ofXt9nsu2BPXv+b+/T+c/r47R5TbfgryDT0S+l/r11+n8a8Okgm24VOcd475UKHD9ciwjZojZLTEA8r6qQH4/n4gANGH/83Hej2znBLsNEBPZ/3xcsaI8zgDdRKAUmw3kS5MSrLiPg5VtYwx+In63x8A28qaC9vNUtwM/zz/+odWJX9VUouOtxqSAMWHIVqS/XohmvFVpZRsy/ePbOV1xKcK119dvg64hgbKCFL/0NjD5RN+17V237Sf9bVys3Vp2Bcwgpkuy+bqKTzYAre5ud2mrffI4+Hb+z8Au7ssrW/HXyyW/ZrLp2sf5TctIiDbP2zwfEoO8b4m3jcm/6SSOYgvyvn1Bk3zhiFg/Owa2k/dnKVaFGKjoUiEVQink24tWKcB9harbRrBxUZyQydtPXeSdbLfNyfbpgs5E0vvPirMFgfdpYLfSVYq76Cr9+33dTF451+OkdPx1Op/UPdNgN/sl8Vf92g7DRLaQ6yjmCzGbE9Q81y3GnDeJldjvY1S+98layX2/D+2wUH0PseLzVdYAswXXMqnox4ZpF5MyQYnxn8dG/MSx4aDhFTFBTICBDAPbybuSVC9OqkhTIVYkRgZwAW3kUIpsK4RuwFrSW05gt6Hq0bpdkaW2lhyV3c4OGzhPJN6ujDhKn6JPfy59bUzoXGxjbVA6Ddkt2bZGdrE/+6espZjR9fHW8jzXzT/jT/XT5Y7bmnYxdxoLIntG3hoLMR8JnhTxe/xG3Rfkc4o9lXe02/F/TBBXGSM4HgcLtyVvLrp9tdK2vxt5fzv/h4uwtPErrm9nJoSVW+4kvxVS1t1XQCyn6S3FtNlT5ffV8CyBSwQZicSScSzkkSximz6oMtslboUgNRH1fuLTTLa0KccSe4lhppfyJtepj20T7FjINdtqSLnaQ7nUEzEiLtMuxjwS6JyAta0xH+v7kg9at42hjW/MDa4jJsAAMLAOA7cnb190JysGLprDn+AUYmrkXIlAF11dNO2kgEhGCI4Cs57AMiBxQR76lRGoPhd1R7KIbcSOoNuQ2Lif9L/M97ndXWYCtiQ/uv0w18afKjdbeZtzZKeeRFgCFb2sM+QtxizmY07eDZOM7SIvO6exKjbhmGBnUiMQL8QLGCgYuC15138ysoVsAj5TkH07VxS5yKuCzX37ytsQeVIMhuSRtA1gqcRk/FL/be4J1pLGOrJgGW2noMfCni+y9MRkjV9WRpcd/OSY9hivkd1laOJPdIxynZF3wJHDgvk/i6KLfDT5kVs2u5J3JXU9MRz4ldnTY5XEZw0O0QZb58DAy2LgxuRNRakUcb1F3VYglXD7tU4UskLs19xPs+r2ZLv++3T+oQt2Jdh2nbfG9epbCq9s2c/u1ybF1ct3RMsE2bbjtd515O3j1ojI6T2903/4a/nRr9a3DXSbk3JdJgIqHm41S2RTCFy1aWRoZVLcjd5prhO5IV9Ovok3XdPYsSvvYDPJbnavywfLaH0sHqx8a4cQNMjbxkzigiPiAgxch4Ft5N3I4Drlt0xaViyZUE3Rfzy7bxkTyP66fGd4RD6+Lh+IPWJ/dAw8KXn7bVUCalm5mdXgA08+jg4s2G+LI6/OMXF82S1OjAc7HhCP7fF4UvKW/0ZW27t+GxfEjUJ6Vwz02xKYQG4vXCj+iOGrY+B5yfuuhRkD6dUHEvzHGAAGgIF7YgDkDZLHChwYAAaAAWDgYBjYRN7/73//Dwk/WMLvOTOELqxEgAFgABi4DQZA3iBfTMCAAWAAGAAGDoYBkPfBEoZZ7G1msYgr4goMAANHwgDIG+SNGTcwAAwAA8DAwTAA8t6QMHmyVnti3AZZ4xlffALYuO3KmbM8pQ2/O15fsL4wZqtxRk+xGzwFbjNmboLtlXiF7vU4RaxeJlYg7w1gX11UN+iQx8TuOkHYQkRDgui/Yy6PpI2PCeUn3MkjY49GMltitin//dGxixgY5uZWJFkfWXu0XG7MByZCt8IT5F6CLZD3ww/kG6y8t/i8liConX7mOn1vK/1K9O07Bu0lg3bYdm1utuRf+tb8/nj/xGpfYoLjy6x6h2Pwjhg4MHl3UusrOrfa4wIjT1lz16Yv2eiyJUn28Zb6JRlR7n+kiMpqjVabhqgqeckq1FwjItPyi/2Lqy4GzZLdK96P/vO7eflIexqY9kXs5qN9KYrEy75vO5Izx/OiFZuLmZ4YsO82Zs3uOphkl0ReVGPjOZfd8eVetrJCNuklW7QMqzvGpsXQ4CDB2RTDM7lbr30/n2rupnmsmPG56P5ttQP9EcvXxcDhyVu/vYoLpBAhFw5V8OpK4a0WXCZYTQBCuHx9mQTLoCHCUDqMbCLdSmzOFmNnfbd4L3BFt/++ruCvtdu+dasVAJnsSAx9zMg/E6fxwOGiLnIkLuo4Lfqqndg2l+djVoi8xYzjP5hkCAFObBUbKG89L9V3HyP+3jHBdqtH817q9zLOlF8rcyP+7HGc+gPyxko0Gct74A4yvp2PT9666KriRUXFFlpNbPqzKsJtJRivc5HSuhiUM/LuBdzet6Y+quCSHGW3+cw6oi1j4Ma2ud0T8m4xoLgk/mlbw8AspDm6593srkW9kWuQEycF7IePm/Qjecbuep9Y8rWgbypbdNRX0GaYsudsbEP82RaXf6WjxcicS/JQJ30mhtPc2JgWn2VXqh+NPGOD7S92shwXe7mGYx4zxAVx2QMDhyfvUbHR25SyVUrH0j6SnCXNeD0UYS5sWVF1ZOwLYCUSbRN/lgIYCnC0ZZz42Da32xJMkxd0J/6FNqOBWIg85qec94TXbPDxUt91Tk1/ssls5VcyEvImGbqNxHqNbNfG6M0I1JF8iP+DkPeaeK9pA/Ie4R/n1+AHba7HyVOTty20OkiR5O5L3pOVVyDHxFZFKBb8sW0gj9p3uAVsiG0LeWcThELc9v6/zsvaz24CEGI2l8OTAOOnbu9kq1jHmJV4W5zZcyH+D0LebFcy4YmTLR2b+BnkHWNixySuIx63wcDTkndZaemtaxtALuCyMpPVcCvotgC3VZu0bwU9ITe6NiWTIntIYGxLt5vtbDsG1oc4KNbanRFrZnfin7Mv2lBtDO0KKQ79bjFd8pGuOz8vfFf7nHC87G5PJG/5GZeajPEKv3+/HXmXHLZ4Bgx3u4c5uijmubxpLMWmMG5yWbe0E7IR82fDwPOSt5CoWV30omr/o/vj/OYJVwoP9f99Or/RT2KkCHGB7vcJy5ZtJ9w5edMgqgSubNOrNy6I9RqdJ9JYvSKa2W3+e7nb33T7GGT3vOUfvJrtEtNKzu28ikfo03Wv8yvGq+WiEZDX32Om41lyJTbnubCyo1yS0WIWfEv8FtyQrZwfrX9SVJdwZvL5cX4j2W0COpHbYnZtmyQflPegW2K30t/Ndl3rD/o9G7G9gj8HJu+dB1wgrp3lozDhP29fDgOV5PXk5eVigDryCkT6FT6CvKWYgLxBroIFHDdjoe12gLg3x/IriAE6H3/SBfKWQg3yRpERLNzjqG9vtFsN/XaC3pZHIX38QoocIUf3xgDI+x6FGjowMQAGgAFgABjYEQMg7x2Dee+ZF/Rhtg8MAAPAwGtiAOQN8sZsGBgABoABYOBgGAB5HyxhmGW/5iwbeUfegQFgQGMA5A3yxowbGAAGgAFg4GAYAHkfLGF65oXPmIkDA8AAMPCaGAB5byBv+S3ruqeEXQuw8qCL2+q41rakn/wECr/vvdtKpjxC1z7ZDQU9weaGsY54Ip6PhgGQ94YB/ZjkLY+k7L8Zvivx34K808eEkn947CYVlK8i7+xZ749W4C62R/Bbf3t/17GzoRZd7Cd03W1yfavcgLwfHsSXrLxL2+d9wMez+3es1c3zkTfhS+1g8KRRfX/4WnEs/NyK1F5F7oHJu5NaWXnQSswNNLNic9fCCyX0ixW6bAECr7LbVrBe3Ua57cUkehbf+tIAK/LbO6jNNbqu5ZcV9KoVAOtL7DFFx8oORG9iZl/AQbGQ3QaxXdvV8xD7LfUluWSLlqFllzyUuHmb2Sb3Ugx9bln2Uj4WiuJFMfO7BTYf4eUeM9kaX+kuxEQ2yf353eTTx1Ww748c2+SpcPJCFx176WvOLeremA+D94XcTduW+HkcFv+XxtkWvegruMFxjIXDk7d+wxMXfiFCT2RcBFXhzL43AijFQw9aHrAiuw14GtzJIGbZalvX2WLsDK+39AQVbRkDWopeYhPb7GX74jTwR/xlP1QM5bw7kn+BCLJ4q9iVgtj7mWLf5Hv7K7BdfGVyJDZ42eUVr92PeT7Gg6fkYSFmzm/vVxqr5u+CbGmX5sXHqmJDMCwYNd97TMYY6/EY2r6QjxL/f/tb+lz7bfno9q3xYd7Gj48iu+BpNMb21A9Z8/y8dnyOT95SfKiQUUGqBEwDTIp3AUApXoWQ9ecKANVXiv828taDW+ujguCKpNatP3Nx1n3XgVXISk9sOAZUJNsEpcjiti2GpVjZuCmdXGT7qzZHAysW9eKDl6vbWTtGr87M5ZAdWpZ/7WaQbV51upAPIcjhcR4zskvjqOyqdGzQdcFsjOdcdmvPeUkw5XGm2wWcka5uV5M99NvF3LWb5UOP06JHY3xbPjT2ZXeIjjYHCtPObu33PDfrZGh5+IyY7YmBw5P3aFDywEu29kp7XSwqoEwxi9cjAVC/QcEzshxgKwHqwsKfhVRD32jLagCILiFnkp3ERLY7Wa704XaOEKjQaRlisyuApnDztdwH3S7EVxNNk1/k+EkA263iRrJ0myC73pZgLBh/yy0Kk4+m2+VRnzcydMyKvTHmmiRtm4DnoWxlTxYrFY+GF90uXB9gWfvpPuv8NR3SRsn3+RiRN+fM+HtlPsSGDUfGjJ/8bJAX4gNZh/+Hsa/O6VOTty7gNtAJmahis8vKe0BsflVo7bK7B+VaYusFA5+LkNhifFTFfyBvqYDxBElkKxmxqBcfbD7sOdYlkwySpYmmybZ9bOyEfKiNJsd6n17L1pOuVM9ybKzu3t7GrNgbCLn50/uxvEpco/ZWtuqb+UC59uSjzwUsSPyU3JGd9XzMs+4r8mI+RuTdJ1N6AqRlLn8uMVKkXyero5hmeSwyLIaydji3nA/E6HYxelryLivE8QBk4pGCXotm3750JMFFT92ja0VNCpRLUCiM+nqRbVa7TZ6QVreb7bxy208mIV0X2dvvKy8OLF3stY31Mxe5VeQt/+imirKTzbIkHyQ/I6Tw/wE6rlXH78/zLy1H/slOneOYNrsX8pH4PY1b5pcn0aHMkp8h0TjZzY40Vj7XCaZbDCiOAywPbZV4n85/DtoUfMR8ePIuZCnY2DkfA9ta7Nz1Yksff1m70ua6rfhMHs7ZcYx4rIvH85I3DUoudnoWLgVCipVc+zi/UVtdzITQaeb++3R+e//s/2AT5JIcNeC9LFcgGqmqLWy9KpXiQNutdJ7IZljQtezMLkVaZVCUoq63cpvs0F/5JCSobLYruyhX7JfBqP0y8RLZ2taUkBwBad/pc81Z86det3qze8yVMJRvOh9if3pciBn1GeuPMTN6F2QHuWz/CONu8kmyNd6vIO+AY52/ST7m45LG5oZ8eExc9D3mg8eJiZOqK97fi3StK9Ap5qAHW+5/fDsfmLx3Bn8oZjvLx4C7/YBLCb+SJwrt7ePvMT7Ih195H46gBpPEw/nh84Xv9x8jG2IO8pbggbwPBdxYKMercl6hgrzvnN9xPo5L3n1HwO/uRDxi8o+Y3BYDIG+Q952L+t6A7gW139u3OkDeNh5LRVX+z0LfWumf9bZ8Jnc5H8cl78xfnFvCE67fBiMgbyFvHA9O4rcZICg8iCswAAw8IgZA3iBtkDYwAAwAA8DAwTAA8j5Ywh5xBgibsDIBBoABYOC+GAB5g7wx4wYGgAFgABg4GAZA3gdLGGa3953dIt6INzAADDwiBkDeIG/MuIEBYAAYAAYOhgGQ94aEyROubvubz/LTm9vq2HFmXR9gMfrZ1iPOYGHTjvm/YDzdZ/x8jW/AFOJ+awyAvC8oNj4Z9yk+l5J3fMTjXYn/ZuS95NelcbLFhX7bbB5NugEXHSfRZvm99F1zsosvNl7dx+vP32f8XG7fJiwc8WFPMmbl8cD+cbAPip89MHhkGSDvhwfmJaRU2u5PQpcXwH0HxRq/LolT9GdTwV6BISYqFMVDbM1uwsIRydvhl/zHzlmsEfvWtO3yD0zevVgz2HjWaF+kYV+A4K5NXxjRZUvCuPi2R2zqFVWU254gpWe0rS8lrciXVVgcKFp+eXnKqpUa60vsMYPTyg5ET8VHZuDJG8hktSRttF09D/kqdtaXrpEtWkaTveCX7iN20VH7ZnX3GNnz8qIaXbwoXr094YH0adkWZ+5ajT3rceS9eI5y8fO7ebGJ0RswvPT0M1cwLsq1l+0wHN6cZnEWX4IisbaxLeNtqe/H+U2PLRdXGbOjo8+54Myfb1jSY9fFTPrKS3FanzaGJG5LNYVyM/Pb5c6M6X2vcRy0z1VXGWfiz746R7nC+XGcD0/eukgzuAR0vuDzoFPAy763IrBmoFFQY2FnsLUBXvU5W4yd4TWXRXcv0tGWMaBLW//Grt7eyy7FohWgkT9SKNgPFUM5746B3Oh6Fm9FilI4xW/+7vIx9otyMYnTX6fz6f3vtuqzssvgSG1mv2KObdt4vce7D7xMZyn4mrxcfgRHKzGd6nC56bYt2O3y5WXzd7Er0WFj1OPQ9dO5zAYXA5noNl3Uh4hfcFi+dwyPdNXzKzA8tv37+dTsSDAtOG+41bZEfPoYjvVqObf+HO2UnJF9Pe63tgPyJe6j4/HJ2w+mOnBoYAgRFOc1KPXnChIqVm3Qxet+oBWZWfGRQR2Lcikw1EcKT6Lb2EHXoy2jZMp5trXO/E0MqHA1H4tu61cphKaPLsxc+JZfTxqLUPHBy9XtrB3yek8bp6FfbOMFcUoKuLZF4jjKsW27ELMaP7bdxZ7kG1nergUsUF9LWgM86hy2z3O7l2SXXNj86LhR/z6eKs6bbvme2OsmDSzTxCX2MTEMOkRXPa7A8Hp50Za26xbsiPj0mF8XM+cP6ym5DKv+BG86R+Yzx73uhlzSL/iZ2YdzJtY7xezw5G2LVwcJD4S2dSVbdFLs4kCygy5e9wOtJCMZvJSYUHS7XcPtNRkwoW+0ZTUQaqFq2/J6gOrY6AmQ9DGrG2W/liE2OzDG4pf7oNuF+JqCrfSTLrFR2z2d5BT9trhZ4tG22PjGHIe2Ys8oZrK9ncVL5ZtiYCY46lqxqfhR2mQ+Ec71pNHFzeWpxTHYvU42xUFiauxmPVZGPk5jbNOxY7AQ+4R8eD/99wUMz+Rpn4vvLt4hZ5KDEg8dh4B52WWoY1O3tZgUmTc6cnzs+Lirfp8vfG+7hjoPT03esaAI2ONAskUjXo8DjWTFQsLBHQ5gIZ7JwAh9oy06gUuf2W4hjSBb4pEfua/fJVADiQuZyHbnbeyLD7NzIb6mYEf7jF+sexynYGcie1ywY47Hbeu7w5OYRXvFJ5FP9i8RgfZRfxZZ1x9tri+VTT7k9/oZn3VyE8lIfFd2Z8RhzsU+s3wsjY+ADb8bonBtY0Q2R1tsHVF+JZNLlmcmoKr9MGaqTbOtxF8mUu2YjM2leJTriV9NV6Yf59bFdd84PS158yCarEJ40MrAqQOlb/OV4tXIhouH/icmScIA5FOSLLLbatgPCralF3G281N2DETv2qPXVQZ588vr9t9N0Yw6R4SUFdNQ+JzsUMg4DqNJjver2GZyqnyx52tfR7AjX0qB7vEvfkyIyvklg3osvxL+78/zL8Gj2O5wVHT3mPjvouuqo7P7MtklpmNcFdytIm8mRB1fLzuOuQxva2OQ5SU7R/L8ecaVrzFu/HY7nB8c76ymyDgbxUyu3+7o/RQfUn8Fqzimq2OJ3S2Oz0veBCYZIHUbyv6zRRkcZZb6cX5zhdJsKf4+nd/eP/vPJ4Jct13pZQVgC4Hk2448eKrNVBBp0MTClwzezC5PCLU4ttm5nhiE/n0SQeDTdrW4Nd90PJf98tu7LFvbqsk72DUqetaGRiYsq9t0ej+dfznylv8taHHRtmj9P7/b+9T6GufMxkwG7agg8vVqX8hxkN2J28ht+F5zn7niJsiOdod8t5VcxK+djNo8UExbLtJx6caPx6jORbLavYS8g08BBxQf51/Tb/369X4Kv0SI40TlTOPQ1xTvs49ZG2fJuN96zWOh5dnqktiZXG7Vjf5Xk/6BydsCS4rZ1UcC8AC0V8sEMK8G5kvFXE9UNGaASeBH4+GrPzPJx0neS43Vr86B0g/ylmCgUKJQChbuenTbqVo3MAlMajx82WfZcQBxP9JEBeQtAwKFEoVSsHCXo9qabduybjcJmLwIk7Kt22596NsJ/t70XXLs8gmdF+XzkYjyEW0BeWNAYUABA8AAMAAMHAwDIO+DJewRZ4CwCSssYAAYAAbuiwGQN8gbM25gABgABoCBg2EA5H2whGF2e9/ZLeKNeAMDwMAjYgDkDfLGjBsYAAaAAWDgYBgAeR8sYY84A4RNWJkAA8AAMHBfDIC8N5C3/DQlPBlrg8w4AMpPinbVIU96Gv1EaVf77wvoGL9E/1f+BOsGuvHYyiTHz45h+PfyOwUg7w2D4CXJe0g+6nfLg8eEFpKpjyn9yqfZDX0YkcCOE6hLdY+evqZwe2TyFkzsOjlVsVk1mUP7lyfCI+IE5P3wA3dH4tjD17XkQ+30c6Ppe1vpV6Jv30ekeaPza31o8doxB5fqXkHeRyw8bDPH4uN8+r3y2f0tHzfCBeSDxA+EgQOTdy+oMnv3L7uwLyaJj/aTlXN7IlNbDXbZUhi5bSMbeVygf6FCLSpSoGV7mlairS+1qeQlT4Ay1+i6ll9WqutWJkt2f+OXaoi/4QUDZPfP7+YFJK2N9kXs5qN68YIG/gLpcDxbvJeK8ZJfFK+P85u20cke5zrJh+rbsVV3DKrvLS7kM8WtxeQSnM38jhgoOpR87a+eKIlNP0/nH78rRv+hl7G4F5cs2C3Yv82x+Hf6J+a26Kv+h7Exixmu3SZXiOsjxvXw5E0FTQopF1oZ7FzYVKHjQqWIJvveinYsKJa8BcxUYJQOIa9WFKs+Z4uxsxK5+CDE7r/vRd4CQrKh66j+iN0SQx8jIYUWJ4lDPObx6u32J28iKclvyV/zz/tB35UPf75/nH/8Jba5vpzTiAeJY3n7nMJApqvZVYle6W5yBDv+yNgRv8RGd8zasB1lRVsmICRD4dVhskxAFvR42zZ872NgFFuQ9yI2NsQfst0YOmAsj0/eQjQUfFWUiRxa8ebE6CKhP9ckqr5CoJowczJSxVAnnwunKuiVoIs86uOKpNatPwe7lwAX/crtLitwGx8bvzK4E/+CfdqmWnB5Far9122+neV1qzq+82Ky5Fe0s/sd+2qcZHp7X7E7kVHzTW1tHHVb/bnKmsZP9KljRswaa/Q5a6P09Ilaj9PcbqXf6+LvOs9qR2LtpMTYm8Qo1blkE65nWMa558XF4cl7RABltaEKS93WLO2TgqGK3S7kPSpkXLiiXW0laOwg4CW2DotbbBuJqIC5F3QF7qC7F/tWBEIb1d/YVQp8zE85bwlvJEPOL/kV7WS/OQexbyDvLCd6UjjJwTaciX+ToyG6QbusjcpTz3WP09zugR6T32vb+Hz479fKRb82RnfJE+L56PF8avIeE0RSMFSxywgzJ8FeDE2ijSw3CLJCqwdb6JvYqtubz7FtbvetVt7W104acr4Qt73/L9dmxyW/Yh6637GvJe9ik8ZK7ys2JTJq3KOP0oeOSb+QX90++byEF7Ija6P0dBt7nPq5RKfBVHa95rHd56+T0dGEVctjW5PJq78fr/vgM/6RDBgIGHha8uYCnd2PriCg4tVIRApKKz6l6LaCToWQiotZjVFR68VwNXnXgh5l1SLJtvQtZ7bzc+1/4661ewN5O/uM33qAhXa14IcYZuTgzy355fJQ8ymr/nmui13SVrb0fX6MDO0nY6Pny8fD9Kt2tV0WLWf42dmXtWO541sxZEPBsorTgt3ej9t9TyY47GPx+7JYedzg++3yhth+dWyfl7ypAAjpthWCLnC1OPC1j/MbtW3kLauZvqJ4e//s5B3kUjtVwL2sUHBLwer/oSzFtQwIXvlVm6noUvFt5BJkuUEkBEH9f5/Oxu7kv9j1P/zZFSnJVcVe6dX29X8S0/F08fjjm/kPdu33rfyycrVt9b/SVa69Pz90rpvfWobN10U4o/wo3asKgMFbx5m1W1azFeMKgyl5k19GLvXX48PhqsVh7/Mj8pYx0v1dFaub2bm335CHfG7DwIHJe5vjATiq2IVrKAhhy+axYpRPMh7Lxp3x+gKY5F2LSyc6LxAX4BpjiTAA8pbBDvJ+cIKeDViQ91MVdNkRAHEfeEzOxiuu7TFeQd4g7ycoEAckb317o93Wka1vty0vGMXxCbAK4tqDuCADK28UAxACMAAMAAPAwOEwgJU3QHs40GLWjdUbMOOrmQkAAB04SURBVAAMvDoGQN4gb5A3MAAMAAPAwMEwAPI+WMJefbYJ/7HiAgaAAWAA97wx28TkBRgABoABYOBwGMDKG6A9HGgx68bKCxgABl4dAyDvDeQtT7iyT/Pae1CNnkC1QY/8TOmqR5Vu0LtDrPPH1H6NTc9QPFZjGM9BwCR3w/h9hrHyaD6AvDcAcnXh26AjfbnFJnnq0a/XkPewiMvjLOW3yvGxlvzELPlN85UP4OCY72r3DsTPk6GveLTodttXY3iY9+02+KIoNl31GN2tYwP9MUk5CAZA3g+fqBusvLf4vLaIUzv9rGz63ki3En37vp4AQN7rY+VJcdP3tXnfgq3al3LcXgq0g7xNfkM/yPxBMXBg8u6k1ld0brXHBDJeCYYZflsNdtky8C1p6JdUOJ2UaCl0sj1Nq01DVJW8ZBVqrlFx1vKL/eu25pfsLm8TkxVNKJCVYHVcWhvti9jNx8GKc2E1yjpavNcTks2D7udiJjFdZfeF+Wh2O50tLgkmkgJAvvx6P51PEkfBq9guWGpy45PXOvYF57GNYNgete25vRoHjJnmt477/p9LXP6ek0bNa8NnEl/r7/52Qj5i+pUYODx5U1GRAcyFTAofD25VlLgwKqLJvrfitEyCJWlUAJUOKSBShGXl6WwxdtZXhIoPsk3uv+9F3gI2sqHrqINQ7JYY+hgJmbQ4jQfvmGRLH76+Qo7YK8eR3LefKrd18mNiRr4M9M3zMXh9quSajpxfrX8cF/GDjuwL46dOHsg+I2uAL9Ft8lNlSO6kzeJxoMPIVhPSRXnrfNdx8J8pLgGbXi/HKcGwb4fv80kQ4nPY+ByfvHWxUgU6FgBNyPpzLTaqrxCoLv45acwKnyZ1rY/6uEKvdevPPLB036XCGNvmdg8IKehO/AtttE3UXlaA2n/dRsjugtecqgIz8scTQJicDO1eyMcfdbdiQPys1xCu81XZ7m3svqi8GVklniMis5OOOhmY2ZnakuS4Tig1/ttuUirD+VyJVXZ42lGP1YkcjkvDkd+1cromcny88R2xeyYMHJ68TYFRA5kLmy4A9XNpr4ql9DHFPV7vhVYPgKzwLaxSRoVNiq6xg3RFW8YAjG1zu29F3j42GUHPCWnsW5E98ie+m9qtykJcq61L+WB8lLgKCQXMGcLVMZh/7r6ovHlZxj476eP+bSJYZIyIfhzXDMPKnnR8zP0a67qmX439SuLfV/c19qIPcnAfDDw1eY8L2VJxitd7odWJyQrfGvK2RdiAPZBMtMW0l+KqSEaTS273Pcg701GI297/1/Fc/pz6UwlO+7165e3J0sQzsSfRtWnbnElJ5XhijyXrijM9QZUJ4JIP5nqGYWWPtA24TGIjbWuMZLLTjlcScJpz0YXjYbd9x3Vsgi3ku+X7acm7rMTGW7dmy1GKTSt+pXg18qfCRUUyFJ+s8C2Qd11JR1kVsGxLt1t2EDQxjUG/1u6MWDO7E/+cfUNbQrvtxE260kLuddV8tfzRgPdtWhEoMRvmo7WTglL8sPnIzkn78bH7osiS7RxM7tgvuab6BBvHOmO+khzLrQLBO9v07/B/BqLMS/QvtK26bbwln9mYXJC3KVaQfdNcIzeNmNfE+XnJm4AgpNtWJ1L4aBBWMuFrH+c3atvIWxUHuv77dH57/+zkHeTSfd5OuMv3BythNLvsFm9ZYZV7x0RAROCheI2ALoU2s9v4LPemlW4fA26v/Ko6tX3952A6ni4eQrrKX1mNrfMrxstPpmSSw+d/n84/kn/Iy+0mLET5nfi9XypeOgcGEzFm2WBcJG8jM8Y04vsCgg2yvXzt98f5jXClx4f2fdfPPhejWIp9ekyDXDOc4dxz4uLA5L1zQgJx7Sx/1wIH21CQCsnZyU851ycez4yTSvKyO4DxddGqDePn+GMD5C2DHuSNwS9YOMSxrDwNeY+2mA/hz/pi2nZQQNwYs0+G7UsmVSBvST7IG4VAsLDT0Wzlh1sGO2z3JlvfhcxlS7nfGpHbFP52wyXFAm3XTzAQK8Tq1hgAee9UqG+dKMhHMQAGgAFgABgQDIC8Qd5YcQMDwAAwAAwcDAMg74MlTGZdOGIGDgwAA8DA62IA5A3yxowbGAAGgAFg4GAYAHkfLGGYab/uTBu5R+6BAWBAMADyBnljxg0MAAPAADBwMAyAvDckTH5van5ru0GezKjsMXsYx2j2eUnbkYwvOq+fDNdetvFFtuyew8fwg3669hoPcHmMeNtxDJsQj30xAPLeUKifkryZRHf4DfK1cb1a/y0nLreUve+AnhXIi8n7kZ99YCZ7o0eo3i+2s7jjGvJwCwyAvK8lmbv1u4Q4Lmk7GFBXk+dA3qVxulr/Dr4Pbb2l7J3iNrS9y38a8uaH04Cwb0EIkNnHy6PH4sDk3Qtqf5KVG9DmCVTuWvayjPbihS5bEthfIkHJ1U+winLbi0n06sA8yrHIb0+9Mte8/PKUrHVb82K3tq+votmH5mMBaT+n++gnc1n/ZLeh2N5llzg5GU6XxHJ6HJK3i5mS3fOv7bZbxHO7nWy1bb9G9tgfisfH+Qe91OaT7Pl+/vGbbNQxncfM2l39C3gZFRzvl42Jf7FJw5jGrXkynM63k63yMY7HyM5LzpNeHb+8b4nbcrvb2prbBp2Iyx4YODx5l6L4N/+zBRdaKWxcgNTgZSJXxSf73gpQKUytmAnRi+y2yqHCq3TI+TZpqPqcLcbO+karfi+y6PbftS3jxEtB7TYZXc4OeZtW1yVvU1NxEp/o6GLGBbLFbPCaUd1/zWe2Mer/8/3j/OMvGfQ+RnQ+5qzFacFu9iPkVnQtyJ76VImZZFdMUB4pJxJz/bnZKzJdvjiXKt6hvfSrR5P7+ppP0csTUO2zixHLpnMDfcv50PHb8XPFh0yIeBKZ2Ajy3jHmDldLuMP1+8T++OTtC1AdyDR4e6GiYOrirj/XQJtCFa/nBX5G3p1ArW7q48hJ69afedBEW8aDI2lL8pQ+QxYZUWbnFBnYSYT1/1JySf2Y6NftYz4S31faXQq9y4kpWGPZ2qb4WcVH5VXnYBYztksTk8tl1KeKRhJHrTf2VbaK78rm2F7pGk5ubRuRUeJtd0mIhC228r4yCepju+Rm/fvYB3LFZxzxX+cHwcDhyXs04Lkomi2/UixK+6QYm0IVr0eyoCKQFDxKvJHligUX1Vi42gon9I22SBGMx6StL+JKPvnUi2C107dvQC6yeaVj4honKdJmlJtot4rRSH8WNz1xM5MzJa+eF5v6UdtdVsNyLcRkKFvryT4rfKi4WxK1cTUxoz5qZ4cxbXzOdNZzSRytXutz8d3G5GIcr7WtYWpi/6iNimPDUXZu1B/nQc5PgoGnJu9YhKVYJCRnCkC8vi95T1Z5xg6yN9rSilYAYdI2yBNCobauWJO8pOgXfYnsoF/iK3JWrqa0nFQ/2dy3msmemI+RfaPzylatv/4/g8XOpTJEtsTaTug8ibZ81glKI/D6XSYVegel9TG2i16Jv8WZ1svxUzsy6UQ0YEfkr8mHtI3HojtOYJvfI5/ofIaPoZ1R92LcZrpxDcT/QBh4WvIu22sJOdXgm1WMFMm2RVmKdSvgVBxotRlWFqo466ROi0mRHWXVQsO2dLvZzrVbioHonR/VRi6evz/Pv4I/ZEMpzFkhjQV/VhzHcqYFNCvO3ibJl7Pf5FTl4zK785iNZE990TszChMkq2FL2eljP243i7tcs/EXwhS9BQOn859VP/unVvnsl8Ni99XKLoSajQ+xZc+jz4//XnSJvxmOux972gVZiOt9MfC85E1FSUi3bfPqlUgpQGVV83F+U8W1F666Ovh9Or/RfwwLWQS51K4T7nS7kYtlKTh9RWWLuRQeuk7FlgrruiI0l9sGVyW/oUzjn/JLVrwtnv+qf2jS8SxxE6Joeg1RWaBrn3tcer7s9fof3JKPJtfaoPXb/truGLOW5yaXbB3LHvtHfWr8FL46KVuZku8mTyYpOt5mtWxj2PqJ3TqPP7/zbkWPidX96/3UbZX+Id+X5mPBPqUn2D695m0v/7BqZIjvASO3sglyTfyn+UOs9ojVgcl7ZwCo4rpHYB9aBpNCL8QPbesLF4FO8h3rvEIGIS1v3y5NUF8YVxjvfTwdORYgbxnEL0Pe+TbjkUH8nLZneSorzr56fo4itG/++k7KcGdJxjyOy5MgxOhhYwTyFnA+PXn3opZvC4MILiWRsBVvtrft7YZLZXP7ZNtciJtX4Eaf/gcw7KpcFW+pBTg+LGEhr71Og7wxUDFQgQFgABgABg6GAZD3wRKGmWefeSIWiAUwAAy8KgZA3iBvzLiBAWAAGAAGDoYBkPfBEvaqs0z4jRUWMAAMAAMdAyBvkDdm3MAAMAAMAAMHwwDI+2AJw8yzzzwRC8QCGAAGXhUDIO8N5C0/Fbrt70nLT7xuq+P4BUD/dEp+TvWqgxp+Hx/PyCFyuIQBkPczkXf9XbAmr0Jqe/zu1z6Ssj/CdO2jW+8zGMlf7f/SAJDr1/aT/tPjUZ8hcFS7h2NaPevA/EZ+h9/kD3XeB/dT/MG2p7wlAPJ+eGBfsPLmYqtfOPL9fKIXkFzyPOwV8eAdh/YSl8cqTteS8LX9VhXNo5LgUe1egeGWN/Jx5/HRZF9iB9o+JcHeEgsHJu9OalR4y0rQzaB5YA6uhZcuxJdV6K1qJqz2TGm9CnU6aRBK0dNPyGp9iezcCsBco+tafrFf2zIEBOn9eTr/+F1X2v98nE//kCxto5PtSFhuBeiVtX8iW0bei+fYtvJyDJHtV8hW93W7BSMStrJ7POx5wYp/Q5aNmbfbvwCnXdf5Nyu9Nb4RRj7PP977G+0E5xoL3n59LcOReYHOiDCW7OZx5Xww5yheH+c3LcfhzMas52OI7ZGtG8/neKn5DuPysSaq944V9D1W/g9P3kQEUiy5uMmA48KhioIpLvLGMVWA6HorMH1iIIDlIimyW8GgQa50yHnWRURQ5TtbjJ2VyMUHIXb/3RblAYhIb317FLV/+0n6rY15saryMjtbTLpOjoU/7/oGPyQmEkPfnq/3fKQ6JL6TY+rfX6fz6b2/eSqTnfZjPQULPR+lsPd82PgKXsyRfPPxmvhQ+tYJHvXjWBWcGxzy+R4zo/MPyr+ahFQZ3e6eT9+vfR/a7WPgdLXJp9jmYriQ+6Z/MUYrfJjJGMav+OcnrXeza2YzrmGFXjFwfPIWMiCHVLGhItcLLg1yTcj6cy0Aqq9tW66botkG0KBwkyxD6lof9ZGilug2dni7a/um335vNlJR+vlxPnFsrI1c0AdEwv31NfbD2So7FrpdtccQoC+MC35RX0ss1u61hdPYMIhTef+09WvYj/xwvrY4s3yys08gUzuD7zZvaR+NVxVLo5vP+7iJ7GJXj6kj0FFs9PmJ3cYON0EsK347qdXt6fN4bIr9g2P1WXZv2lHXAe3D5PMw55M+ea4GtkIOiPaGGDg8effiZAcQDcw2sNWWZWmvybT2M4UqXtfFpw/gAcEYWdauQhyJbUIQoW+0peu3sruNug991oW0XJPYmPiRbjXp4BgmRZH1iL0anMr2UKDVtWJ/saMUcWuT2KZtGfnsz+cFOZO/krw5Jkm+dFwMoVi5bF/w3ebN+1C+F5s5PyPypthr+0xOqs9iJ8vQOFhhw8xuZRPbIHoYD3FcaMzMx+YKuzTmrv18TTyu1YV+IPEbYOCpydvO7nVRUIVRgmoKVbzeiVHLiUVqsVjroie69dHYQbqiLXmx/3YOhMlyJ/3ZFrVyq987eSZENFl59xUX6XREMfVrYqOOzYrPGXkzWWhiS3KQ9VvMZWIP42S2s5L0yfOpYqLszXFYMOn95O9q4joeDxrT6nPImbqmcEl6zCQwrMQLNmUbehjrNbEJGK0TKzN50Hbmnzk2F/bJ85TLR1vE5dYYeFryLisSRyCqOJjBKwWhFfhSOFuxoyJGRTAM9ivIuxa9KKuCnW3pdrOdn7445gPjYvKu9yal8K4tqkwgLVbWlnJN/8d7ve6IgNspkvPfrwV+5oPJtcRf6SZdY58oxwvb4gpXBXdu0uNyus63y8nb+MA6nR3azjWfl+zmnH6G2wp9EqcxrTDM46ljfF08LM429VnyS+7ZDzC+SfeauKMNVuorMPC85E3OC+m21YcuZqUol1Xmx/nNkYvZ3v59Or+9f3byDnJp9q+KkZcVElEKc1/hWnIoRFZWFDSBIPIRgp0Vjoy47Mpd+9zlN5lc1OpKJo1ZKaCGJLxvVUawN8RM50LJbXr1f/8vFe7oF8W2Tb6cX6f3U/LzOZcTM1GL8pt/wS+FAxUbndP2j4zqestBO7dM3lYm5c3GlCctOp46Jk3PPLZWh5Uv/83e4txkTuIlbULcvOy5XTFea9vXPJv8+r6ChTyX1+v2evAdsbweAwcm7+udTgGzSLg765Mi9kDHjPyZAKaFzsWFiTIpxIjvfVcTWR743J6ERCSdyRudd1h5IOz7msC4x8r7vph9YDx4fDzCd5C3AOblyaWsNuwqqqyg7LlZAc5k1PYvH99Z3G5wjeLtVuJlFZ1MrGQMXHgcT+wOTN4ct0t2fW6Quwvz8AhEAhvujwOQtwwUkMvZ3Cqo263riFu2GbP/C6igRnztKsZt5etbKGbLX/B5xZHJ1WybF+K2W+H+Nkm2kraFqckdrkwPTN5XxBnEZfGBeNwnHiBvDFZLKogH4gEMAAPAwMNjAOQNkD48SDGTv89MHnFGnIGB42AA5A3yBnkDA8AAMAAMHAwDIO+DJQwz4+PMjJEr5AoYAAZuhQGQN8gbM25gABgABoCBg2EA5H2whN1qFge5WCEAA8AAMHAcDIC8N5C3/OSmPW1rg6zxoCk/w9pVh/xM6ZKHr9zEt/UDRWLNP6k6kN3jvK73/bYy1M/86GdliO3iClSwuDgm8fPIxVjeFtuPMsZuYwfIewMprR7EG3TYx5vuBIIt5D0sSI4Ekidvtd8HE0kMfyM895Fjfg3BDO2e61tVXDie+z38ZJXOTZjqPnM8r8zFPe18JF2rx/0tMRfyXx6o1J8XcEw8PlKeH90WkHcYBL2wPUbybrDy3uLz2oJE7fQTvuh7I91K9O37+piDvNfHag1+aUK17kE8++pdY9vh26wdK1vGI/eNNYInyleMr8PHfHMsj4PzA5N3B2xf0bmnQzGByBOk3DV5k5R+AlVbgXTZAmZLGnqWG+XyC1FIlqxww3ZkJS/RHQaZll/sX9yiGwxia/c3fsmJzM5D0a4EKysL86Qv7YvYzcfBDH9hNco6WrzXDxjvj+RHXpIhvrWJwiq7L8xHszvmqehPMJEUFfLl1/uJ31rGEx3Bq8aDnKsx9znr2BecX0LGxW8vk2NKeqcYdr63mMiraRf8SuJRcrk09ggrY93N9oZRl4tFv2ZY1Hqd3OqPHjuMBRWXjtWZjmuukV3WnnSc1LGQ5nuYj2vsQZ/b5brH9vDkrQnGzDYZqArQXAQV0WTf20BbU0AoiHHQ2OJR9TlbjJ31FZV9QPmCGm0ZAyO2TQfxH4XEu84KCI6Juu/pY0QDnM61OHUgeZtGeqUdX18hR9rLcST37afKrXvVKfed2D3PxyBWuthxfrX+cVzEDzqyL1x0S946WYqsAb5Et8lPlaGJX9qFoyahTvrhzXh6cmYwXHR1/Fjdy37N4lNk6cmqzznlq+t2soyd8mZBiad8J5/rOd8+xMrJ5+uDvJh8rB8rGhPXfmYMG5+SNxGyr5PYrfI9iwfOXZu3Lf2OT966WKkCTQPeDnBdFPTnCjzVN7vP7AtICfpsEKuJQyXoUpCojyomNGC0bv2ZB1Ni63CQxba53QNCCroT/0IbPXCpvZCB9l+3+daeoa4L9FoQj/zx/UOBH9q9kI860ZlOWLgoupwOc9Rj0X1ReTOySjwtjnt/O+mYvZO897FxKnpT+RQvs5pTNvI156+ye9mvkT10XumpMezySj/2ezDxo7bWHydv5teKnI3HvdNDsoaYS/yvxNp2jmQc6fq2ZB/7RuNvMvaWZOD6Yf7J7vDkPSKAMhMVIunH0n5poMXrvoCMB/HCoB0NUilGYcBHW2wB1oUgts3tvhV5a1sK8cT8zAlp7FuRPfKHC6UUvHo0RTzEtdq6lA8uZiWuUliDT4q4luzX17svKm9elrHPEib3bxPBIsP4vFiIJ31G8SKZ2TVl9yq/hrapWNQ2XZ7gq7TJ8jEf9wPbh7aIPn8kDHuCjHancbpYl9edfzcTGsrPFe9u19jE5zzOjxSXpybvcSFbGmjxeiwglNxsEC8UCFXkUiCEwhhtSftxUYhtc7vvQd6ZjkLc7X70FYUs9acSnCZVKmYm/yGudXAu5cPbmOgqb2OzxDrOUS8K3ReVt4k93L6RdcWZnrDIBNDbPPxe9Jo4SdtRvOg6k4PzV5271C8bKxWLakuX12PX+rh8hLyLP3Kc+SVtFo/ZuI92X0Te1Q+ZkLTjmpU393WTCZWPFqtFv5L4os/DrsSflrxLgXGAVkDkmaoMDBk4rfi5osYDQd0LbnKyQbxA3nVbcEhgbiCynZ/J/atmgx5wa+3OiDWzO/HP2TcsDKHdduImXWkh97pqvgwp+TYtfiVmw3y0dhLn4oeeKMg/UNlz0n587L6ows92OmIUG0xBVn3k+sVHhxfdn3S18eB9KDHo8bVyLvZL6/X/AzIce2KTywe3H4/7iwjV2CX66Eg6o455TdH9d/7MmLE1gm3x+avt1mN9ZzuH8YSeYR2dxOx5yZucloHfVie6KJZBX2a4H+c3X6wE6NT39+n89v7Zf+oU5Lr7TF5WSEApdm127ba4uPiprV8aiKuJYWZ3/UcurZc+tyIc7M6LlLav/eNPkG2Lm+3jb2MsDd4YL/ZBJl9yX1ry/Pt0/uFX3kL80kavYGVC1a6pmAS/9DVlt8GE9X00MBdJzsh0GEvxfenv5y3pGjsDFpSvjGc9fuzEdtGvMB6c7Asx3PArckPc1Lhf9MvZIjLpGOT6nOiYfJzfyA9PoFrenp+9balesU/FY08bIOuuq/QDk/dkkF0Doi2D+hp96HNXoBtieorYF+K1k7oJGT+FzzuP+ZeLSZ0Eq0nv842L18EIyFsGMMgbZCpYOMSxrKIMedcVqzl3CF9ep+B+FVm2nS8Q99PUOZC3FDeQ99OA+qsKpNcr/6/gb1OU7ztsXfqt0va/EbI92m9PGBu+sIA3ElG3KLpt6243+Djv8/1xY7aPf5ggPVscQd5C3jiCvIEBYAAYAAYOggGQ90ES9WyzRviDlRAwAAwAA9djYBN5I/DXBx6xQ+yAAWAAGAAGrsUAyBsrb2yTAQPAADAADBwMAyDvgyXs2lka+mGGDwwAA8DA82AA5A3yxowbGAAGgAFg4GAY2Eze7acf6RN9nmeWgxkrcgkMAAPAADDwKBjYTN7iCP2mNTym8GAzGfEFRwxQYAAYAAaAgUfGwG7kzc/9/cKHPzxykGEbigAwAAwAA8DAnhgAeWN3APe6gAFgABgABg6GAZD3wRK258wNsrASAAaAAWDgmBjYj7z5pQg7PK8ZZIoZMDAADAADwAAwMMXAfuRNgZb38OLe9zTomOkec6aLvCFvwAAw8CgY2I+88VYuEDZmysAAMAAMAAN3wcC+5I0V912S9igzP9iBVQgwAAwAA1+DAZA3ZomYcAADwAAwAAwcDAMg74MlDLPcr5nlIu6IOzAADDwSBnYjbzxhDcB+JGDDFuARGAAGnhkDm8m7Pdv8Ez8Te2agwDcUQmAAGAAGHgcDm8kbyXycZCIXyAUwAAwAA6+BAZA37nnjH1WAAWAAGAAGDoYBkPfBEoZZ9WvMqpFn5BkYAAZmGAB5g7wx4wYGgAFgABg4GAZA3gdL2GwmhmuYqQMDwAAw8BoYAHmDvDHjBgaAAWAAGDgYBkDeB0sYZtWvMatGnpFnYAAYmGEA5A3yxowbGAAGgAFg4GAYAHkfLGGzmRiuYaYODAADwMBrYOD/A2uf1PxYmsjUAAAAAElFTkSuQmCC;" vertex="1" parent="1">
          <mxGeometry x="2890" y="323" width="724.21" height="297" as="geometry" />
        </mxCell>
        <mxCell id="4FZqM-bikuzlJvexATYJ-4" value="" style="shape=image;verticalLabelPosition=bottom;labelBackgroundColor=default;verticalAlign=top;aspect=fixed;imageAspect=0;image=data:image/png,iVBORw0KGgoAAAANSUhEUgAAAd4AAACNCAYAAAAZ8xsuAAAgAElEQVR4Ae1dPZbbOLP9ljPBFzp7yQvfmWjC2UEHXoAjB70BZR27k46c9Qa8NL5TAAr1C5KSKLYo3cCHEgkCVbcu6haoNvifv/77bcI/YAAOgAPgADgADuzDgf8A6H2ABs7AGRwAB8ABcIA4AOHFih9PPMABcAAcAAd25ACEd0ewUe2i2gUHwAFwAByA8EJ4UemCA+AAOAAO7MgBCO+OYKPSRaULDoAD4AA4AOGF8KLSBQfAAXAAHNiRAxDeHcFGpYtKFxwAB8ABcADCC+G900r3x3T6/DP9/jhNfx8uRv9OPz/+TL8//0y/Xv+9U3yR/CCA4MBXcQDCu5TUv7+XBEpJVP69Ty/lvpZgtTi09qfvRGpJwP3etx+HScQvb9rnP9PvXW2/hfDuE4+/Xz8PWjAgEX9VIsa4z8U9CO+S8PL1IqgsuEwSEofP6deHnH95o+9/Ji289TPdU8XkCKugxxSPKry3jgcVLEeIMZI9z2McwYV9ObBeeEl43k7tEdrn9PP7afoVHgW2VUpbHYbk41aP9rpfjYiYVVLYvv3qqwiFWZXaFZq97vteAfpQeN+nn6+fTWh/TKe3H5MkXp/o63frt/VLrtH52nd9ZPlDsP+H7bX36seymXCGcyYen9PP3m9mJ4/JRzu22N2um76jENl4cKFS7zXXslX2P417HG/Vhu4lW/RqXYT2mnjkfv3+jFyS+DNWOCKxgwPggHDgPOH9rAmyJjVKOJR8OWH7ZF0TsyQ93VYM4GCUZKsSKJ/n48ubTnCu75KI2Y5vNemGx79yfxlLX+dV7dxxRnhfaHyy/ft7EWBJvC7RN8EQTOYwqz6WAqOJGN3n+xbBq331gsRhQjjKvd+mv/x15x+Ln/SvYzZnN7Wbj3UdW+LBMfbHnBMu9u4pgrfbxvqaeCSYFQyjHwbnOU7h2mF+dvHcxHedD/D5XD6cJ7xNrCSxqARLSciJmU2cNWHmifzbVBNmTGIjh8SGdq8e24kItRWxWyEMWUJ0fRa7euKlhP4+nVpxILY1MeSVWS9SGlFnMVPY0tge+1l7av9iB/ss+BLeNhZOlAiD4l/7nVfjO2s3jxVXuT2WrV8bk4aJwt7yp14v57Qt1F7hE+4pY7Hf18TDFS4dH+6b7U9wVD51DHAOogsOPC0HthPeIgTuj3FIcPQqVifywSM6/iMkKwotuXYBq+P0NmVst+Lt4/pkyzZK+1XJcEHodMKnz9U2nYTr524zTbpZzFYIrxcgIzJWkMpYHZP2VMDhSdjnYsgYNpGZtbsJ0EKsje/ej5aQNKYco+zcucJbfTw3HsvCS4XOb19cIbk+bXJlzuLIRSmOzIVthXeQQHkwfSwJNBHf2satjlsS16JgVnMmyVPy06sQLX5XBH4kvInPIg5ubN8HfU/uFwxacaDadb99X13Ite8i3nTfEL814lAwjvbomI4+z8e6FQEJDoKjxK2cc231uXBPsZsxuSYey8Jb/XdjrMEWbSDO4MBTcWA74XW/tY2ScD+fCUcnX01efXWokz61KffKo8wuRv1+SdQ0XknGRozt9W7T4P5yPbOX7HIi0Mcrq0ufhJ1fs5iJaOoVnfjqipP2X5c6Zs2XKrg/ppO3s/izftVvMfRjL+CZYaew1sKpYxFElO4pXNBFRLWFi4pwz5zwBszm/bJ21ra2yKs4SIwWcFEYaL/xGbiBA4/NgQ2Fl4DiZMSPc1WCbGLJj5LtI7kqSHLNPaJufxjUr3+cpp/6v2y0ZNyvl0eovMqpASxJUz9a9UI0SoLBbrWipmtJP5L8vfBy0aAFb4QZnY8rTJvU3b3qUXKfuA0bL8jlevCNMXP9JnheHmsuhIQjVrwSLtD42jcXb+2bYN8m7qzwnhMP6k/bxn/Zz5i18fwfsY14hfNPtcLp8xFxR9wf5X28VoxqAqRzJlmD8CD81hwwog7hhbgIB4AFsJjjwPoV79ZJa7P+6ipEr3p4NWbPgQhzRMC1C/gxEN6w6t6M6xfYiLFRcIIDd8eBBxBe+d1PP2qG6CJJ37yYGAivfiQNHoKHN+chhPXuhHUp5o8hvCDe4Yi3RExch2CBA+DAo3IAwgvRhmiDA+AAOAAO7MiB1cL7P//7fwjMjoF51EoPfmEVAw6AA8/OAQgvxBQFFTgADoAD4MCOHIDw7gj2s1d58B8rHXAAHAAHvk0QXggvKl1wABwAB8CBHTlwUOFNdoTSoA3/m8cG1eZFfbedoJJdrmz1t+CX9hGfkSjAAXAAHDgkB44pvIOtGlnEsp2s+NrVRwjvDkTXWzOevwOZ3R7UbelY4ifbVfIez8ILu11m9v9wTf+LxdQGxR6S6w6cQ5xkDgCLW2NxSOElYY0Jk8lCidMl2y0T10XCy7YtHbHiJcLb7T6rEGYCmE6Osv+0xL/01cWR8FX7ZJe26rt/aUITac01299SPHE9jdGW8xF9oSg5IAeOJ7wLwjfers+uZPrLDSj5vp2mnx+0CuKN7//Ylx+UBC2rJLup/3xyNasjvdF/J4uzK3knbkn2tywmui3zvuySREt8tRi2lyqweLZYiBi21XG5Xj8bkU76Ez8q9r2v0reINrUzRQD1xXbcE2awBeIDDhyKA4cTXkqEJrEawlEitUm7JtmaYNP7VCIXgVP9+MRdvtvkLIl8LFx5QeCFon7vQtB8E7vG/a+x4RBtKB5a3Fp8dLFTi5kag/K5t1dxK9jVuNNWoh5TzQu+5mNUx5EirF7nIq0WYimnDCefIGbw91BJ/xB54ME5dTDh9YnVJTWftFvwbHIe3yOiLuPIuXbflsIb7M2F96kmCmNScCZxI4GVeDAWNS4nV2hxu4ojC26IYeMFndci34WXxZ4EXcW7tNeFXbORhZttw9HNsQdPoog34n0uBw4lvD0xphN5LFolYaaPedv7WNuKSRI0J/D6qNGsalQiPgfs1HYWme7P2Idzxjp0WxY9/Wg9xZxi5J9+1HMsuBWHHNMSDz3Gf9V7gvsKesQPSTTCGTl3aPw7F+EP4ggO3IoDBxLePIF2YNLkXImTih4nGCV+kkQhvB1XxmmvY4mj+7lAxajaxVyoQisrznreFErJarmKrhuD/Cuib39G0NzRnxkf4QySFGOCI7gADsxz4DjCG5KvdWw2AZZkPvidT/UrfYjwlmTbV0C8orLJeQ3JsqT9lxMZGt+u1qqP9fz5Y66x6/7aVPGUR8BRTE1MnFiWa+pxsGnbV7WJ6JbCosW3Px1xwu7i5eN3f1jaOQL7gAc4cB8cOIzwiihmwIlQDonVxJeErfxjMV0QXv1u1fJXz//QWGtFsIkIj8nHntjV48322JT8lBVc9fW5hJd8trjpFawXVmkrMaltXJy1sHIc+MhcSNr4WNRVcetbCfyQd6XPjLM4B8zAgWflwDGEt4imJFYfrJJolZj56/iOCQ4OgAPgADhwLxw4hvBi1YD/rgAOgAPgADjwIByA8D5IIO+lkoMdWFWAA+AAODDPAQgvhBdVNDgADoAD4MCOHIDw7gg2qsD5KhD4AB9wABx4Bg5AeCG8qHTBAXAAHAAHduQAhHdHsJ+hkoOPWLGAA+AAODDPAQgvhBeVLjgADoAD4MCOHIDw7gg2qsD5KhD4AB9wABx4Bg5AeFcKL++GFHYyWnn/OjLVHZs2HYN37MIGI5tV9Ku5oHZFWxd/JF3gBA48AwcgvCuFc3WyXdlfTq47E96hcNgtHetWmjZh1G0us20bbbsch/tus5oLQ/xu5V/ba9psgXmrsdDvEbkLm++DtxDeq4Ry6yDeQHiv8W+tcFA7vX81fe8r7CbS/fvWmN1xf2vxuyZGfG+Lwc/XT/OOYSTaO+YHxw7HzZ5GHYXvBxFeESRZSbk3zJTEM968nlcp4SUJbUN+/Xi3tO1C0VYRZUN9NyZNGE6u/EiX2vV7adK71aG5Rtd1/9V+bcuYSIIJt7F213cJs7/6RQOlPdn99mPSuPQ22hd+kUA5DvbLXrOX9upV2LJfATPXt/bJFAT/lfcr6zbr8PaxSrjQ337EPPyzkwj+mE4Ng+KXw8PwAy92eLokz/HH8X6KsEMJL4kIi0MRYBaxkvhVImzV/wtXktn3npzWJHpOumoM0zcl2iZKzhZjZxNh9oFF2X9fJwRr7RaxMROvYKKKBI+RLirY18GxJHuORdJmTgyMTeXeZb8IU8HMTSbnhx+7F27NXn892uP6LzZSsTTigipOyJbOs6yf7c/N+VOuZXYnMVuHw/b2Y1xg+gwcOJbw6uSukholFJuIdfLWnxup1b0sflrsSoLSYy0mW52E9XiUoFUipn702PpzGUPfuzQBY9vc7hnhNaKQiEmwT9ukV+raf93m21TfWRtfdTieXMt+FfE0tsuYdE3Hsq6Oxb5w78JqPbczwSp5cmJivSBuVRTVSrk9abC+iJ+5Xe01kwNsRvfg/DKuwAgYbcmBQwnvKAn1VYx5LMoJOCZymxDj9VzAsmTrhNQn15LUYzLtq6AgbNGWcbBj29zuWwmvnohVhGN86nlbFOn7ss9r/Kpt+DG6jGvP83X9x1/ElfPsyWzMuBDttjzL+tn+XOEAhBePk30uwve74sTDCO84mS4lxHg9F7As2a4RXrfi1RPgYYQ3E/cquvb37jVCszYera9W3FTxjff6wuVehbdwzhWOVDhIUbEGO6x4fbzxfR1vgNO+OD2E8JaVxcxvV2VFzI+OeRXaVwU1WXfhJjGkBMjtu1BeILz8h1WhLy0a7jHo6mS71u5MFLOCIfGvYCX2DSdnaHep6BIu6/2q9tSxWKCqgI2LndsJb8W58ybwbJ+JPbfiZXFnrIbx7Jzfx2bYAZyfjQOPIbyUKFgw+6pBJ98mBOXa+/TiV5qcJOn6x2l6of+SwWIZ+qVHx0qMfF8haVUhkcee9lEnJ0O6TuJPwrA6Mc7Znfy1NI9RSB7sToQ3/JUuY6rxdHiEe+RR+6386kVTw15jWnDvRdagCAkxGyTCJS4YzN+nF4qPGvt2ySVyzPvdY54WlQN/1+KCdnf1GPN2PANPtsL2IMK7ccCD6GzcPxIREtE9cqAVaqsLoHv0ATZhbj0AByC8DxDEraow9POoBZisiCG6jxpj+HWk/AXhhfCigiYO6Mf2/ecKeUzuH2cfaZLDVogSOHBfHHhO4YXYQmzBAXAAHAAHvogDEN4vAh4V6H1VoIgH4gEOgAN7cQDCC+FF1QsOgAPgADiwIwcgvDuCvVc1hXFQuYMD4AA4cL8cgPBCeFHpggPgADgADuzIAQjvjmCjAr3fChSxQWzAAXBgLw5AeFcKL++GdNv/B1n/v+Vtx3iWyWV317L/Hahd22VXqfvBex8O34+/eyXR8TjPybMxHuAGYwPhPazwyqYIZXvA9n9Pu8C07Q1FxFv7lWJT9rc2/5+Vt4u88eRJtmXsPq2MFZHb7M8d7vuihBj+r7DaejTYuD3OtxBe7lNzMN2ucgf/OKndz/GLeJa9ovIR8De5Yd+5szWnILx3RchLVrz1Hi9OlBB/faj3FJd9g+ncafp7hc9euPz3rYnY+yuTS4l8EyvvX2+f+nIJjtsLnbWxJmEphG493t79P7p/e+N5zXj3yP9r/KF7iV+SF2rBJ9/tXLt2rNvffxDhFSLJSsxVPAvVUKjMuwBJ3xy80pZfkmA2vndjUtKncakvvZrp91IAa/99RWCuMaFkhyRqd15yrv17YSrC+3qaTs3Pv1/fp5/fT9MvRV72NzsGoWU/u9C1ap5Xxd4vEw/7Yggaz8ZDTaByn/rOGBu77dje9zpJcxzNuN5mntw6lp0nbTIavxI+dHzc5M388m0X+ja2B544ng3xym2WeeVfekH90j0acxef4ke9brmbcVOfW9O3HjfyKOOuPncWZp4PJh5x7Lm+zTXfL+GlOUZzSLehcd9+mDkSOe741bhk4yh5pd6vsef77Tmym9rqfmxMr4uHjs1Vnwt+kcvV7oyf7O99HA8lvCRKTMACMJPVB8Enuex7T6iVeJpcZdJw3z05EuFioOWtSC3YzhZjp3/l3eC7tmWZnHbicHuZQGTzv9PPNy4O1pHS2h3f6vPypvvxSXeAFWPp4lHw5ni4a8Ufg6n3V41d2kmy6cWOEaE68cYxpvvZN9V3T5aKA5mt7GM41r6kb5cAjI/8ti22gxO1+u76z/1xY5TCQtnf+jD496KIx6p4yxu5PP48hsNq0HcVHLbB9+1/IvBj5WMw58OxYMp+sJ1ytBzPxmI75Z4+xkLf3C6Pi/ejfufc1nMK56CzeEa2Vl+yPOJjbeMhBbG1hTHMMMoLXPb/Zkc/XxrfSkz7/E3i5ubNzexbGOdYwstEJKeIjH01px6pFoc18fTnFgh1b0bS8WRJJmKZFPq8Ho8mFJM2GdvYMT9hxgTxk6GOQwQsk+f7+/Tr7X06vf7bqmxnz4AglcBKxFgYZ9r3ydqeEsj35nu7l/q2SYFwahgWPL2N6jpNOGdLjFdNZHYMa0O8h66rcZSt7Afdw59rPHSsbf+jeGlctX2LfZdE43GTMYs/nmshVtG//OmA9kt/ruONscvss2Pae2Pfel4XUViMtWAQMJ/FjOxyPDPzka5LoX9e32KT9Vfh5/wyfhs76B6LYbAlxDnBtbexfXn7/Hcz9qq5J757OzX3pSjWuXN8r+2r+meeEnT/1vbxte0OJbw6UelA5AHlJJCQ0BA7Xo/koyBZwvbxTV8umG3iC8makPGkC/dGW/o4Q2LVe6wg6BWqtps+u2Qz6Ldgqgqdgom+l2znx8ztaGwwvusxq73+3r6iKv3q9rza08KsCgK2Qdmai4mNzdoYEw7s1zzPbP+LcWv4ndW3xpw5pOKn7eN+rR2aC2xvdk7zUH+u94yx4znHfdejYEh96UQb+66rvRZ/7S/HmY4m1nYs6y8/OXDzjjAz/FR80riaNo6T1Ie2T9+nYpJhlZ3bT3h1bvDxaCtegy/xo8VV+3tpPBQ2IVYrrxWeD/C+tM+973sY4c0TDU3KweTugYvX04lxsfAmE5YJRkTudgxs5bbDY7Xf+0/kjIVKlmTzxFXIHSZgS5otIen+JbnG/gqeXbQj3ob0ZXJbzMz9AbM43i2F1+NsbB/GKLPRPladwy8bo8THcEePUZNltDWLv0qs3X59LsZrPD8yzqmnU8QbY3Pse16AtI/nfzaYFQ5bnmU48znDwY6T2GD6VtczrMo5g0MTPD4XOJ7FTcZmG+WY4Kps6hiHeIyEVxW9bKPub+XngpEW7PJZF2JzPtVrtY/1cRNMlvves+1DCG+tPMcBLMFiEWmiIYJXSdqTVEn8WVU9IH+YJDrAte9hhV5sEbuZmFrQlsng7G+TgPqK/UQfRmMazPh3P550zu6Kv6wMg80FU5kss0nMteW+xZcqCj1e6aSvbeQeHZP6OUuI2VMNwqGPVWyTeAU/iy0t5vzoPLWPbHB+rOpb/MiSt9iTcyLzj+4psebY+lgnhesYu4xzZHOz5+PTcbKelzg5TDxGQywFF8EgnrOYtThxXljq2/PStbd9y9gpVi0Heb/7dxpLxWMUtzlf/fy1bUfxiMJrueHjI37a/m9zvtjSC/h8jNpmaY7m9+7hA4/xGMJLk6BMDPXIyASoEqY+3nyfXjyxWYypAvs4TS+vn/I4K/RLY6jA+r7chOSkox+t9kTOSa5VgXSeiNMnYOhLE6YlDldB1r59QuP7CAdlOyddfpSkxqsEHuHZkjWP/XGafgaB0vfaMYl8JSHx/XTkRBPwjveyaGlMLWY13vYcYZBjJoVRjo+O1zzP9BjW7uBv9vth8N0XKxpTuZb6pQUl9Os4rHjQ50jnQuRSKiZNJCPmlXvVf22zxkr8MlgXG/Tcre1GY3BS42PE/IzxA2ZL8dR9L/EsPuo2ftPYPB86BnZ89nF8tLiZ/vv80zbrOEk8rB3UxvZLfFkbj7GtdezZ6zpH67yhed79UsVy5/GKMXZsexDh3Ri0QOyN+98xgLNkhR3Yf/ZOOJCLdRR18HmfXJTHI654DxePUjCdW6Tsg7nGEsJ7J4lJBwWf958IwPyGmPufJvqcg/B+Ce+G8Tiy8PJK/P5Fl2IO4e1J4IaJB2Ng5fmMHFCPB/PHkRDe84SXxUU9Cp557Br6XozHkYX3WPn7OYX3GZMgfIb4gwPgADhwFxyA8IKId0HEUJ0jLogLOAAOPCgHILwPGlgI2bEePSFeiBc48DwcgPBCeFFVgwPgADgADuzIAQjvjmCjon2eihaxRqzBAXBgxAEIL4QXlS44AA6AA+DAjhyA8K4Em3fByf9bxFaV3Q3+ewX/FwK3w8uoEsN5tavQF2C2mmfYBAZCsTJ3YU5vlZ+36wfCu5K8qxPiyv7yyXBnwjtM7tVO2bIx/qd1s+Wk2f5uO/LmGG7Q/xcWK6t5NozNBv47DptY7rVFoLPhZrHGOChgvoADEN4vAH2cRG4gvNf4tza5Uzu9NzZ976vFJtL9+/bCMMbzgcdaG5tr4p/dW4qSWGg9ZQwyfHAOQr6CAwcRXhEkqb7d5C/Jn3d0cdfU5tl9ldZXYdI3J4+y6uhCoXeLif2WTfOpL14l0U4y/V5K/E14eIcZc42u6/7P2QR+yW77IgO/SXqx++2HeVlBb6N9YbvLMW6qXjAr7QfXGPuO9xoxdJhpUS+ktph1uxvhedXIsbY/D8z3LfzKN1qf65uukS26Dzv2nO/ap4RnjKOOx1mYzo19zjWyM7GvccbHgucUjudgjLaPzpdDCS8lUp7YJbmxiJVJr5JBtgLTydusFpYFrJJgkHC64DfhcbYYO/n1aK//tqqwjs0+sUivS9Zr7a4CLGO0Sc12M4YeMxIxg9M4GdhCJbYr188Qifn+PGZVsDpma4oA9nmmMqW45ZipAqNgJrwrdiuOnuv3Ms/c2GdgulkiG3ECwouV3sx82ox/DzLGsYRXJ0yVACjB2SSpRUl/VqLTk1a8nif+OeGV5GvFk+5RydKLmfKhEjPaMiZsbJvbPSO8HQPCJfEv2KdFtQpeXVVq/3Ub+UOlLowrJk7xw+PG91GCN3a7/WWbAIzGm+2bx2ivycs4Zc9ZbAP+C0VAHtskDq1gMz7NxsbGoPrMT4PkaPpTvke7KtfyJwh2rHgvrgMTcMBz4FDCO0oU+tEeJwc61vZRoOxKLl4PCbQkpSwhLqwKmwhom8pnFo6QPKMtPmDyPbbN7bbi0O8PYyf+hTajCVRFOMannvdi1W2YSfY6puZ+skk/buXPvijj84y1GmvYt2tjxs3Ezwl0wP9OhHcN3uvbVN5ZbEa8wPn1uAKrZ8LqYYR3nAiiQO0rvG7Fq5K7tYMmXmKrbm8+x7Yh8bf2w8emRpSuEd5M3Kvo2t+7L0kuTrxXFwN1rCKyxk9tg+tb4RsxywTHngv434nwFru4EFHHWChpbMafg58Kt2dKnvB1zBFgM4/NQwhvEbDsDz6U8HQB4FVoT8Y2eda+/B9IEYiJMFH/s0JQ++5j+wRVbJHHtLwSW5cQ19qdiWJmd+Kfs284mUK7KmhDvz0Os9+dn+2P0caFliV8EYkea3uNC52sryi87ZG2fgReVt9SWAVBKrjI9SF+xv8kDm1l3fEs/f6Zfg/98n5u+b3GNnCUbdJPHoxfW9qAvtZxCTjdK06PIbw0wcMjSJ3wmhCUav99evFiyUmDrn+cppfXT/nL5NAv/UYmYjkvvET8Jr5qpaETvV6N0HlK+CGpjRLYnN3JX0vTI9o+tsdgUFho++S/DGk8HR7ZX98239f5FfHqgtNx8OMLZtZesk3zYKnv2K/BLPimeMDXtPCU+OjxZxLhEs9MPN+nF+p7F+GNmOVxZOxW+ttjOYMJ2uAPth6UAwcR3o0nZxCdjft/ULLca/UIu+6Bv02gdeGBeQDhBAdSDkB4QYyUGBCzexCzY9jQnzJAdDGXkE9XcQDCC6KsIgqE+AoR1D8JqJ8c+K+z++N/cBFcBAeeggPPKbwg91OQG8XCFcUC5gjmCDhwMw5AeEGum5ELwgfhAwfAAXAgcgDCC+GF8IID4AA4AA7syAEI745go/KLlR8wASbgADjwbByA8EJ4UemCA+AAOAAO7MgBCO+OYD9bVQd/sZIBB8ABcCByAMLbhbftvLPLbkASCN4m0u+QtEzWumFBvouQ9L/cD9oKRsQBuxuVXLsAJ2zUglVUzy8X8Af3Pix/nkd4F5Pg1wgvJ/Zsb2C+lh83EN5ztjTcOQnM47GB76k/Xyy89xoP9/+QY7HX5k77P8r4f8kQ2TxnARfGBcKbJuD9CTIvNJk9G4jPvSZ697o9JqscN/A9jTuEVzBmzhHW6ilA2VNafW97kXexbSIdxZn7wzFiDEyeDZPjCK+rus3G+ZQM3n5Mfes6/TIAf1/fOUg2c9f3mX5bcjbX+3t+62Sha5R09CNjm3SqSPAuRaM3ylwuvHq14Xxyj82LH+WcvkdejG5e/sCb/id41Uni+nBjLU0ki6kkcnte2da2I9Q4d0x1vIPd0ne3qYiH9N1Fg18U8f00/WK/r/LLv0HIYda3WHTneWz32Ntik/iVFhNbJ/Vqa+d4wVJ4RxiXGHXfZJ54fvV47GL31jigP8Tvcg4cRHjdZG9vaukJkxMpT/Yiti4xUZuFJFoSG/fBycAnlvJd+uZkyLaU72qcv1/fp5//cICqCHNbTdxLhVcnM5PwAgbJ2KWNTZrdJue39+t8exmDb9Nf/5ym0+u//fcb3zfZMN9/9aUnf44VHZf6dvHr/pY+WAAZE8875YMekz87zPybq17euF/qJ+l7Lh5LfrENNz9au0vs1Jwp36lwUHOAMK7nZd5Y3BdwvblPGB/x2JcDhxDeLDGbpEYJz0z0JDGHNhFon0T4lX5eKLUohHvmkicnIJWomPC6Tz43fxz4qF6DZ/rM7MrOtSRH91pho4QriZOuW8wjnvP2q/aJHcb2kHgT30Ob1r/pu97n4yl2Wh/p/Lwdyof2yNVgtrAXmxsAAAT/SURBVMC50LexVfedfD6jbRU9WeHzkwJj6wg/d97HvfO/FB2NE2fYJtgnPrqx0RYYPQoHjiO8Xqx0UtOfy2RNEmxoE0nck0if8HmC1wkz3OOTTvnukp735awEz3Yntvmxlc9kZxAc3975zQlajiK8XJTwtfOSeLWd761HvRpcErzE91nbuW+7WouT+MbCS/Hoj5ErJ0xMhvGgmC9jFv1hrmxzLFxXhR2NV8+5Ikzx7tY2of9tYgsc98XxOMJrVrRtwvO5MNGTxBzaRKCDiPo/HElEPdxjkmdN9Dq5hvZNMLSYr5sEa3xkIaG2WjSb78ZWjUfSdxc23U7341fISTvlq1ktJ3bM4zG2z6/I6NHzry4W4/sq5oyX2D5vh7RjYTQFiOZcscNiFPo2tuq+2++mzHfCcaat508XRyf6xta5+HaBTThEPnZ8q80jjnu78N3GGHg8Dx6HEN6aZHTSqoLWE4dOcD1J8CqnBbMkqiRxqISTJYyatFRfLtGEe0xCdHaWa3/KH4L5SRaSsLLLt63fvYjU71rkqV2x7+Nz+pWsstPfGdu4we9Ze5yfs22biHR7qt1p8tZC4/osAtv7kAlrz8e+5/26RnidXxxr9sHzr/Doj3sKMcZxya+cI4LLNdcrZqO5U22WP0rMfah96Dm8jW3X+IV7EYOv4sAxhJeSLieyVrUbgWlJTB7jKaFUCZsnv320ycl5/DjY3mcTULmmBaDYKePbe9+nn6+fSnhb0nIrEeObst+SJNqd3tdw60WK789gl/imbWMRaX8YJHh7AVmY0C6Wp1e9KuV7nX8a4+KDxa77vqJvGxNtO/VpMTivINI2vU8vZEvHrAkz4/lxmn6+6bGb36N4rPDL8oNxvPaofVJzRPnFBRzzIeUa+xXieK19uP82cQeut8T1OMLrBUN/p0ltEgFI00lTErYUAv28xg+f+19YA58bzZ1WOKSiDP6Bf0/GAQjvQwe8rhr7avChfb2RYACzK0VBnlxAdMFRFLaVAxDeh0yskuzktzdM+msmvX88zY9V69E+nr5mHNwLnoIDj8+BxxDehxTPxycfEgxiDA6AA8/IAQgvRPvKR4lIHM+YOOAzeA8OXM6B1cILkC8HGdgBO3AAHAAHwAHmAIQXK16seMEBcAAcAAd25ACEd0ewudrBEZUvOAAOgAPPywEIL4QXlS44AA6AA+DAjhw4S3j7f6nAZhUg6Y4kxcrgeVcGiD1i/4gcOEt4GYDzttEDcRg3HMEFcAAcAAfAgYuEt7wLF3uuYtWLVS84AA6AA+DA2RyA8II0Z5MGFTsqdnAAHAAHLucAhBfCC+EFB8ABcAAc2JEDlwkv3ngDku5IUlTWl1fWwA7YgQP3x4HLhJeSLr8fFL/1QoQhwuAAOAAOgAOrOXCZ8OL9t6sBRrV5f9UmYoKYgAPgwFdy4HLhxUoX4osKFxwAB8ABcOBsDkB4QZqzSfOVlSLGxkoFHAAHjs4BCC+EF8ILDoAD4AA4sCMHLhJe7FyFivPoFSfsB4fBAXDgqzhwlvD2vZo/36eXHauDrwIH42JiggPgADgADmzNgbOEd+vB0R8IDQ6AA+AAOPBsHIDwYuWO33bAAXAAHAAHduQAhHdHsJ+tqoO/WMmAA+AAOBA5AOGF8KLSBQfAAXAAHNiRAxDeHcFG5RcrP2ACTMABcODZOADhhfCi0gUHwAFwABzYkQP/D9CsmO5nnRT3AAAAAElFTkSuQmCC;" vertex="1" parent="1">
          <mxGeometry x="1430" y="703.5" width="576.31" height="170" as="geometry" />
        </mxCell>
        <mxCell id="4FZqM-bikuzlJvexATYJ-5" value="" style="shape=image;verticalLabelPosition=bottom;labelBackgroundColor=default;verticalAlign=top;aspect=fixed;imageAspect=0;image=data:image/png,iVBORw0KGgoAAAANSUhEUgAAAdoAAACjCAYAAAAtvt8SAAAgAElEQVR4Ae1dPXYjOa/9ljPBF072khe+09GEswMHvYCOHHgDyhy3E0eTeQOzNL0DkCDxx/qRVLKqdIM+kqpIELy4xAXLauo/f/z3zzP+AQNwABwAB8ABcGAbDvwHwG4DLHAFruAAOAAOgAPEAQgtdvR4ogEOgAPgADiwIQcgtBuCi2oW1Sw4AA6AA+AAhBZCi0oWHAAHwAFwYEMOQGg3BBeVLCpZcAAcAAfAAQgthBaVLDgADoAD4MCGHIDQbgguKllUsuAAOAAOgAMQWgjtA1eyv86nr3/P/3yezj92F6e/z6+f/57/+fr3/Pvt7wfGGEkQQggObM0BCO2SBP7zgxMmJc3+7+P8wn1rQtViUNuffhKBe8Jtfd9/7SbxvrzrOf97/ueuvm8htPeJx4+3r50WCEi6Wydd2H8+jkFolwittGEBFYEVspAYfJ1/f/brL+/0+d+zFtrynvoU8djDLueYYlGEdut4UIGyhxgj6cs6xiu4sB0H1gktCc37qT4S+zq//jydf4dHe3UXUnd/Idm43aG973cbXbwKCaxtv7tiYTC7TrsDs/e97QUgD4X24/z69lWF9df59P7r3BOtT+zls523nVe/R9eL7fII8lfH/i/x1/bVj1kzoQzXTDy+zq/NbuanjCmvduzud71vbEfhsfGQwqT0NfeyXfRflXsSb9WG+pIvejfehXV9PDSmf9Cc3n+dtX9h3v/9U8VfsMIrEjk48KwcWC+0XyUhliRGYkXJVhK0T84lEfckp9tG0nHyUgnTB+XlXYujs82JV/woiS4kyK/en8fSj3tl1zr1OiG0LzQ++f7zgwV3KLRVIDomU5iVOXJBUUWL+nnbPdEXW60AcZgQnr3vn+c//H03PxGTbl/HbMpvajcd6zJ2j4ePtXzOOeFi754SeL9trIvfDf8QD4eR50ONwxTGAWdvA59386cT4SFe9drH+7V8WC+0VZx6wlYJlZKWEy+bKEuCzBP3n3WXMJ98ZZLdh9pXj+1Eg9q25MqJTvm9NPE5m+wHJ2rymRL4x/lUi4HuWxU/2Xm1oqSSdRIz5SON7bGf9KfY737QZ7LX8aXY2Fg4ESJcqhDx35c1vpN+y1hxFyuxE7s2JhUTFQ/Ln3LfCmfto/AJfVqMqO1MPGoxIlg3f8UnNU65l2BWx5ibW7AtY+AVQgwOHIoDtxVaTvzuyzMkMHqXqhO3SvqSdEgY5EtDVgT+5N2i3JPX1obHdjvaNq5PrjJGby/jT77yGF2ouK1K4jrB0/vim07E5X3zmRbTJGYLhFaLH9lT/rB/ZF/a0PuGSd31twJAMPEFiYifYFjnP+l37TMTazN38dElGI2pxCa7xraqjXDfYDITDx5f5lowMYKp8VRtJaaFvyt55eYs88SrcA+v4MK+OXB7oR0kzIwonBATsS1tSWTUjqgmbZ30zG7NJHVKkFoQdXK9ImAsLtpuFbZkzj3Zu7G9jZC4tX8LhNbMU4Rb+9htEF5D/JYke8a4isik33oO5f10rKvoT+LYbbIt11Zf69jXPkOhzfDq4zAPPe/CvF18lfhqrDP+45rDegkH0eZQO71nWQO3FVr3t7JZEL3omEVUEpjsFMpOTe0UuG8XYiO6xk5ZzHOJftZXspn5S4nYJX2y1ZO9T8RuXpOYdZHUO7Y+V1eM1EeWDbOKQxHYX+eT95PnozBNcNO4WAz92DNJM8NOjce2vX8GR2Xfi1/FUIStY1/7TAntALM+7zJPsa3j0OLsix3/t3A1z25XzQf3IR7gwKE5cGOhpeRREpM82qVXk6TMo0qd5IsA6X76MSclKBKMdv/zdH7V/4WiJt92n8fROzv5G7C1segghCrqqW26NykQXmhFsPXcR5jR9dpOjdOFNsFbPRpuSb1i4wWY74e5CWbRJ/uUIBl7cayTWBixSrgw+SeIXnDRnNYJrY9HnLfBbYiXFU4bI3uvxQXJ9dDJFXEG74UD64T2gRNDlthYmDPheeB5SGDw+qCLVBU8UzHK+DjVHvceNN7IFSiGbsCBgwitfxxLi7bsTMxu5AaAISE+eUJcKLRhVw3uIWGDA0/LgYMIrXzbVj0W1l+kAsGfluA3L4wWCq3+b0Qo9p68OEP+efr8cxyhBZmfnsw3F1VwCpwCB8CBG3AAQnsDEJHgsWMBB8ABcAAcGHFgldD+z//+H6obCDM4AA6AA+AAOLCCAxDaFWCNqhVcRyULDoAD4AA4MOIAhBZCi8oUHAAHwAFwYEMOQGg3BHdU3eA6Kl9wABwAB56HAzsW2uTEJS2a5ti9Gwf0Itv1xKHkFCm74GbmpeeI96jCwQFwABx4eA7sV2hn/j/jpifzQGjvQGx3DOPKE774wIh23KccK1kLrnokpRyp2Y4IbQnLHsOo/x8snzbW7Pb/tx1t3Li4a77Bri1MgQfweHwO7FZoKeGNkxslSpdcb5moLhLapWTAjpYSBwtaE9eVp3xREabiz7bakwTCV50zzW3VZ/8jA1WUh1zj+7r/0jijHQQCHHgWDuxTaGeEbnz8nd2ptB8DoGT7fjq/ftIO5ev8+vN0/k27lpac5eD5voPRiXyOLGZ31cRDLzLnlz6cvxYIZSe1YfFwy0LkWluJeDGGEg8WR11o1d0v3y/v9S40/PKT8a9g34TUiXQUfR235AcMjG3bdo4nuA+8wIFjcmCXQkuiYxKpSW6UOLMdRkmoaT+VuLugKTs+8c8I/Wix5AWAF4byuSX+Orfu1zGJaDCjeIio0vxrfHRxU4qXUngYEeYzrnX8S9zpMbHHtIxZ7ss9H6Myjiu6Gt8UR9q1J4gP5nqHP52ARyYn7JxzOxTameTmk3QNkE3GjsSqTxfxPk6/VvvdUmjV2IVYudAeiXSzcxFMGGd6ikCC2uMh/UtcTq6wknYFRxHYEMPKC7quRb0JLfkgTzUG8W5td54EBE+8uryAuKKguBEHdie008ltLFKcUNPHtnXHVHdQPSFLwi5/LzQ74UHinUtUqe8iKi2g4znM2T/MfRE59XfW8vjXPzqnGPmnG+WaCGzBJMeU46HHkN+yFYGVmIQYUUIu48hO+DDYy5zxCpEBB27GgZ0JbZ4wW5KbEMBU5IRIKpFCaB+gquc46se/thiy4ukFr3DEFEbJbriIrBuD+MAibwU94w5f04+3hUt4vVlyausamALTnXNgX0KrBDFbhF0kE7Hg5D34O52y221QAi+J2CZV2THZZJz5469lCdt/UYfGt7uxMpdyff2Y3od9fC5i2R/pRvE0MXHiyPfU3+lN27ZrTUSWF3ONb3v64YUcu9l9cCjJATtP1sB9vzHdldB2EcwA78I4JGQVW/7bm348OCO0+rdF+VvJf9FYS0WvigaNp/+1RF6/uVrv0U6M5ukfST6X0FJ8LW56h+qFtLftMSltKuZm51mFVMeC3k+0SWNh2md8xLXhOoTgYYf6ZBzYj9BOPBamBc2JVYkXFjkSPTgADoAD4MAjcGA/QvtkFdAjkAM+IEmBA+AAOHA9ByC0EHA8xgIHwAFwABzYkAMQ2g3BRSV4fSUIDIEhOAAO7J0DEFoILSpZcAAcAAfAgQ05AKHdENy9V2HwHzsJcAAcAAeu5wCEFkKLShYcAAfAAXBgQw5AaDcEF5Xg9ZUgMASG4AA4sHcOQGghtKhkwQFwABwABzbkAIR2Bbhy2pA/Kei21VY5EemmY8iJWDjQ42bJZDEX1Kljt+UJdjnAExzYCwcgtBDaafEZCoU9IrEcTWkXfjk2MjsG0bbby2LRfj6u0NYjJnFE5DSvV6x7HXe83//a/Y4YQmgfbsFtsKO9Zo5DoXULjtrp85/pc9tBV1Fun13fa/x79L5L8bvFPGoMXt++3NnNT4T3LXCEDRQpN+bAjoS2C1DfKblfYOFEI4f3u3tyHrI+TL5V/d22VDv27GR9EH20yz+tRrbkES2NYUSlCo2Mbe5REtT2i//LHh3P+V1+S1d+zEAfzM/zrGIouzNq19rouYjf/NoP7hes+HXJWdQN77nEPz+vgJmzredkCoD/9t8X1m2W4e1jlXBhkmdz877m/q/zqWLA83J4SKzKnHO/pQ1er4kD+oI/kQO7E1otBiy4Ilqc6FUCqdX9i1Qm2eeWjJYkdgKPBFGNYWyTQFYRcr4YP+uv0jRBG3xelviX+t3FxSwCKUwEQ48RzY+uNZwigcQeJ3CxI7io16nkLzb66/y8CNOOofPLzcOP3Qq16q+/3/1wdtV8prmgipGF+C0bc8qffm9qPnwv47CZW7d1S79gC7g+Kwf2J7Q6maskRgnEJl6drPX7SnbVV35mTYsbJyQ9FieiKaHVAqzHoz4q8ZIdPbZ+z2PovnMLM7bN/Z4QWiOiyfyCf9onaj9+gtAWVd0da3zbvTTBz8+LxdL43v2ie3YsO6/Qd2Y3nvtqbZY20W8T63Su3e8igoJnf7Vz6e1zv+ovWQ2wGfXB9XlcgREwupQDuxPaUdJpu5SW+EuiKu3nEmC8nwtWllydcPpkWkVGHt+2V0mEQciiL+Pgxra531sJrV54RXRjfMp1WwTpftn7JfMqbQTPPq69Lvf1l7WIK+v8yXzMuBD9XiO04zhn44+vMQeEX56P+Iy/P4IDd+fAoYR2nDznEmC8nwtWllyXCK3b0WqiH0ZoMzEvImv/Xj0WiC40S+NRbZkdc+zb7Zb2jyq0zDlXKFKh0IuIJdhhR+vjjc/LeAOctsPpMELLO4eJvz3xjlceBcsus1X9JTk3oSbxo4Qn7ZswXiC09W+w0VYNKvvSHzvLznxZcl3qdyaCWYGQzM/5N1yMod2lIku4LJ9X8aeMJZgVwRoXN9sJbcG5xTrwbLuFrOMytaMVMResdD+8v098gPPz4XwcoSUxFIFsuwKdbGvi53sf5xe/k5SkSPc/T+cX+i8SIrTBLj2W7uI4/3iwCEd/jGkfXUryo/sk9iQEixPhlN/Jt5llDF7sHoPBl720f+0LX8G2wiP75m2NyVbzakVSLYqszyWmP+q9q4R2jgsGl4/zC8WnFXRbJpjIMeabH1v8F263InJL32Ab4vrcHNiR0N44UEFkbmwfCezufwdBMlvA4VqYLS54wGPwGBy4mgMQWpDoahJB4BYI3LfzrO94IbJ7iBd8PFJegdB+ewLEgnqYBaUfw7c/P/T/ZuMfTz+M3+AwikVw4KE58LxCC2I+NDEhYijAwAFw4CgcgNBCcCG44AA4AA6AAxtyAEK7IbhHqcYwD+wswAFwABy4nAMQWggtKllwABwAB8CBDTkAod0QXFSAl1eAwA7YgQPgwFE4AKGF0KKSBQfAAXAAHNiQAxDaFeDKaUPb/j/E8v8dbzqG/LcVnAa0KJnIMZjmFK0VPLlbFY5DVxbF827xeESOwKeH4AiEdgURn1Joh8m8H4DAR/3pIykrplqwlvym7aMlxOFRjVy46OM9v+kR3zA23+AP+dL+77E9jvPR4gp/voEfK/LsEeMDoX04Amywo71mjkuTOSdaJT70ue2gqyi3z/tY6BDapXGic8R77EtB2j8fMXFiTku5gXbElR0JbRegvlNylfNMVS070lZ5twPXu21ZQNy2CYP+QQI3JomYiJE8oqXKvvUlolWhkYrf3KP72r7+Hd05ks75XX9Npo4bTjaqYqhxaW30XMRvfh0k0JldHo/R8J6bV/+1Ie2bfZxuMWt+16JC96N4977zmAkHotDaMRuPkt282Mhex77Vn7hTeHe/C2a+r31SMMezedwzf1dfYy7EdVJ8j9dX27+mcETfh3iU+mwx353QUnKTpMqCK6LlFzeLrhKF7HNL/EuTLyXaJFGwbRLIOp7zxfjpfwJu8Nkn2JyYS/3uwmXsiN+CocdIFxEzCYqTqNhJ2vL9hvd8wm/FVLVp+5d5Cw+kUGmYTYr+lZjR3CbtT8+tiI3ipcbK48+fFd+y+wrTaZ5N+2V4oX265L3jv9guc1fzucQ2+kAod8iB/QmtTuaUeGqioUXcEy8lFZ1Q9fuacFRf27bc56Sgx+LgTgmtTiB6POrjEqseW7/nMXTfueQY2+Z+TwitStRFsPQ81G49Jbfe4bl+uj0nXr2rnJtX3Ylr37S40Xt9T36WT+I1Od6VmNG8tC96nrPvC16tIDDti1+Wwzpu0e/2JIXtzPDMjBXxb4WN2k2bn4Kc6S9iKmvJPtGJ4/X2uAcsjs+B3QltnqRqYjZJQj+CnUtS8X4uWJTMEkEJYqmIU5N+f8xYD6kXoQh9oy/jhRjb5n7rhK18C2Mn8wttVH+TfEciUq57ARnPqdinxD/sQz4lsTbJXbcRrNnfKzEjG5cKLfdL+DPwizDqOES/jdDO8czEahTD66+zYBu8r7c5xxXcB8aPzoFDCe0wMZvdbSWlEZCYxHLBSoSIEpix5Ug/l5RD3+jLmESxbe63TtjKvzB2Mr/QRvV3ybuLgrQpImsE0PUZzS3aEpszeCf2bfK/EjOyPxfTxIcyzwTf1rb4ZTmsr0W/De8u9qngyhiF4mVUFKhYNP+l2HVPb9T9UaxxPccTuBwHl8MILSedbLdZFzonEvdoUR47y+OuluRIXCjpSPuWLAaJclKMSoKMtiqJOEH2hCYJb7Rzt4tPJ+IqQKnfVwit88+OrxZCaHe5yNIYhEOLR8Nfxiu2x/elXXnl4qPtsq7EjH0p4y+LkfWF49t8sffYT/1nBuZhF64lHB7yLGBoxx7GdWG/wtvua2avzG/dnxAyO7h229gBz+3xPI7QUkIQgWyVuV74NfHzvY/zixdHFor+WPfl7asLbbBL7bo4mp1Fmpiq2Da/rIhIApIvelHSWpzEp/xOvs0sY/Di8hhwezWvOhftX/vCV7Bt+9k+FVfz7d9pchMG00Kq41nsC2ZxbM0D2ZEOYh3mVdoFXwwn7NznElcRpRwT67u3q+f8cX6h2BvRnubZnF8X39ccVBwPoi+YhQJ2mgsX+5WuRYwFPO/PgR0J7Y3BCSJzY/tY5Ph2JDhgOVAFWQoiJHzknGfhAIQWydAmQ+ABPG7Ogb7ThshCXJ9FXPU8IbQ3TypYSJpgz/TePxK234x2j6/BOxQ04MDTcOB5hRYkfxqSP5PYY64odMGBx+MAhBaCC8EFB8ABcAAc2JADENoNwUVl+XiVJWKCmIAD4MC9OQChhdCikgUHwAFwABzYkAMQ2g3BvXfVhPFQqYMD4AA48HgcgNBCaFHJggPgADgADmzIAQjtCnDl1J5t/y9g+T+H247xeBXfNlW4PknJnzRV75mTlY6Py304fHwcl/P1OXm2HJ/n4AqEdtdC2w8C0P9nsx0XWI+866Jd2y8Ul/j/Qu/0f0HlqD51nF+b04p4sf/D4/6+KQGG4wr9MYvbJp4thFZsag7y+4U8O3ZS/iaeZT+ksmLtPGZMfL6779q5BhMI7cOR75IdbenjxYgS4O9P9Tu9fDYuXTudfyyYtxcq//ka4k32ZaFVol7Fyc9v0sZDJpqSdHvhs62oTuOzxdhHn98WmG1l85I8spUvG9n1eWJBTrv/mihz35HQduL0nZaraMxOyN2THwdXuyT/6z06AXKV3nZDtSrlvtFu+1EBvVtpfQno4nur+M09uq/t2wPylxFjQmjfTudTFdYfbx/n15+n82/9CzET5AzCSvgakXZ++3mZePhHt3+e7U5ICWu2gMI1O3YU4XJfx1SwNON6nzkW9cB+4YqZs//xioQPI0zDHJIEZDCLto3v4UcaHM9MnDVe0S5h09cVcVC3Ibv0WdtQ8WrzzTDPuKmvLbGtx408kriOXldh5vlg4hHHnrJt7nm7hJnOF8Q13YbGff9l1kjkeMKfEMf+4xWlv8Ze+ttr5De11Xyw6+i6eIzitPo64xd5WPyO11fbb7wWnC5/3Z3QklgJ4YwQMOgqOfikln1uCbQQTZOJF4kmPoNOBFNjSCDaYqzBdb4YP6voyhxEhP1n7cs8QexCkfZ9wZDPf59f30/nHwNySh/9av2OP1338q7J7JPsACuDWe/PeEs8fKyoj8HUz1eNze16cmnFjRGdsmDGMab+4puyHfwQ0ZW2cwux2Oq2XXszx8T2TOzy+bgxuJCIHDb4t6JU5lXw7uLr8ZcxHFY11t52Fstuuwp+W3t+rHwMzVvzfgYzy/FsrIhVsz9jW9rlcfHzKJ9bHpCcIjhka0LWUvpa5pLlkel49ALY+mK50O7VTUI2jsx/q9ccVykYxV/h5ve+7k9ohXhELiJfTc4Eeg8+gaqJpt9XwFVf27bcz4NIiyFZeLwI9HU9HvVxQddj6/e8YHTfpeQofez8lTD+/Dj/fv84n97+XvWj5ZyEZFdHryKE6cJW4/F9lzhcH7JtF6fClvF0mGmBoATnfInxKuPbMSyesQ/dV35Un8lXwXaaZ9b+KMFoXLV/s7Y5sXvc+pg8H881h3s2P3mion2xayJycoxd5p/F1PaNtvW6ZlGejXXHIGA+iRn55Xhm1mPhkMR+ne3uk51vuc7X3LzMvI0f1MdiGHwJcU5wbW2sLe+f/2zGXrT2+ty9n5r7vQjWuXPct9gqMSl91/Sbs7vt/d0JrU0GHZw8gLLoE9IZIsf7kWw0liVoI5Gx1X3i+3Whd1LV3ZYsstA3+tLGaQvFjRF2yeV+FwjtN713yWVglzFVhQ1jovuS71qI1dOGOHc9Zpmj79t2NWxXt3c72mRctqV8zcXD4rY0xh1HqZbjjnnEy8nY1XlIIp/mcPVdz104pOKnbYhd64PmguCRXdM81O9LnzF2subEdnntGJItnSCjbRYc4Zmer+aaibUdy85Xngy4dUeYza3N0MZxku5r/5J4kC8ZVtm1+wmtLop9PDJ/iR81rnq+l8ZD8TXEatU95deqfjN82cDWoYQ2TywE6mAxt4UR76cL4WKhTRaoBJOI2/wY+Cpth6/Ffz9/Sm5RALKkmhOPk7ZJaKpvslPoyTTaYzwleWbx0HPjxWwxM/0DZnG8LYXW43xNstAYT+GXjcF9DXc0DiUJRV9VDBvmpa3lir62Zn1knFNPn8KOKNqeFhw9x/XvDWbMYcuzDGe5ZjjYsOs+GNvqfpZL+JqLnbkWOJ7FrY8tPvbXBFflU8M4xGMktLU4Cn5N+RDvMUZaoPm9Lrxinz6neI/sRY7HdlM27nHvMEJbKstxwDjAIhpVJLrAOaHiRO++nMAkHZB9knzFtvmigyY8+9L9FiLapDdHHOd/tU+2op04h9GYBjOpzCU5OL8L/hOkZ0x7UptMWq6t2O5zKSIwvcBKm94nYpglwOypBeHQxmLferzyRVpjnv2ZQceeC7e1tvs8TGI2dqlNzolsfjQHjrXE1sc6KYzG2GWcU/58fjlOFj97nHxs/ec+/xz76fsWsxonyQsBQ2fL89K1t7Z73xSrmoP8vNtnGkvFYxS3KQz8+rVtKz9CPKLQWm7cNh7Wp47Zous+B9V4sL+za2/lWC7Wi/xTfY4jtDQpXgj6sV5P7LLDKY8rP84vnsiV+Hz/83R+efvq3wIMdmkMlWy9LQVwCUhd0KqSa4lbklq9R9eJKG3BBVuaINEu+V9sl3vRDi0U5bskWXk0pMYrhB3h6R6jfp7Or0GQdF87JuHCCUhh0hJLwDv2tfEs49i5loRgrxF2OWa9EMrx0fGa5pkew/od5ttipWIa5t45HPv3e+m8tIAEu47DigdtjTQuRC6l4lELh4h5mV/xX/ussepcMVizDyWWxa8s1gq/5rMes9uOX0SLfGjjB8zm4qnnFu2y/zomOud4LtDYVwqtXyNtXhWjPB4T67Jhe3k81gqUbe/HtfGQtrJO/Hzl/ne87khox4vpIuACkW9sv5ESdi+KD/A73JF4uThHEQdf7pMz8njEHe3u4sEFUi7C3zUXCC0S+uES+nctJow7IRCDx3yyEx/tgoHpBKbX5K5hPPYstLLjfSyRJQ5DaK8hK/pCpMGBaQ6ox6O5mGJHu66YEDHRj8PVe/1oOuPmbDz2LLQbFSUZjiuvPa/QrgRq3WJ43IBjHogNOAAOgAP35QCEFoI7vSMBPsAHHAAHwIGrOAChBYGuIhAq4/tWxsAbeIMD++MAhBZCC6EFB8ABcAAc2JADENoNwUXlub/KEzFDzMABcODWHIDQQmhRyYID4AA4AA5syAEI7Qpw5cSR/L8p3KoK3OC/O8hX+ue++r8Ci1tXfA9n7xsxW8wzHLoCccCa3QUHILQriLo4Aa6wGQXmwYR2mMyLn/1YvPifxM0RjuY4uVsVJRvagdDmCUxw2Vs8r1qTG/IMfuU8OxguENqHC+gGQnvNHIdC65IPH3umznqlz20HXUW5fXZ9r/Hvmfsujc3NMKrcfPfn8CKesWAGJsCkc2BHQtsFqO+U3C6Kk72ckuLuTR1iP/vrJPo0lmiXD5mnCl+qfToo34hKFRo5QN/co2Bo+8X/ZY+nOyZCan9+acdKfmygB5/9fv9lDvdvB3HruYjf/KrEVCdwbj+4J9iv2gU5zNpP7In/FrPmd/VJnj7IjtviOW17EjOZi8JE26ZxyRdtQ9+XOOWvek4Jz5Kx7cHzgs02r4wpxXAk8JUzPhb5XLfxEWMB10fkwO6ElhKnLGROZiJavMhVcmLRVYk/+9wS/7xgleBRIlRjiNA0ga/jOV+Mn+Hny8rYMqd1Z78u9Vv/0LNaiOK3YOgxovnRtYaT6itz18Imdtw9wq4l6eRetjC4/dCex6wIVBO0JaI/tN3nSHHrcanXPUb8uXOC/VYcXTvveZ45Ti+ITYbv6mua0yNOcJsEs4UxX+0T7D7FY9cj8GJ/QqsTpFrwlNBsUtQipN+rhNmSVLyfJ/opoe3J1ool9VHJkZKD8tu858QRfRkTLbbN/Z4Q2oYB4ZLMT/saElsRuLJr1PPvYsW+1wTchDDYce1FmD1u0o/sGb/d+awz4zFGI9syRv3ZuIxT9prFNuDPvrj4qzHy2CZxSJ66RO5EHMV+mbM87emvS2Niio5JTn8ofOQAAAqRSURBVIx9EF/wCoyejQO7E9pRYuBdo3qcZx8ZRkGySSreDwmTk2OWAJ1w+iRak774015FKELSir6MSRnb5n5bMWj2wtjJ/EKbUZIoohvjU657cWo+eLzUZx1T0598SmJtHtfrNoL1EtuujRk3EzsnyAH/BxHaJXgP23gO+M8Ks6ENtMHu84k5cCihtUlRC0IUpPsK7cSOJiStxNchQWPbkOhrX7MjEXth7GuENhPzIrJGAGXsVa9OrIPfOtbxPQt2IrZFFJxt5VfErOBteWavBfwfRGjZr6Q4iYXRAL+kLxU7S/pDfCOmwOS5MDmM0LJwZn8/rYmTk608dpZdZku+NlkWW/4LTUSMRIjI/mTiL7aHYsO+9Meu7OfiBLbU70wEM7+T+Tn/hgkitCsCNpy3ErShzdbGzbN+ecwK3njhssi0WPt23na/H4W2PqLWj50p9urzdkJbYtjwDBzufs/jeWXbEd/FJ1lnLX5Xjgc72A3vnAPHEVoKBCe9/vcnnQDtN3s/zi8+WUiSoMr983R+efvq3xwOdmmMLo7TQktJpoqt2hVokdC7DbpOCX7xTmHK7+TbzLQLaWN7DAaFhPavY1qFtM1J4dH+xqpjUd4vm1fEqwlMW3B+/I6Z9ZfG1U8U5mxHuwazMLdk3lpoOD56/AnRmeOZiefH+YVsDwuIiXEahhe2CbwRO4Ldwvle6wf6Q4B3woEdCa0s5hu9DpPFjezvhACb736AwxMlw1rE6EID8X+i+CN3jvIphBaJAIkAHLiaA+0pAkT2aixHyRrX9yvkEFokWSSGe3BAP+Jvj9v7o/X2OP8evmAMcB4cuCsHnldoQbS7Eg3V+H6rccQOsQMHruMAhBaCC8EFB8ABcAAc2JADENoNwUUVeF0VCPyAHzgADhyBAxBaCC0qWXAAHAAHwIENOQCh3RDcI1RimAN2FOAAOAAOXMcBCC2EFpUsOAAOgAPgwIYcgNAacOvJNnc+bUeOXfQnEM1XkeWAgGWnLV1Xkc37chT7xAF72tNVc8fBKEjgJsccZZ1gHmvywnMJ7WzS+x6hlYBlZ+vKvfz1BkK75ojAOyeMaTxuMPd0Pt8stI8aD/f/gGNxV9dO/T/C+H/BEKI8Zz0nLhDaNNl+DxmmhSXz6QZi86iJ3f38XFy0N5h7GnsIbY612uVTwWp2/SUWTVyrKEcxzjiMaxFvYHI0TPYltK6qNgfN0+J//3VuR8Hpw/N9v3YyTz/8XPczdmsyNvfdr+vQPUoy+hGwTTIlEdGjYf43eDR9udDq3YSbkxuL58HXdJ9+QpFNoPJrNXK/2y4LwdlwY80tFotpT+T2uozdf01J49ww1fGeOfif/WKx6LabSMgPK/w8nX/PxGs0v+C/wcVh1o4sdNdlbCNoPh4ds5Ev21wvvjaOM5aWGxyjNrciHAWX7/IZ4rUNF4DrElx3JLRucddfMmkJUhKnLG4WV7eoqY1JepEknAzEhux4fCLhz922JFbxhT+rcX68fZxf/5KxXPUvY8zu4KS/fhUB776YBBcwSMbmNjZJNuK4eft5rS8MlO9/nc6nt7/b3++8bfJh2n6ZS0v2Csc/5my7+LX5sg0RPMHE807NQY8p7x1m/pedXt7FLtlJbE/FY25e4sPmr9Zvjp1aM/yZCgW1Bgjjcr1z1eI+g+vmc8L4iMd2HNiN0GaJ2CQxSnBmYSeJOLSJwPqkIT9xJyIqZNQiEPpMJUtJOCoxZTbl2vTrYI7qZ+G0nyRAv9U9tp1dq0mN+lohowTbEyXdt5hHPKf9V+0TP4zvIdEmcw9tqn1ju/Tz8ex+2jnS9Wk/1BzqzyEazGY4F2wbX7Xt5P2KtkXk+g5engQYX0f4ues+7o3/XGRUTqzwrWOfzNGNjbbAaI8c2JfQenHSSUy/58WZJNTQJpK2JY22wPOErhNk6OOTDH92Sc7PZVVCF78T3/zYas7kZxAY397NWxJyf+1CK0WI3FuXtIvv0re86t3enMAlc5/0XWzb3VhctBsLLcWjPRYunDAxGcaDYj6PWZyPcOU2r8x1V6yVa67oUrzb2ifYv01sgeN2OO5LaM2OtT6KkmthYSeJOLSJwAbRrMnNJEN3LfQxybIkdt0/tK8CocV7GemXzFGEg9pqkaxzN75qPBLbTch0O23H74CTdmquZjec+DGNx9g/v+OyO/lxv4K54NV9n/ajtxMhNAWH5hzP0WIUbCc4CBem56X9iO+bGDqRN75OxVeexKgnGuIXP1nKxDcpJlufmbHQLsYQmOwXk90IbUmWOkkVAWuJQie0lhRkF1MDxEksERu16DMRLElK2aKxVGIJfUyydH7WZJt94SokXeVXvsi8aJTPWtSpH/v3+XX+nSY+558aM8xb3Yv+jO3EtmW32jEofmtMu9+n84/BuCw8yZzs9Wh7el40D8uRNXExY0uspRj0/GMe/eueMoxxNLbb7lbxcoBThv/aawUzi0u3UXzu8cznUGzoNbzfxNnnjjkAi3kO7EdoKYlI4qpVuRGUmrT6Y7k8Aclit48qJRmPH+/afjbh8D2d8NnPPr7t+3F+ffvib0gXgtYk5XYaZm7DBBr9TvtV3FpR4u0Z7JK5ad9ENOoXeTreXjBmyOdieXpL/n7cxKTGRWPMc7DYtbkvsG1jon0nmxaDNUIrX3Bq/CJfGma1wBA8P0/n13c9dsVsFI8F89om6VmcW8zVvOy8B2Iq8wpxnOGK5ys+ty8RbhNvxOPWuO5LaKcWGC1is/BBlkYWTtBd+Nv1KTxxD8ns1hyohcKw4Lv1eLAHDj8IByC0DxKI7cSv7Hrbbu/w80WBtR2XLsW2P3mByF6KIfo9Hq+XxwRCe1jh6cmt/+1sOTH2TOqtfPePm9sjVH4UbB83b+UD7ILD4MD+OHAcoT2sYO6PVEgEiBk4AA6AA50DEFoINP6OAw6AA+AAOLAhB1YJLSqUXqEAC2ABDoAD4AA4sIQDENoNq5glAUAbLFRwABwAB47NAQgthBaPjMABcAAcAAc25ACEdkNwUaUeu0pFfBFfcAAcWMKB1ULb/osDDodABYgiBRwAB8ABcGCWA6uFVtR73bF0qHoEN7yCC+AAOAAOPBcHLhZa/sUOnFk6W8lgQT3XgkK8EW9wABzwHIDQ4rEHigVwABwAB8CBDTkAod0QXF/V4DMqXXAAHAAHno8DlwstfhEGFSCKFHAAHAAHwIFZDlwutASu/D4m/lY7CzSq2OerYhFzxBwcAAeIA5cLLX7/FeKKShYcAAfAAXBglgPXCS12srMAo6JFRQsOgAPgwHNzAEKLagzFAjgADoAD4MCGHIDQbgguqtjnrmIRf8QfHAAHiAMXCy1OhgKBkETAAXAAHAAH5jmwWmjbWcdfH+cX7AbxuAUcAAfAAXAAHJjkwGqhRfUyX70AI2AEDoAD4AA4IByA0KISm6zEhCh4RdIAB8ABcOAyDkBoIbQQWnAAHAAHwIENOQCh3RBcVH+XVX/ADbiBA+DAkTgAoYXQopIFB8ABcAAc2JADENoNwT1SRYa5YIcBDoAD4MBlHIDQQmhRyYID4AA4AA5syAEI7Ybgovq7rPoDbsANHAAHjsQBCC2EFpUsOAAOgAPgwIYc+H8CgOkkT6GbXQAAAABJRU5ErkJggg==;" vertex="1" parent="1">
          <mxGeometry x="2050" y="703.5" width="629.58" height="216.5" as="geometry" />
        </mxCell>
        <mxCell id="4FZqM-bikuzlJvexATYJ-6" value="" style="shape=image;verticalLabelPosition=bottom;labelBackgroundColor=default;verticalAlign=top;aspect=fixed;imageAspect=0;image=data:image/png,iVBORw0KGgoAAAANSUhEUgAAAdsAAABUCAYAAADK652NAAAUEUlEQVR4Ae1dPZojqw69y5nghpO95IXvm2jCu4MJegETdTAbcDZxd9LRzbyBWVq9T4BAEgLqx2W7qk/gjyoQQhIHDmC76q8vf3+d8EEMgAFgABgABoCB/TDwF4K7X3ARW8QWGAAGgAFggDAAssXOHicbwAAwAAwAAztjAGS7c4CxqsWqFhgABoABYABkuwPZ/vj9Z/r3ep1ev58NYP9Mrx/k25/p7dc/WAnvgB1MymcbM/AHmI4YOCXZfvt1DYRApBA+H5fp2x0nxtuT7c/pwr6Y9PJyv8Ec4nrnWGKg3q9/EWvEGhjYDwPnI9uX9+nf6/v0447kek+APpLwaBGBHe1+g/GeOEJb6Edg4L4Y2EC25Ugx7B5//xTHirQTe59+fL9Mb7wTkzsiIkR5/zfJp2NXKvt9SceV1+n1JelQ8u0ghV2lsqWW1TtfS8zGL0vcgczTjtkep0p/bb1A/maHqnwaxCwtHlyy9RYYKm+GbuWXfwQOsq2xhAkLMQEGgIE5GFhNtprUIkGVXQ+TChNZvM9HnjSxV0QjyPb6ZyLZ0EYgLarvE0DlJJNGi3AVCX2dLHmF+1ZduSjo7ZwD6bLvDEQbo0Tqua1BzHpkG+yKMeN46P6xuo0twV4RXxMjqbP0MfuFlOODFFgABoCBFgZWki1N3oZMFIHW5Kh2RUqWOkfIi7JSR5T3SC6XkTzvPrWdpDOTfpDXuuOuV9cpwYt6h4Tjka1HYEpO20FtFv8LgO3igG3TiwSry96nRUYieqqrfYpkrOPk5RW72A6kiAkwAAwAAzUG1pFtIAkmM5Hm3Wo9uSviEIQaO0XIi7JSR5RnQq2d8TqYdJRfBqfdZCZitl3s6hLJ8Y+rNAl9nb4o3xukrEg02Sn8ynYqudrH4n/xtUW20a5kD7WVd8xUt9Yt9cQYcSxKymSrY1hsyX4s7BPUQwyBAWDgs2FgA9k2iMbZLVJQFXFUxCPIQJSVOqJ88cROdXk3u3R3FutWhJtsCIRld/hUpkg0DSryy8qqvNrH4n8ZmJIkNViLb1SPiTLK1LqDnkTIXjtaN7Vf9NdlxT6UIRbAADAADNQYWEe2aeLVuyepvJ7c1YSuSIZ3m+I727RDLnVqfbM7M7RVdq5NgnRJPNrWItsvyg/hv0e26XvVosvqrn0s/hfdbbL9OgV7Pq7TWz5h4HpGd7BPELKJUSu2nj0tWeRz7JECC8AAMLDpcY1MkuXYsRCJmdztztYc1V5ehDxN/KvJtrapHCEXwEfCLXZze7x74yPk6lfWgZREPfOjrUpvOK6WJwDkp6g/OOr1yK1LthWhs8+m3bzT5/JE1NI2uwt3+hADSMTPXayhHBgBBoCBiIGVO1sA6DkBJBYtavJv5S/rR4/8nzMOy/yCD4gXMAAM7I0BkK0ipWMDjsjQP9q/DdmGXbXajR87XnsPLugHPoABYIAxALI9AdkGkqUj4Oq7Wgb6bchWHrOXrwy4DaQ8qJACC8AAMGAxALI9AdnaTsU9BjowAAwAA8+FAZAtyFY8ZvO5wInJAv0BDAADZ8HAKrL9z3//hwkaJA0MAAPAADAADMzEAMh2ZqDOsrqCH9gpAAPAADBwfwyAbEG2WJkCA8DADTBA/8v3SKyVv1XWq780b4ltUvecenNkpM6zX4NsbzDIzg4S+Hf/VTBifsyYW4Kx96N+nStPcnM/t2qT9bCNnHK+l/ZkpP1e3bPlgWxBtu5q/GxAhz/HJK9H9Vv3AS7O41glcbSuR74wMXHak/dk5uSRzNyP175tw97bOrLctmtlz35/TLJNz/YtnVeefazfysPAko9M5Pfkcpl9EAT9J1WUyUcbVo9rJDmtWz+y0bFLPhRCPJqyD7TaJvb98pIeUSn1hgVErBP+D1vF649+pZ5Tbv3q2lfVF353Y8aP15QxrP8T3Izp3/pVgZWNXtvN/yLvQ0bxP9AiHljcPf/iLuBZYlJjwyNiSSqEw9G9xepWea9NL8+2Y+3ge0/Oy/PaYB29tKWrV+foZQck20gi+q02YjAMBkr/2cJx8h8+sCFM4vVgtLojSSS5YBe9JEDUm022xT/bRgBg0v36vSFXlQsipsl/ELM+yAf9weTixizF++Mq3lKkyTaSlYgZvQTj92X6lvSGeFQLjRSHFfHt+1riO5ZLcfl1md7MM7THdZe0A9lbx5Mw1Z4DqF8lHmP8LXmM7qXNVpbLWvlU7pXNyfNkuD2ZWjl7L2Vb9lgZeT/SJ2XPcn08snUnbTHhdIljQKYVKQm9TBqUujZokogAie2FhUGy61UO5BVk4JItv9ghk06a6F+S/Y5fSk83Zo0YcDzcWDh1XLkUHyKkvOMUcXTstgPvWcn2x++0m+35EMrMKQPHFemDdsACf04ftPBG5DH6WOzSvSWd0T3rGLUly7mO154sk9dsB+vhunxvU1kur60eW0/ey/bPeH08sk1vtmkecw6IIwyWa2uCi5O/96Yg1fkecTTaDTszIsFc/nO6MLHckGyj/jjBKyKlCSO0rY8ylUy2zSFJZ8JRsRj1B9f3YibekZvJKehr+MG6RNqa/IKNK+KrfVsTD1PHiX1uI5S1sGj0CJ9zfeTdnJC7eBLYtH3ApML5c+6tDNVt5dl8e9+ryzaxDNWd85H11l57drIda3Uetd4ByTZOQvF4MYJGHSmnCUyBicmNJycpY8v4e8AESPc4ySOOxsSeB29oMx4/ke3B5kadHpgUSbI/KY1tvYfvnOuYCLJN/mcZGQ8eiE5cenY1+4Nt9GImyDacFoSdedlZKF+ljcK2HF9uR6ahTTOx5N3/gMxkexwTSufWZzuCHhF7zkd6c6Ls4XNemTiJ8vqnM14tqYzuW/bYekvkvLo2z94v0d+S7eW32mvl93QdveywZJsDnybUTIphcqu/U8nyahDxTrYhzxOunWA94mi0SyQUbJPldE06O4PXtzf9IEiQjZaLx8cVIbAfgjQy0VI8pG0qPgNC8mRtf7CMFzNJtuGa+qFBtlKP8H9ItkJWx2qFb2zDkjTEFmT7kNgv6SeS7Y7HPhETeYw+c2Iwl4RGbcly2e5c/baO1Ne7lvXoWra3pJ7Vc4b745Ot/b5yKXEMJkO1u+LB6xJHIYkCDDFAlV2Uf51ef7133tTjk4FrD9uVyCsvPDh/4ONNydb2B9vgxkzEJ50ovP26TBf+QVGoY4jKTIi7kW2ImTOB2oUX+9dKR7Fv1UP+3Xe+eWHsxV6NX39slnGvSUbmj64lOfVkPbk5eZ5Mrx2vbIkOKSuvpd5WvpQ5w/UJyDbu5jLBLBwUYbJ2fl0YOzeSQbVTdIkj/aVI7KQUMVq7Xt6nt4/rCcnW9AdPXG7MNNl+oV3tx1X8ejfFX8TU7j52I1u2e2vaI9tQtuJoeqtNqF8TuR2fJkZdIjayNHesJZC59Ty5OXmezBIis/XtvdXF5ZTydUvG5p/t/nBkG8lR7zgy0RLoeQJTxzp8TByJgDs+plzGvzLWuhXRBsIw5Yao5XeX6v2y1WBOtkgicQatBZwi8Eo+kpOKR46J2SHKut2Y9Vfxw/7oxsySLf8HWtuqYkr9KmLmtZ/7zGtb1LWxveW9axfv2HPsGY8Cg7msH/db2gpdg/9ri682bKz0XGLnBv/e6pD3LUKaI+PVlXnyWuqbe92q38onvVTG5Zza9lr5Vu7o94cj26MHHPaDRAoG0s596dE0CLnemW6KCS169AKv9NGIiH08ryWQOfVaMl6+zJPX0r8511R39PH0yDZ79b26Z8sD2W4apP5AOxtI4M/t+znvfEG0NybO2/fVGvxLkllSf1RvVM5tSWKjvLn1uP7SdI7+lkwrf6kNzy4Psn0GsnWPcctKsjoWvqPN1RGuWuHi+PPZBzjsew7yRT+gH0C2dyQuDDgMOGAAGAAGPicGQLYg21Me42FC+5wTGvod/f6sGADZgmxBtsAAMAAMAAM7YwBku3OAn3WVBbuwAwAGgAFg4H4YANmCbLGiBQaAgR0wYH9la+89oruVjKcbefcjVi/WINsdBpkXaOQ9FuiIP+K/BwaIHL0PtyXJU15zuUy5nFNZZq97MlTGH1sP948bByBbkC12NcAAMGAw0H08Y/U0OP0/VkmEfM1pi+xsub239WQ5XcuPlcX94whWxv6YZFv9L1U8/aUqIyDq/4NW/x1VDxbgR+gVAOc35HiP/zO688MKwgBw7JJtkb5Zjw+sbeLBdXlpPYUo1gn/0XViov6765TbmEnQeNc6piLeVcxETNIE14xZqCt0kbzMc+xWfpkJ1LN7S57yeVY/Pseg3+Lzp6gbcGVwJ7DkEbElP4oTj1GZevGTdWV5K1/K2Os1dawO3O8zTg9ItpFEMgGKQRBAMhgoYWJvToyNZwvbNuSEL8qs7kgiadAGu67T24cYxKSnaYvf4baN4rMmMSWX2n79zjoFEZP9g5j1B18ie+XHz+nCiwrjo4oJvztY1FXlXpxl3sgv0Td9HzguC1Kyg31Mb1sq9wv07GkjdK/asRMG24s2GjtlDEsitdeMuR4B9sqo/qic2+B0qTzXQ7r/mD0e2crJ1ptMusQxINNq8m50gGsDDUJNeF/k+1qTXa9yIJMeQTRzAK9IVPgfdll58jcLEscvpacbs0YMuG03FqKO9VHJD2KmZJNOmTfyi228Q6riKdqLu98yOc/pY8gI/IhY3icuHiaLPaGf8zgr+ZLk5DXZbO85j/MpbX16srKsVZ/bIFl8HhuD45FteANHfTScgTQgjjBYrumF7hUA0y6tIk3TSXLCZx2NdjMJ5nJ6jdxl+kb1SA9fs55B2prU4+40kn0lMyKlbJvxc2ALxTz715I1PgZ59rnRbtbpxVnmjfxq2bRDfhXz1EbwReyEMk53sAG6l+PXxiz0o0OmUa5NxJLU+NojQNve2ntuw9Zv5Vs53G/HytIYHpBsY5DiJBZXhOpIOUzAZqXIkztPcFLGlvHRZlptusdJcsJnnYZUuCPy4BXEQrYHmxt1uK6XtiZ1ko1tvU+Xa9LPtllSSv7nuMl48CrbiYtnTyZGaivEJcWeJyyZR7o5n+WddnLMQl2zK5R5I7/YfzeNu/9qQnTs8fxWeTaebnv3H9zKRtg0Y2cXF9t5XNiYEfYMPir8pPEjY78HAbZ0tvKlPbh+zFg8LNlmwKTJPJNimPjMBG0HTb7nnWxDnklIEgTVlRM+62q0S2QUbJPldE06ncGb/WK9Ju2RbXj5uiU0qs9+MJG6ZNyIgWnf2qfINslmsqR76aONm4yJaCfHzMqzPt4pjvwSOq3dt7uPpJ3xd5c2HzNZ3C5mT2q/xGrVj20iHhFcq5zy535s7KXOng5bD/ePw97xydYeZTYm8CbIgrz9rrV0iEtuHgm4L5gWA1TZRfnX6fVXvVJu2pkGv2tPnhhie9XEP/Bxyw+kgj1MftJGXqCoCcza5x3LtWKW+kTqG/mV41L6s8T3FjvbpIN97bbn2YC80h+Pj0Ve5Hn9qMavttUjO/LLy5ckaX3vlfVkW/Va+VYX7nV/7hWPE5Ct2Vl0BoUXRI8silyc+NXRJw1El2zT95fimEkRo7Xr5X16+7hWx1KlbR8ASmc1KVgySzpGpGRtq/T6tkRba8IJNjIBSXJ0Yhd2xq2Ype/ny7Ge8W/k1yI/ej56ZbXfXt8F/0a/AdjVTs925FV9NRgDLSImQrOkNrqv2nZ+RGV12DpcTilft2RsPu4fg//DkW0kR338onZyYdDo8vKf0TRBquMbcXwaSNTUZdLIRGHKza4uTq5JRpBIvXtMtkiZGZPufmTb96s/QNOiRMaV42bJ1vmbTDNmFA/bn6w3l7VPJfo2bxtwHg5p0isLg6if5RRGZ/TznrZDd933oZ8ktlQf0Vht48yS3ejext/Kc3krn8qpjMs55XqctvK5HGmNgz1jcjiy3TMY0H1f8H2KeIcFXHui/hQxUMT1jBjrk2mfiAvxMQFakrP3ss9lnda1lOdrqbNVT8pwPaSPwx/I9ukngseBAwNzS+z5FAVEe3YcWVIb3S+Jh9Xl1W3JtPI9HcjbMtbn1QXZPgPZ2qNSeRzb/E/wvA7eOojUEa+xqxzP38eWrb6gPvoJGAAGHoUBkO0zkC1smPEfSEwSj5ok0C6wBwxsxwDIFkQHogMGgAFgABjYGQOryBarnO2rHMQQMQQGgAFg4PNgAGS782oGg+nzDCb0NfoaGAAGWhgA2YJscXwEDAADwAAwsDMGQLY7B7i1ykE+VsDAADAADHweDKwmW34yjn0LBsDzecCDvkZfAwPAADAwDwOryZYD3HpmKJcjndcRiBPiBAwAA8DAeTGwmWzDQ/mbzxQ9b+AwKNC3wAAwAAwAA3MxALLFd7b4YQQwAAwAA8DAzhgA2e4c4LmrHshhhQwMAAPAwHkxsJ1sB++BBHjOCx70LfoWGAAGgIF5GNhOtrQz5Afp47tbHMXgpAAYAAaAAWCgwsB2sq1eDj6P5bEaQpyAAWAAGAAGPgsGbkO22NFWq5jPAiD4ickSGAAGgIExBkC2OO7AQgEYAAaAAWBgZwyAbHcOMFZ84xUfYoQYAQPAwNkxsJls8QQpDJKzDxL4B4wDA8DAVgysJtv8bOTr+/QDu0McwQADwAAwAAwAA00MrCbbrSyP+lgpAgPAADAADHwWDIBssRJrrsQ+yyCAn5jwgQFgYG8MgGxBtiBbYAAYAAaAgZ0xALLdOcB7r5agHytyYAAYAAaeHwMgW5AtVrTAADAADAADO2MAZLtzgLHifP4VJ/oIfQQMAAN7YwBkC7LFihYYAAaAAWBgZwyAbHcO8N6rJejHihwYAAaAgefHAMgWZIsVLTAADAADwMDOGADZ7hxgrDiff8WJPkIfAQPAwN4Y+D+auYwMmwzo4wAAAABJRU5ErkJggg==;" vertex="1" parent="1">
          <mxGeometry x="2890" y="739.75" width="814.29" height="144" as="geometry" />
        </mxCell>
        <mxCell id="4FZqM-bikuzlJvexATYJ-7" value="unread_{nUserId}{nPeerId}" style="text;align=center;fontStyle=1;verticalAlign=middle;spacingLeft=3;spacingRight=3;strokeColor=none;rotatable=0;points=[[0,0.5],[1,0.5]];portConstraint=eastwest;html=1;" vertex="1" parent="1">
          <mxGeometry x="220" y="393.5" width="80" height="26" as="geometry" />
        </mxCell>
      </root>
    </mxGraphModel>
  </diagram>
</mxfile>
